<?xml version="1.0" encoding="utf-8"?>
<!-- Generator: Adobe Illustrator 22.0.0, SVG Export Plug-In . SVG Version: 6.00 Build 0)  -->
<svg version="1.1" id="Layer_1" xmlns="http://www.w3.org/2000/svg" xmlns:xlink="http://www.w3.org/1999/xlink" x="0px" y="0px"
	 viewBox="0 0 1000 1000" style="enable-background:new 0 0 1000 1000;" xml:space="preserve">
<style type="text/css">
	.st0{fill:#209DC9;}
</style>
<g>
	<g>
		<path class="st0" d="M182.4,607.1c3.9,0,7.8,0.4,11.5,1.1L340,369.7c-15.1-11.2-24.9-29.1-24.9-49.3c0-33.8,27.5-61.4,61.4-61.4
			s61.4,27.5,61.4,61.4c0,17.9-7.7,34-20,45.3l161.3,272.8c4.5-1,9.1-1.6,13.9-1.6c4.7,0,9.3,0.5,13.7,1.6l146.9-258.7
			c-18.6-10.6-31.2-30.5-31.2-53.4c0-24.3,14.2-45.4,34.8-55.3L543.5,65.5c-29.1-28-75.5-27.2-103.5,2L65.5,456.5
			c-28,29.1-27.2,75.5,2,103.5l69.6,67C148.3,614.8,164.5,607.1,182.4,607.1z"/>
		<circle class="st0" cx="592.9" cy="698.2" r="36.8"/>
		<path class="st0" d="M783.6,363.1c18.5,0,33.8-13.7,36.4-31.5l-43.1-41.5c-17.1,3.2-30.1,18.2-30.1,36.2
			C746.8,346.6,763.3,363.1,783.6,363.1z"/>
		<path class="st0" d="M932.6,439.9l-92.7-89.2c-9.5,21.7-31.1,36.9-56.3,36.9c-2.1,0-4.2-0.1-6.3-0.3L629,648.6
			c15.3,11.2,25.3,29.2,25.3,49.6c0,33.8-27.5,61.4-61.4,61.4c-33.8,0-61.4-27.5-61.4-61.4c0-20.3,9.9-38.3,25.1-49.4L396.7,378.2
			c-6.4,2.2-13.2,3.5-20.3,3.5c-4.8,0-9.5-0.6-14-1.6L216.8,617.7c16.2,11.1,26.9,29.7,26.9,50.7c0,17.1-7,32.6-18.3,43.7
			l231.1,222.4c29.1,28,75.5,27.2,103.5-2l374.5-389.1C962.6,514.3,961.7,468,932.6,439.9z"/>
		<path class="st0" d="M182.4,631.6c-11,0-20.8,4.9-27.6,12.5l52.9,50.9c7.1-6.7,11.5-16.2,11.5-26.7
			C219.2,648.1,202.7,631.6,182.4,631.6z"/>
		<circle class="st0" cx="376.4" cy="320.3" r="36.8"/>
	</g>
</g>
</svg>
