<?xml version="1.0" encoding="UTF-8"?>
<svg width="1084px" height="376px" viewBox="0 0 1084 376" version="1.1" xmlns="http://www.w3.org/2000/svg" xmlns:xlink="http://www.w3.org/1999/xlink">
    <!-- Generator: sketchtool 54 (76480) - https://sketchapp.com -->
    <title>EB82F072-74B1-4B39-92EB-692B444581FF</title>
    <desc>Created with sketchtool.</desc>
    <g id="Page-1" stroke="none" stroke-width="1" fill="none" fill-rule="evenodd" opacity="0.133161272">
        <g id="NEXT-ORBIT-LANDING-PAGE-New-TItle-Section--V03" transform="translate(-98.000000, -3954.000000)" fill="#2B97CE">
            <g id="Aksen-Copy" transform="translate(98.000000, 3954.000000)">
                <path d="M972,176 C969.790861,176 968,174.209139 968,172 C968,169.790861 969.790861,168 972,168 C974.209139,168 976,169.790861 976,172 C976,174.209139 974.209139,176 972,176 Z M1032,296 C1029.79086,296 1028,294.209139 1028,292 C1028,289.790861 1029.79086,288 1032,288 C1034.20914,288 1036,289.790861 1036,292 C1036,294.209139 1034.20914,296 1032,296 Z M952,306 C949.790861,306 948,304.209139 948,302 C948,299.790861 949.790861,298 952,298 C954.209139,298 956,299.790861 956,302 C956,304.209139 954.209139,306 952,306 Z M882,236 C879.790861,236 878,234.209139 878,232 C878,229.790861 879.790861,228 882,228 C884.209139,228 886,229.790861 886,232 C886,234.209139 884.209139,236 882,236 Z M1022,114 C1020.89543,114 1020,113.104569 1020,112 C1020,110.895431 1020.89543,110 1022,110 C1023.10457,110 1024,110.895431 1024,112 C1024,113.104569 1023.10457,114 1022,114 Z M912,84 C910.895431,84 910,83.1045695 910,82 C910,80.8954305 910.895431,80 912,80 C913.104569,80 914,80.8954305 914,82 C914,83.1045695 913.104569,84 912,84 Z M912,145 C910.895431,145 910,144.104569 910,143 C910,141.895431 910.895431,141 912,141 C913.104569,141 914,141.895431 914,143 C914,144.104569 913.104569,145 912,145 Z M822,145 C820.895431,145 820,144.104569 820,143 C820,141.895431 820.895431,141 822,141 C823.104569,141 824,141.895431 824,143 C824,144.104569 823.104569,145 822,145 Z M822,78 C820.895431,78 820,77.1045695 820,76 C820,74.8954305 820.895431,74 822,74 C823.104569,74 824,74.8954305 824,76 C824,77.1045695 823.104569,78 822,78 Z M1082,78 C1080.89543,78 1080,77.1045695 1080,76 C1080,74.8954305 1080.89543,74 1082,74 C1083.10457,74 1084,74.8954305 1084,76 C1084,77.1045695 1083.10457,78 1082,78 Z M952,4 C950.895431,4 950,3.1045695 950,2 C950,0.8954305 950.895431,0 952,0 C953.104569,0 954,0.8954305 954,2 C954,3.1045695 953.104569,4 952,4 Z" id="Oval-3"></path>
                <path d="M152,176 C149.790861,176 148,174.209139 148,172 C148,169.790861 149.790861,168 152,168 C154.209139,168 156,169.790861 156,172 C156,174.209139 154.209139,176 152,176 Z M212,296 C209.790861,296 208,294.209139 208,292 C208,289.790861 209.790861,288 212,288 C214.209139,288 216,289.790861 216,292 C216,294.209139 214.209139,296 212,296 Z M132,306 C129.790861,306 128,304.209139 128,302 C128,299.790861 129.790861,298 132,298 C134.209139,298 136,299.790861 136,302 C136,304.209139 134.209139,306 132,306 Z M62,236 C59.790861,236 58,234.209139 58,232 C58,229.790861 59.790861,228 62,228 C64.209139,228 66,229.790861 66,232 C66,234.209139 64.209139,236 62,236 Z M202,114 C200.895431,114 200,113.104569 200,112 C200,110.895431 200.895431,110 202,110 C203.104569,110 204,110.895431 204,112 C204,113.104569 203.104569,114 202,114 Z M92,84 C90.8954305,84 90,83.1045695 90,82 C90,80.8954305 90.8954305,80 92,80 C93.1045695,80 94,80.8954305 94,82 C94,83.1045695 93.1045695,84 92,84 Z M92,145 C90.8954305,145 90,144.104569 90,143 C90,141.895431 90.8954305,141 92,141 C93.1045695,141 94,141.895431 94,143 C94,144.104569 93.1045695,145 92,145 Z M2,145 C0.8954305,145 0,144.104569 0,143 C0,141.895431 0.8954305,141 2,141 C3.1045695,141 4,141.895431 4,143 C4,144.104569 3.1045695,145 2,145 Z M2,78 C0.8954305,78 0,77.1045695 0,76 C0,74.8954305 0.8954305,74 2,74 C3.1045695,74 4,74.8954305 4,76 C4,77.1045695 3.1045695,78 2,78 Z M262,78 C260.895431,78 260,77.1045695 260,76 C260,74.8954305 260.895431,74 262,74 C263.104569,74 264,74.8954305 264,76 C264,77.1045695 263.104569,78 262,78 Z M132,4 C130.895431,4 130,3.1045695 130,2 C130,0.8954305 130.895431,0 132,0 C133.104569,0 134,0.8954305 134,2 C134,3.1045695 133.104569,4 132,4 Z" id="Oval-3" transform="translate(132.000000, 153.000000) scale(-1, 1) translate(-132.000000, -153.000000) "></path>
                <path d="M422,246 C419.790861,246 418,244.209139 418,242 C418,239.790861 419.790861,238 422,238 C424.209139,238 426,239.790861 426,242 C426,244.209139 424.209139,246 422,246 Z M482,366 C479.790861,366 478,364.209139 478,362 C478,359.790861 479.790861,358 482,358 C484.209139,358 486,359.790861 486,362 C486,364.209139 484.209139,366 482,366 Z M402,376 C399.790861,376 398,374.209139 398,372 C398,369.790861 399.790861,368 402,368 C404.209139,368 406,369.790861 406,372 C406,374.209139 404.209139,376 402,376 Z M332,306 C329.790861,306 328,304.209139 328,302 C328,299.790861 329.790861,298 332,298 C334.209139,298 336,299.790861 336,302 C336,304.209139 334.209139,306 332,306 Z M472,184 C470.895431,184 470,183.104569 470,182 C470,180.895431 470.895431,180 472,180 C473.104569,180 474,180.895431 474,182 C474,183.104569 473.104569,184 472,184 Z M362,154 C360.895431,154 360,153.104569 360,152 C360,150.895431 360.895431,150 362,150 C363.104569,150 364,150.895431 364,152 C364,153.104569 363.104569,154 362,154 Z M362,215 C360.895431,215 360,214.104569 360,213 C360,211.895431 360.895431,211 362,211 C363.104569,211 364,211.895431 364,213 C364,214.104569 363.104569,215 362,215 Z M272,215 C270.895431,215 270,214.104569 270,213 C270,211.895431 270.895431,211 272,211 C273.104569,211 274,211.895431 274,213 C274,214.104569 273.104569,215 272,215 Z M272,148 C270.895431,148 270,147.104569 270,146 C270,144.895431 270.895431,144 272,144 C273.104569,144 274,144.895431 274,146 C274,147.104569 273.104569,148 272,148 Z M532,148 C530.895431,148 530,147.104569 530,146 C530,144.895431 530.895431,144 532,144 C533.104569,144 534,144.895431 534,146 C534,147.104569 533.104569,148 532,148 Z M402,74 C400.895431,74 400,73.1045695 400,72 C400,70.8954305 400.895431,70 402,70 C403.104569,70 404,70.8954305 404,72 C404,73.1045695 403.104569,74 402,74 Z" id="Oval-3" transform="translate(402.000000, 223.000000) scale(-1, -1) translate(-402.000000, -223.000000) "></path>
                <path d="M632,196 C629.790861,196 628,194.209139 628,192 C628,189.790861 629.790861,188 632,188 C634.209139,188 636,189.790861 636,192 C636,194.209139 634.209139,196 632,196 Z M692,316 C689.790861,316 688,314.209139 688,312 C688,309.790861 689.790861,308 692,308 C694.209139,308 696,309.790861 696,312 C696,314.209139 694.209139,316 692,316 Z M612,326 C609.790861,326 608,324.209139 608,322 C608,319.790861 609.790861,318 612,318 C614.209139,318 616,319.790861 616,322 C616,324.209139 614.209139,326 612,326 Z M542,256 C539.790861,256 538,254.209139 538,252 C538,249.790861 539.790861,248 542,248 C544.209139,248 546,249.790861 546,252 C546,254.209139 544.209139,256 542,256 Z M682,134 C680.895431,134 680,133.104569 680,132 C680,130.895431 680.895431,130 682,130 C683.104569,130 684,130.895431 684,132 C684,133.104569 683.104569,134 682,134 Z M572,104 C570.895431,104 570,103.104569 570,102 C570,100.895431 570.895431,100 572,100 C573.104569,100 574,100.895431 574,102 C574,103.104569 573.104569,104 572,104 Z M572,165 C570.895431,165 570,164.104569 570,163 C570,161.895431 570.895431,161 572,161 C573.104569,161 574,161.895431 574,163 C574,164.104569 573.104569,165 572,165 Z M482,165 C480.895431,165 480,164.104569 480,163 C480,161.895431 480.895431,161 482,161 C483.104569,161 484,161.895431 484,163 C484,164.104569 483.104569,165 482,165 Z M482,98 C480.895431,98 480,97.1045695 480,96 C480,94.8954305 480.895431,94 482,94 C483.104569,94 484,94.8954305 484,96 C484,97.1045695 483.104569,98 482,98 Z M742,98 C740.895431,98 740,97.1045695 740,96 C740,94.8954305 740.895431,94 742,94 C743.104569,94 744,94.8954305 744,96 C744,97.1045695 743.104569,98 742,98 Z M612,24 C610.895431,24 610,23.1045695 610,22 C610,20.8954305 610.895431,20 612,20 C613.104569,20 614,20.8954305 614,22 C614,23.1045695 613.104569,24 612,24 Z" id="Oval-3" transform="translate(612.000000, 173.000000) scale(-1, -1) translate(-612.000000, -173.000000) "></path>
            </g>
        </g>
    </g>
</svg>