<?xml version="1.0" encoding="UTF-8"?>
<svg width="525px" height="339px" viewBox="0 0 525 339" version="1.1" xmlns="http://www.w3.org/2000/svg" xmlns:xlink="http://www.w3.org/1999/xlink">
    <!-- Generator: sketchtool 54 (76480) - https://sketchapp.com -->
    <title>EE11924E-303B-4E58-9615-D2FE7132E89F</title>
    <desc>Created with sketchtool.</desc>
    <defs>
        <rect id="path-1" x="0" y="0" width="601" height="417"></rect>
        <linearGradient x1="50%" y1="0%" x2="50%" y2="86.6183368%" id="linearGradient-3">
            <stop stop-color="#5CBA30" offset="0%"></stop>
            <stop stop-color="#8EFF9D" stop-opacity="0" offset="100%"></stop>
        </linearGradient>
        <linearGradient x1="50%" y1="0%" x2="50%" y2="100%" id="linearGradient-4">
            <stop stop-color="#3A96FD" offset="0%"></stop>
            <stop stop-color="#2E5BFF" stop-opacity="0" offset="100%"></stop>
        </linearGradient>
        <path d="M346,364.995247 C346,362.236448 348.23657,360 351.000103,360 L489.999897,360 C492.761378,360 495,362.23813 495,364.995247 L495,413.004753 C495,415.763552 492.76343,418 489.999897,418 L351.000103,418 C348.238622,418 346,415.76187 346,413.004753 L346,364.995247 Z" id="path-5"></path>
        <filter x="-18.5%" y="-40.5%" width="136.9%" height="194.8%" filterUnits="objectBoundingBox" id="filter-6">
            <feOffset dx="0" dy="4" in="SourceAlpha" result="shadowOffsetOuter1"></feOffset>
            <feGaussianBlur stdDeviation="8.5" in="shadowOffsetOuter1" result="shadowBlurOuter1"></feGaussianBlur>
            <feColorMatrix values="0 0 0 0 0.0614453852   0 0 0 0 0.484446951   0 0 0 0 0.684816114  0 0 0 0.226760643 0" type="matrix" in="shadowBlurOuter1"></feColorMatrix>
        </filter>
        <path d="M380,150.995247 C380,148.236448 382.23657,146 385.000103,146 L523.999897,146 C526.761378,146 529,148.23813 529,150.995247 L529,199.004753 C529,201.763552 526.76343,204 523.999897,204 L385.000103,204 C382.238622,204 380,201.76187 380,199.004753 L380,150.995247 Z" id="path-7"></path>
        <filter x="-18.5%" y="-40.5%" width="136.9%" height="194.8%" filterUnits="objectBoundingBox" id="filter-8">
            <feOffset dx="0" dy="4" in="SourceAlpha" result="shadowOffsetOuter1"></feOffset>
            <feGaussianBlur stdDeviation="8.5" in="shadowOffsetOuter1" result="shadowBlurOuter1"></feGaussianBlur>
            <feColorMatrix values="0 0 0 0 0.0614453852   0 0 0 0 0.484446951   0 0 0 0 0.684816114  0 0 0 0.226760643 0" type="matrix" in="shadowBlurOuter1"></feColorMatrix>
        </filter>
        <path d="M349,222.005322 C349,219.240959 351.23657,217 354.000103,217 L492.999897,217 C495.761378,217 498,219.236284 498,222.005322 L498,251.994678 C498,254.759041 495.76343,257 492.999897,257 L354.000103,257 C351.238622,257 349,254.763716 349,251.994678 L349,222.005322 Z" id="path-9"></path>
        <filter x="-18.5%" y="-58.8%" width="136.9%" height="237.5%" filterUnits="objectBoundingBox" id="filter-10">
            <feOffset dx="0" dy="4" in="SourceAlpha" result="shadowOffsetOuter1"></feOffset>
            <feGaussianBlur stdDeviation="8.5" in="shadowOffsetOuter1" result="shadowBlurOuter1"></feGaussianBlur>
            <feColorMatrix values="0 0 0 0 0.0614453852   0 0 0 0 0.484446951   0 0 0 0 0.684816114  0 0 0 0.226760643 0" type="matrix" in="shadowBlurOuter1"></feColorMatrix>
        </filter>
        <path d="M236,268.995247 C236,266.236448 238.23657,264 241.000103,264 L379.999897,264 C382.761378,264 385,266.23813 385,268.995247 L385,317.004753 C385,319.763552 382.76343,322 379.999897,322 L241.000103,322 C238.238622,322 236,319.76187 236,317.004753 L236,268.995247 Z" id="path-11"></path>
        <filter x="-18.5%" y="-40.5%" width="136.9%" height="194.8%" filterUnits="objectBoundingBox" id="filter-12">
            <feOffset dx="0" dy="4" in="SourceAlpha" result="shadowOffsetOuter1"></feOffset>
            <feGaussianBlur stdDeviation="8.5" in="shadowOffsetOuter1" result="shadowBlurOuter1"></feGaussianBlur>
            <feColorMatrix values="0 0 0 0 0.0614453852   0 0 0 0 0.484446951   0 0 0 0 0.684816114  0 0 0 0.226760643 0" type="matrix" in="shadowBlurOuter1"></feColorMatrix>
        </filter>
    </defs>
    <g id="Page-1" stroke="none" stroke-width="1" fill="none" fill-rule="evenodd">
        <g id="NEXT-ORBIT-LANDING-PAGE-New-TItle-Section--V03-Features-Price" transform="translate(-717.000000, -253.000000)">
            <g id="Group-5" transform="translate(641.000000, 153.000000)">
                <g id="Group-19">
                    <g id="Big-Chart-Card">
                        <mask id="mask-2" fill="white">
                            <use xlink:href="#path-1"></use>
                        </mask>
                        <use id="Mask" fill="#FFFFFF" opacity="0" xlink:href="#path-1"></use>
                        <g mask="url(#mask-2)" id="chart">
                            <g transform="translate(75.336720, 32.278243)">
                                <g transform="translate(0.000000, 35.767782)">
                                    <g id="Grid" transform="translate(0.000000, 32.000000)" stroke-linecap="square">
                                        <g id="vertical" opacity="0.5" transform="translate(52.800071, 0.859615)" stroke="#8097B1" stroke-dasharray="2,2,2" stroke-width="0.5">
                                            <path d="M0.880001186,0.636106901 L0.880001186,235.820898" id="Line-1" opacity="0.606809701"></path>
                                            <path d="M53.6800723,0.636106901 L53.6800723,235.820898" id="Line-2" opacity="0.606809701"></path>
                                            <path d="M106.480143,0.636106901 L106.480143,235.820898" id="Line-3" opacity="0.606809701"></path>
                                            <path d="M159.280215,0.636106901 L159.280215,235.820898" id="Line-3" opacity="0.606809701"></path>
                                            <path d="M212.080286,0.636106901 L212.080286,235.820898" id="Line-3" opacity="0.606809701"></path>
                                            <path d="M264.880357,0.636106901 L264.880357,235.820898" id="Line-3" opacity="0.606809701"></path>
                                            <path d="M317.680428,0.636106901 L317.680428,235.820898" id="Line-3" opacity="0.606809701"></path>
                                            <path d="M370.480499,0.636115296 L370.480499,235.820898" id="Line-4" opacity="0.606809701"></path>
                                            <path d="M423.28057,0.636106901 L423.28057,235.820898" id="Line-1" opacity="0.606809701"></path>
                                        </g>
                                        <g id="horizontal" opacity="0.5" transform="translate(1.760002, 0.000000)" stroke="#8097B1" stroke-dasharray="2,2,2,2" stroke-width="0.5">
                                            <path d="M1.74090083,196.207184 L896.913172,196.207184" id="Line-3" opacity="0.756413246"></path>
                                            <path d="M0.204635992,157.524497 L895.376907,157.524497" id="Line-4" opacity="0.756413246"></path>
                                            <path d="M1.74090083,117.982195 L896.913172,117.982195" id="Line-5" opacity="0.756413246"></path>
                                            <path d="M0.204635992,78.4398929 L895.376907,78.4398929" id="Line-6" opacity="0.756413246"></path>
                                            <path d="M1.74090083,39.757206 L896.913172,39.757206" id="Line-5" opacity="0.756413246"></path>
                                            <path d="M0.204635992,1.07451908 L895.377042,1.07451908" id="Line-6" opacity="0.756413246"></path>
                                        </g>
                                        <path d="M1.32000178,0.937003724 L1.32000178,236.041779" id="Line" stroke="#E0E7FF"></path>
                                        <path d="M1.96463836,235.96439 L897.136909,235.96439" id="Line" stroke="#E0E7FF"></path>
                                    </g>
                                    <g id="figure-2" transform="translate(1.000000, 126.000000)">
                                        <polyline id="Path-5" fill-opacity="0.100000001" fill="url(#linearGradient-3)" points="0.438188482 107.99934 52.622722 121.648893 105.676998 79.0944037 160.884881 64.2404783 211.785549 13.2553829 263.970083 0.408744665 317.024358 37.3428295 369.480499 52.5982124 408.66328 160.953975 422.28057 79.0944037 475.317443 37.3428295 528.371719 53.4011273 581.953599 36.9413721 633.610528 64.6419357 686.664804 72.6710846 739.71908 42.1603189 791.903613 42.1603189 844.957889 37.3428295 898.012165 6.02914888 898.414431 180.274646 0.438188482 136.904276"></polyline>
                                        <polyline id="Path-5" stroke="#5CBA30" stroke-width="2" points="0.438188482 109.605169 54.3622064 121.648893 105.676998 79.0944037 160.884881 64.2404783 210.915807 12.452468 263.970083 0.408744665 317.024358 37.3428295 369.480499 52.5982124 408.66328 160.953975 422.28057 81.9539749 475.317443 37.3428295 528.371719 52.5982124 581.953599 36.9413721 633.610528 64.6419357 686.664804 72.6710846 739.71908 42.1603189 792.773355 42.1603189 844.957889 37.3428295 898.012165 6.02914888"></polyline>
                                        <g id="Group-2" transform="translate(155.037263, 60.000000)" fill="#FFFFFF" stroke="#5BB834" stroke-width="2">
                                            <circle id="Oval" cx="4.52903113" cy="4.62736129" r="3"></circle>
                                            <circle id="Oval" cx="253.529031" cy="101.627361" r="3"></circle>
                                        </g>
                                    </g>
                                    <g id="figure" transform="translate(1.663280, 54.953975)">
                                        <polyline id="Path-5" fill-opacity="0.100000001" fill="url(#linearGradient-4)" points="0.0428432327 150.5 59.6747809 118 121.32814 137.5 182.476144 79.5 242.108082 7.5 303.761441 23.5 362.888023 73 424.541383 104 485.184031 71 543.805258 58.5 605.963973 0 666.606621 45.5 728.259981 118 787.891918 141 850.050633 75.25 909 10 968.809153 23.5 1030.46251 30.5 1030.46251 224.016149 0.0428432327 224.016149"></polyline>
                                        <polyline id="Path-5" stroke="#3A96FD" stroke-width="2" points="0.0428432327 150.5 59.6747809 118 121.32814 137.5 182.476144 79.5 242.108082 7.5 303.761441 23.5 362.888023 73 424.541383 104 485.184031 71 543.805258 58.5 605.963973 0 666.606621 45.5 728.259981 118 787.891918 141 850.050633 75.25 909 10 968.809153 23.5 1030.46251 30.5"></polyline>
                                        <circle id="Oval" stroke="#3794FC" stroke-width="2" fill="#FFFFFF" cx="303.256086" cy="23" r="3"></circle>
                                    </g>
                                </g>
                            </g>
                        </g>
                    </g>
                    <text id="Jan" font-family="HelveticaNeue-Medium, Helvetica Neue" font-size="10" font-weight="400" fill="#97A4BA">
                        <tspan x="123.165" y="359">Jan</tspan>
                    </text>
                    <text id="Feb" font-family="HelveticaNeue-Medium, Helvetica Neue" font-size="10" font-weight="400" fill="#97A4BA">
                        <tspan x="173.7" y="359">Feb</tspan>
                    </text>
                    <text id="Mar" font-family="HelveticaNeue-Medium, Helvetica Neue" font-size="10" font-weight="400" fill="#97A4BA">
                        <tspan x="228.515" y="359">Mar</tspan>
                    </text>
                    <text id="Apr" font-family="HelveticaNeue-Medium, Helvetica Neue" font-size="10" font-weight="400" fill="#97A4BA">
                        <tspan x="280.35" y="359">Apr</tspan>
                    </text>
                    <text id="May" font-family="HelveticaNeue-Medium, Helvetica Neue" font-size="10" font-weight="400" fill="#97A4BA">
                        <tspan x="331.18" y="359">May</tspan>
                    </text>
                    <text id="Jun" font-family="HelveticaNeue-Medium, Helvetica Neue" font-size="10" font-weight="400" fill="#97A4BA">
                        <tspan x="385.575" y="359">Jun</tspan>
                    </text>
                    <text id="Jul" font-family="HelveticaNeue-Medium, Helvetica Neue" font-size="10" font-weight="400" fill="#97A4BA">
                        <tspan x="440.24" y="359">Jul</tspan>
                    </text>
                    <text id="Aug" font-family="HelveticaNeue-Medium, Helvetica Neue" font-size="10" font-weight="400" fill="#97A4BA">
                        <tspan x="492.83" y="359">Aug</tspan>
                    </text>
                    <text id="Sep" font-family="HelveticaNeue-Medium, Helvetica Neue" font-size="10" font-weight="400" fill="#97A4BA">
                        <tspan x="544.925" y="359">Sep</tspan>
                    </text>
                </g>
                <g id="Rectangle-18-Copy-2">
                    <use fill="black" fill-opacity="1" filter="url(#filter-6)" xlink:href="#path-5"></use>
                    <use fill="#FFFFFF" fill-rule="evenodd" xlink:href="#path-5"></use>
                </g>
                <text id="Lost-Opportunity" font-family="HelveticaNeue, Helvetica Neue" font-size="12" font-weight="normal" fill="#BA3030">
                    <tspan x="358" y="379">Lost Opportunity</tspan>
                </text>
                <text id="Sale-Copy-2" font-family="HelveticaNeue, Helvetica Neue" font-size="12" font-weight="normal" fill="#8CA0B3">
                    <tspan x="358" y="401">Sale</tspan>
                </text>
                <text id="--20" font-family="AvenirNext-Regular, Avenir Next" font-size="12" font-weight="normal" fill="#BA3030">
                    <tspan x="442" y="403">- 20</tspan>
                </text>
                <path d="M302.5,100.983029 L302.5,333.35891" id="Line-9" stroke="#B8B8B8" stroke-linecap="square" stroke-dasharray="5"></path>
                <path d="M373.5,100.983029 L373.5,333.35891" id="Line-9" stroke="#B8B8B8" stroke-linecap="square" stroke-dasharray="5"></path>
                <g id="Rectangle-18-Copy">
                    <use fill="black" fill-opacity="1" filter="url(#filter-8)" xlink:href="#path-7"></use>
                    <use fill="#FFFFFF" fill-rule="evenodd" xlink:href="#path-7"></use>
                </g>
                <text id="Prediction-Copy" font-family="HelveticaNeue, Helvetica Neue" font-size="12" font-weight="normal" fill="#7DBBFF">
                    <tspan x="392" y="165">Prediction</tspan>
                </text>
                <text id="Sale-Copy" font-family="HelveticaNeue, Helvetica Neue" font-size="12" font-weight="normal" fill="#8CA0B3">
                    <tspan x="392" y="187">Sale</tspan>
                </text>
                <text id="670" font-family="AvenirNext-Regular, Avenir Next" font-size="12" font-weight="normal" fill="#7DBBFF">
                    <tspan x="476" y="189">670</tspan>
                </text>
                <g id="Rectangle-18-Copy-3">
                    <use fill="black" fill-opacity="1" filter="url(#filter-10)" xlink:href="#path-9"></use>
                    <use fill="#FFFFFF" fill-rule="evenodd" xlink:href="#path-9"></use>
                </g>
                <text id="Response-Time" font-family="HelveticaNeue, Helvetica Neue" font-size="12" font-weight="normal" fill="#2E527A">
                    <tspan x="362" y="241">Response Time</tspan>
                </text>
                <g id="Rectangle-18">
                    <use fill="black" fill-opacity="1" filter="url(#filter-12)" xlink:href="#path-11"></use>
                    <use fill="#FFFFFF" fill-rule="evenodd" xlink:href="#path-11"></use>
                </g>
                <text id="Actuals" font-family="HelveticaNeue, Helvetica Neue" font-size="12" font-weight="normal" fill="#5CBA30">
                    <tspan x="248" y="283">Actuals</tspan>
                </text>
                <text id="Sale" font-family="HelveticaNeue, Helvetica Neue" font-size="12" font-weight="normal" fill="#8CA0B3">
                    <tspan x="248" y="305">Sale</tspan>
                </text>
                <text id="429" font-family="AvenirNext-Regular, Avenir Next" font-size="12" font-weight="normal" fill="#5CBA30">
                    <tspan x="332" y="307">429</tspan>
                </text>
            </g>
        </g>
    </g>
</svg>