<?xml version="1.0" encoding="UTF-8"?>
<svg width="91px" height="89px" viewBox="0 0 91 89" version="1.1" xmlns="http://www.w3.org/2000/svg" xmlns:xlink="http://www.w3.org/1999/xlink">
    <!-- Generator: sketchtool 41.2 (35397) - http://www.bohemiancoding.com/sketch -->
    <title>57CF07F5-3C9E-447F-B709-40BEC4ABF3AD</title>
    <desc>Created with sketchtool.</desc>
    <defs>
        <polygon id="path-1" points="0 99.9981132 99.9981132 99.9981132 99.9981132 0 0 0"></polygon>
    </defs>
    <g id="Page-1" stroke="none" stroke-width="1" fill="none" fill-rule="evenodd">
        <g id="NEXT-ORBIT-LANDING-PAGE-V002" transform="translate(-179.000000, -1967.000000)">
            <g id="Page-1" transform="translate(171.000000, 1962.000000)">
                <path d="M23.3746698,25.2522799 C22.7286006,25.2522799 22.2028145,25.7779088 22.2028145,26.423978 C22.2028145,27.0703616 22.7286006,27.5959906 23.3746698,27.5959906 C24.0208962,27.5959906 24.5466824,27.0703616 24.5466824,26.423978 C24.5466824,25.7779088 24.0208962,25.2522799 23.3746698,25.2522799 Z M23.3746698,28.0703616 C22.4671226,28.0703616 21.7286006,27.3318396 21.7286006,26.423978 C21.7286006,25.5164308 22.4671226,24.7779088 23.3746698,24.7779088 C24.2823742,24.7779088 25.0208962,25.5164308 25.0208962,26.423978 C25.0208962,27.3318396 24.2823742,28.0703616 23.3746698,28.0703616 Z" id="Fill-1" fill="#229DCA"></path>
                <path d="M50.8002673,46.352327 C62.2167767,45.1980818 96.4582862,48.5916352 88.2714937,59.7851887 C81.4508962,69.1106604 54.9656761,80.048239 47.402783,81.2166352 C39.4582862,82.4439937 16.8071855,77.4641195 11.3903616,68.0391195 C5.60215409,57.9677358 42.1611164,47.2257547 50.8002673,46.352327" id="Fill-3" fill="#E7F6F8"></path>
                <path d="M64.472217,88.2422484 C51.8388836,87.5499528 9.05665094,76.8931918 10.7200157,64.4155189 C12.1057075,54.0197642 35.5206447,45.2873742 43.6014623,45.2405189 C52.0901415,45.191305 82.3423428,55.6641038 95.4520912,68.4747956 C109.460582,82.1639465 74.0322799,88.7661478 64.472217,88.2422484" id="Fill-5" fill="#C3E5EB"></path>
                <path d="M23.3747484,9.48003145 C23.3747484,10.7698113 22.3291509,11.815566 21.0392138,11.815566 C19.7492767,11.815566 18.7036792,10.7698113 18.7036792,9.48003145 C18.7036792,8.19009434 19.7492767,7.14449686 21.0392138,7.14449686 C22.3291509,7.14449686 23.3747484,8.19009434 23.3747484,9.48003145" id="Fill-7" fill="#C3E5EB"></path>
                <mask id="mask-2" fill="white">
                    <use xlink:href="#path-1"></use>
                </mask>
                <g id="Clip-10"></g>
                <polygon id="Fill-9" fill="#173D7A" mask="url(#mask-2)" points="10.0586478 45.4212264 11.2869497 45.4212264 11.2869497 40.2544025 10.0586478 40.2544025"></polygon>
                <polygon id="Fill-11" fill="#173D7A" mask="url(#mask-2)" points="8.08930818 43.4518868 13.2561321 43.4518868 13.2561321 42.2235849 8.08930818 42.2235849"></polygon>
                <path d="M92.7944497,37.0637736 C92.7944497,37.7947484 93.3870597,38.3873585 94.1180346,38.3873585 C94.8491667,38.3873585 95.4416195,37.7947484 95.4416195,37.0637736 C95.4416195,36.3327987 94.8491667,35.7401887 94.1180346,35.7401887 C93.3870597,35.7401887 92.7944497,36.3327987 92.7944497,37.0637736" id="Fill-12" fill="#229DCA" mask="url(#mask-2)"></path>
                <path d="M59.2648742,7.03309748 C59.2648742,7.85322327 59.9298113,8.51800314 60.7499371,8.51800314 C61.5700629,8.51800314 62.235,7.85322327 62.235,7.03309748 C62.235,6.21281447 61.5700629,5.54803459 60.7499371,5.54803459 C59.9298113,5.54803459 59.2648742,6.21281447 59.2648742,7.03309748" id="Fill-13" fill="#E7F6F8" mask="url(#mask-2)"></path>
                <polygon id="Fill-14" fill="#173D7A" mask="url(#mask-2)" points="84.6133648 17.4463836 85.3735849 17.4463836 85.3735849 14.2487421 84.6133648 14.2487421"></polygon>
                <polygon id="Fill-15" fill="#173D7A" mask="url(#mask-2)" points="83.3946541 16.227673 86.5922956 16.227673 86.5922956 15.4674528 83.3946541 15.4674528"></polygon>
                <polygon id="Fill-16" fill="#229DCA" mask="url(#mask-2)" points="74.4922642 42.7250629 46.2647484 26.4241195 46.2647484 49.4252201 74.4922642 65.7223899"></polygon>
                <polygon id="Fill-17" fill="#229DCA" mask="url(#mask-2)" points="69.9233805 73.6326572 41.6955503 57.3391038 38.3774686 59.2540409 66.6032547 75.5504245"></polygon>
                <path d="M45.430173,25.7012579 C45.430173,25.552673 45.5100472,25.4141509 45.6386635,25.3399371 C45.7020283,25.3033019 45.7741981,25.2841195 45.8474686,25.2841195 C45.9205818,25.2841195 45.9925943,25.3033019 46.0558019,25.3397799 L75.1183805,42.1227987 C75.2469969,42.197327 75.3268711,42.3358491 75.3268711,42.4842767 L75.3268711,66.4454403 C75.3268711,66.5938679 75.2468396,66.7323899 75.1179088,66.8069182 C75.0548585,66.8433962 74.9826887,66.8625786 74.9095755,66.8625786 C74.836305,66.8625786 74.7642925,66.8433962 74.7012421,66.8069182 L45.6388208,50.0278302 C45.5102044,49.9534591 45.430173,49.8147799 45.430173,49.6663522 L45.430173,25.7012579 Z M78.6440094,72.9097484 L78.6440094,40.1572327 L42.1094182,19.2320755 L42.1128774,51.8183962 L78.6440094,72.9097484 Z" id="Fill-18" fill="#E7F6F8" mask="url(#mask-2)"></path>
                <polygon id="Fill-19" fill="#E7F6F8" mask="url(#mask-2)" points="82.3546698 37.6768868 45.8472799 16.5951258 42.5291981 18.5106918 79.0677201 39.438522"></polygon>
                <polygon id="Fill-20" fill="#E5EFF7" mask="url(#mask-2)" points="30.0741038 73.6332704 41.6962736 80.3447484 45.0135692 78.430283 33.3915566 71.7172327"></polygon>
                <path d="M28.8197799,64.0463836 C28.8197799,63.8977987 28.8996541,63.7592767 29.0282704,63.6850629 L41.4870755,56.4959119 C41.550283,56.459434 41.6226101,56.4400943 41.6957233,56.4400943 C41.7691509,56.4400943 41.8411635,56.459434 41.9045283,56.4959119 L70.966478,73.2710692 C71.0952516,73.3454403 71.1751258,73.4836478 71.1751258,73.6320755 C71.1751258,73.7809748 71.0950943,73.9194969 70.966478,73.9938679 L58.5111321,81.1886792 C58.4476101,81.2256289 58.3755975,81.2448113 58.3026415,81.2448113 C58.2295283,81.2448113 58.1573585,81.2254717 58.0938365,81.1886792 L29.0284277,64.4078616 C28.8998113,64.3334906 28.8197799,64.1949686 28.8197799,64.0463836 L28.8197799,64.0463836 Z M33.1829874,70.8740566 C33.2465094,70.8374214 33.318522,70.8180818 33.3917925,70.8180818 C33.4649057,70.8180818 33.5369182,70.8374214 33.6001258,70.8740566 L46.0567296,78.0693396 C46.1855031,78.1435535 46.2653774,78.2820755 46.2653774,78.4308176 C46.2653774,78.5794025 46.1853459,78.7177673 46.0567296,78.7919811 L42.5311006,80.8265723 L54.1510692,87.5367925 L78.2268553,73.6328616 L41.6957233,52.5413522 L17.6202516,66.4413522 L29.2399057,73.1514151 L33.1829874,70.8740566 Z" id="Fill-21" fill="#E7F6F8" mask="url(#mask-2)"></path>
                <path d="M79.4785692,73.6326572 C79.4785692,73.7810849 79.3985377,73.9196069 79.2699214,73.993978 L54.3597013,88.3799843 C54.2963365,88.4164623 54.2240094,88.4358019 54.1508962,88.4358019 C54.0776258,88.4358019 54.0056132,88.4164623 53.9422484,88.3799843 L17.2026258,67.1641038 L17.2026258,70.9988522 L54.1510535,92.3266824 L82.7957075,75.7920912 L82.7957075,38.3873742 L79.4785692,40.1650472 L79.4785692,73.6326572 Z" id="Fill-22" fill="#229DCA" mask="url(#mask-2)"></path>
                <path d="M79.4785692,73.6326572 C79.4785692,73.7810849 79.3985377,73.9196069 79.2699214,73.993978 L54.3597013,88.3799843 C54.2963365,88.4164623 54.2240094,88.4358019 54.1508962,88.4358019 C54.0776258,88.4358019 54.0056132,88.4164623 53.9422484,88.3799843 L54.1510535,92.3266824 L82.7957075,75.7920912 L82.7957075,38.3873742 L79.4785692,40.1650472 L79.4785692,73.6326572 Z" id="Fill-23" fill="#E5EFF7" mask="url(#mask-2)"></path>
                <polygon id="Fill-24" fill="#229DCA" mask="url(#mask-2)" points="61.6183805 78.4299528 33.3899214 62.1319969 30.0715252 64.0464623 58.3026572 80.3458333"></polygon>
                <polygon id="Fill-25" fill="#229DCA" mask="url(#mask-2)" points="65.7686164 76.0324528 37.5425157 59.7355975 34.2247484 61.6502201 62.4530503 77.9481761"></polygon>
                <path d="M82.7956604,75.7921541 L54.1510063,92.3265881 L17.2027358,70.9989151 L17.2027358,67.1641667 L53.9422013,88.3800472 C54.0057233,88.4165252 54.0777358,88.4358648 54.1508491,88.4358648 C54.2241195,88.4358648 54.2962893,88.4165252 54.3596541,88.3800472 L79.2698742,73.9938836 C79.3984906,73.9196698 79.478522,73.7811478 79.478522,73.6327201 L79.478522,40.1651101 L82.7956604,38.3872799 L82.7956604,75.7921541 Z M41.6962893,80.3446698 L30.0741195,73.6333491 L33.3915723,71.7173113 L45.0135849,78.4302044 L41.6962893,80.3446698 Z M41.6956604,52.5413679 L78.2267925,73.6328774 L54.1510063,87.5368082 L42.5310377,80.8265881 L46.0568239,78.7919969 C46.1854403,78.7176258 46.2653145,78.5794182 46.2653145,78.4308333 C46.2653145,78.2820912 46.1855975,78.1435692 46.0568239,78.0691981 L33.6002201,70.8740723 C33.5370126,70.8374371 33.4648428,70.8180975 33.3917296,70.8180975 C33.3184591,70.8180975 33.2464465,70.8374371 33.1830818,70.8740723 L29.2398428,73.1514308 L17.6203459,66.4413679 L41.6956604,52.5413679 Z M78.6439308,40.1572484 L78.6439308,72.9097642 L42.112956,51.8184119 L42.1094969,19.2320912 L78.6439308,40.1572484 Z M45.8472327,16.5951415 L82.3546226,37.6769025 L79.0678302,39.4385377 L42.5293082,18.5105503 L45.8472327,16.5951415 Z M83.4382704,37.338695 C83.3486478,37.2868082 46.0560377,15.7517453 46.0560377,15.7517453 C45.992673,15.7151101 45.9206604,15.6957704 45.8473899,15.6957704 C45.7742767,15.6957704 45.7022642,15.7151101 45.6388994,15.7517453 L41.4962893,18.1435692 L41.4643711,18.1635377 L41.4594969,18.1660535 C41.3448742,18.2429403 41.2749057,18.3731289 41.2749057,18.5124371 L41.2783648,51.8185692 L16.5766352,66.0798899 C16.4480189,66.1544182 16.3681447,66.292783 16.3681447,66.4413679 L16.3681447,71.2396384 C16.3681447,71.3882233 16.4481761,71.5269025 16.5767925,71.6012736 L53.9417296,93.1696698 C54.0054088,93.206305 54.0777358,93.2258019 54.1508491,93.2258019 C54.2241195,93.2258019 54.2964465,93.206305 54.3594969,93.169827 L83.4214465,76.3946698 C83.5502201,76.3202987 83.6300943,76.1817767 83.6300943,76.0330346 L83.6300943,37.6901101 C83.6300943,37.5443553 83.5522642,37.4072484 83.4382704,37.338695 L83.4382704,37.338695 Z" id="Fill-26" fill="#173D7A" mask="url(#mask-2)"></path>
                <path d="M46.2647799,26.4241509 L74.4922956,42.7250943 L74.4922956,65.7224214 L46.2647799,49.4252516 L46.2647799,26.4241509 Z M45.6388365,50.0277673 L74.7012579,66.8068553 C74.7643082,66.8433333 74.8363208,66.8625157 74.9095912,66.8625157 C74.9827044,66.8625157 75.054717,66.8433333 75.1179245,66.8068553 C75.2468553,66.732327 75.3268868,66.5939623 75.3268868,66.4453774 L75.3268868,42.4843711 C75.3268868,42.3357862 75.2470126,42.1972642 75.1183962,42.1228931 L46.0558176,25.3398742 C45.9926101,25.303239 45.9205975,25.2840566 45.8474843,25.2840566 C45.7742138,25.2840566 45.702044,25.303239 45.6386792,25.3398742 C45.5100629,25.4140881 45.4301887,25.5526101 45.4301887,25.701195 L45.4301887,49.6662893 C45.4301887,49.8148742 45.5102201,49.9533962 45.6388365,50.0277673 L45.6388365,50.0277673 Z" id="Fill-27" fill="#173D7A" mask="url(#mask-2)"></path>
                <path d="M33.3898899,62.1319497 L61.6183491,78.4299057 L58.3026258,80.3457862 L30.0714937,64.0465723 L33.3898899,62.1319497 Z M37.5425629,59.735566 L65.7686635,76.0324214 L62.4529403,77.9481447 L34.2247956,61.6503459 L37.5425629,59.735566 Z M41.6955503,57.3391824 L69.9233805,73.6327358 L66.6032547,75.5505031 L38.3774686,59.2539623 L41.6955503,57.3391824 Z M58.3026258,81.2448428 C58.3755818,81.2448428 58.4475943,81.2256604 58.5111164,81.1887107 L70.9664623,73.9937421 C71.0950786,73.9195283 71.1751101,73.7810063 71.1751101,73.6321069 C71.1751101,73.483522 71.0952358,73.3453145 70.9664623,73.2711006 L41.9045126,56.4959434 C41.8411478,56.4594654 41.7691352,56.4401258 41.6957075,56.4401258 C41.6225943,56.4401258 41.5502673,56.4594654 41.487217,56.4957862 L29.0282547,63.6850943 C28.8996384,63.7593082 28.8197642,63.897673 28.8197642,64.0464151 C28.8197642,64.195 28.8997956,64.333522 29.0284119,64.4078931 L58.0938208,81.1887107 C58.1573428,81.2255031 58.2295126,81.2448428 58.3026258,81.2448428 L58.3026258,81.2448428 Z" id="Fill-28" fill="#173D7A" mask="url(#mask-2)"></path>
                <path d="M58.7902673,52.6978302 C58.7103931,52.6839937 58.6344497,52.6181132 58.581934,52.5171698 L54.0336635,43.7461006 L49.5352358,46.9215723 C49.4924686,46.9516038 49.4462421,46.9626101 49.3979717,46.9542767 C49.2979717,46.9369811 49.2086635,46.8432704 49.158978,46.7034906 C49.0828774,46.490283 49.1280031,46.2412264 49.2596069,46.1483019 L53.9550472,42.8336792 C53.9976572,42.8034906 54.0438836,42.7926415 54.0926258,42.8011321 C54.1728145,42.8149686 54.2487579,42.8806918 54.3011164,42.9816352 L58.7456132,51.5519182 L63.250173,40.4704717 C63.2957704,40.3583648 63.3775314,40.2943711 63.4685692,40.299717 C63.475173,40.3001887 63.4817767,40.3009748 63.4882233,40.3020755 C63.5718711,40.3165409 63.6528459,40.3898113 63.7047327,40.4979874 L68.2408962,49.9630818 L72.7250157,46.0937421 C72.7830346,46.0437421 72.8410535,46.0409119 72.879261,46.0475157 C72.9710849,46.0635535 73.0566195,46.1468868 73.1080346,46.2706289 C73.1934119,46.4761321 73.1607075,46.7317925 73.0350786,46.840283 L68.3394811,50.892327 C68.2814623,50.942327 68.2234434,50.945 68.1849214,50.9383962 C68.100173,50.9236164 68.0212421,50.8523899 67.9687264,50.7426415 L63.5248585,41.4704717 L59.0291038,52.5297484 C58.9846069,52.6390252 58.9050472,52.7030189 58.8165252,52.7005031 C58.8074057,52.7003459 58.7987579,52.6994025 58.7902673,52.6978302" id="Fill-29" fill="#E7F6F8" mask="url(#mask-2)"></path>
            </g>
        </g>
    </g>
</svg>