<?xml version="1.0" encoding="UTF-8"?>
<svg width="91px" height="83px" viewBox="0 0 91 83" version="1.1" xmlns="http://www.w3.org/2000/svg" xmlns:xlink="http://www.w3.org/1999/xlink">
    <!-- Generator: sketchtool 41.2 (35397) - http://www.bohemiancoding.com/sketch -->
    <title>06487275-B196-4C9D-BEF2-BF8F2494433E</title>
    <desc>Created with sketchtool.</desc>
    <defs>
        <polygon id="path-1" points="0 99.9981132 99.9981132 99.9981132 99.9981132 0 0 0"></polygon>
    </defs>
    <g id="Page-1" stroke="none" stroke-width="1" fill="none" fill-rule="evenodd">
        <g id="NEXT-ORBIT-LANDING-PAGE-V002" transform="translate(-1017.000000, -1967.000000)">
            <g id="Page-1" transform="translate(1010.000000, 1962.000000)">
                <path d="M91.4599843,44.9964937 C90.8139151,44.9964937 90.2882862,45.5222799 90.2882862,46.1683491 C90.2882862,46.8145755 90.8139151,47.3402044 91.4599843,47.3402044 C92.1062107,47.3402044 92.6319969,46.8145755 92.6319969,46.1683491 C92.6319969,45.5222799 92.1062107,44.9964937 91.4599843,44.9964937 Z M91.4599843,47.8145755 C90.5524371,47.8145755 89.8139151,47.0762107 89.8139151,46.1683491 C89.8139151,45.2608019 90.5524371,44.5221226 91.4599843,44.5221226 C92.3676887,44.5221226 93.1063679,45.2608019 93.1063679,46.1683491 C93.1063679,47.0762107 92.3676887,47.8145755 91.4599843,47.8145755 Z" id="Fill-1" fill="#229DCA"></path>
                <path d="M50.0916509,42.8932075 C61.5080031,41.7389623 95.7496698,45.1325157 87.5628774,56.3260692 C80.7424371,65.6515409 54.2570597,76.5891195 46.6941667,77.7575157 C38.7496698,78.9848742 16.0985692,74.005 10.6817453,64.58 C4.8933805,54.5086164 41.4525,43.7666352 50.0916509,42.8932075" id="Fill-3" fill="#E7F6F8"></path>
                <path d="M63.763522,84.7831289 C51.1301887,84.0908333 8.34795597,73.4340723 10.0113208,60.9563994 C11.3971698,50.5606447 34.8119497,41.8282547 42.8929245,41.7813994 C51.3814465,41.7321855 81.633805,52.2049843 94.7433962,65.0156761 C108.751887,78.704827 73.3235849,85.3070283 63.763522,84.7831289" id="Fill-5" fill="#C3E5EB"></path>
                <path d="M15.1995126,12.5365409 C15.1995126,13.826478 14.1539151,14.8720755 12.863978,14.8720755 C11.5738836,14.8720755 10.5282862,13.826478 10.5282862,12.5365409 C10.5282862,11.246761 11.5738836,10.2010063 12.863978,10.2010063 C14.1539151,10.2010063 15.1995126,11.246761 15.1995126,12.5365409" id="Fill-7" fill="#C3E5EB"></path>
                <path d="M10.5282862,39.3609906 C10.5282862,40.0918082 9.9356761,40.6845755 9.20470126,40.6845755 C8.47372642,40.6845755 7.88111635,40.0918082 7.88111635,39.3609906 C7.88111635,38.6300157 8.47372642,38.0372484 9.20470126,38.0372484 C9.9356761,38.0372484 10.5282862,38.6300157 10.5282862,39.3609906" id="Fill-9" fill="#229DCA"></path>
                <path d="M76.0720597,11.6860377 C76.0720597,12.5061635 75.4071226,13.1709434 74.5871541,13.1709434 C73.7670283,13.1709434 73.1020912,12.5061635 73.1020912,11.6860377 C73.1020912,10.8659119 73.7670283,10.2011321 74.5871541,10.2011321 C75.4071226,10.2011321 76.0720597,10.8659119 76.0720597,11.6860377" id="Fill-11" fill="#E7F6F8"></path>
                <mask id="mask-2" fill="white">
                    <use xlink:href="#path-1"></use>
                </mask>
                <g id="Clip-14"></g>
                <polygon id="Fill-13" fill="#173D7A" mask="url(#mask-2)" points="41.2086478 10.2011006 42.4369497 10.2011006 42.4369497 5.03427673 41.2086478 5.03427673"></polygon>
                <polygon id="Fill-15" fill="#173D7A" mask="url(#mask-2)" points="39.2394654 8.23176101 44.4061321 8.23176101 44.4061321 7.00345912 39.2394654 7.00345912"></polygon>
                <polygon id="Fill-16" fill="#173D7A" mask="url(#mask-2)" points="87.8350629 24.8059748 88.595283 24.8059748 88.595283 21.6083333 87.8350629 21.6083333"></polygon>
                <polygon id="Fill-17" fill="#173D7A" mask="url(#mask-2)" points="86.6163522 23.5872642 89.8139937 23.5872642 89.8139937 22.827044 86.6163522 22.827044"></polygon>
                <path d="M46.9440881,19.9263208 C46.9440881,19.0231761 47.412327,18.215 48.1969182,17.7646855 C48.5789937,17.5453459 49.010283,17.4294654 49.4442453,17.4294654 C49.8816667,17.4294654 50.3154717,17.5470755 50.6997484,17.7698742 C52.4829245,18.8049371 53.9686164,20.2940881 54.9966038,22.0761635 C56.024434,23.8580818 56.5678302,25.8874843 56.5678302,27.9450314 L56.5678302,32.6267925 L46.9440881,27.0837107 L46.9440881,19.9263208 Z M64.1615409,36.9679874 L63.5914151,36.6362264 L57.392044,33.0571384 L57.392044,27.8992767 C57.392044,25.694717 56.8112264,23.5200314 55.712327,21.6104403 C54.6135849,19.7011635 53.0253774,18.1057233 51.1194025,16.9964465 C50.6101258,16.7006918 50.0382704,16.5442453 49.4654717,16.5442453 C48.8973899,16.5442453 48.3294654,16.6983333 47.8231761,16.9898428 C46.7901572,17.5841824 46.1736478,18.6508491 46.1736478,19.8429874 L46.1736478,26.5804088 L39.8289937,22.917044 C39.7694025,22.8827673 39.7016352,22.8645283 39.6326101,22.8645283 C39.5637421,22.8645283 39.4958176,22.8827673 39.4362264,22.917044 L29.698805,28.5359119 L29.7000629,28.5377987 L29.0043082,28.9388994 C28.8918868,29.0038365 28.8187736,29.1183019 28.808239,29.2453459 L25.3346541,71.3955031 C25.3222327,71.5462893 25.398805,71.6925157 25.5299371,71.7681447 L53.3425157,87.8258491 C53.4022642,87.8604403 53.4701887,87.878522 53.5390566,87.878522 C53.6080818,87.878522 53.6760063,87.8604403 53.7355975,87.8260063 L67.642044,79.8003774 C67.7730189,79.7247484 67.8495912,79.5783648 67.8371698,79.4275786 L64.3579245,37.2741195 C64.3475472,37.1473899 64.2741195,37.0329245 64.1615409,36.9679874 L64.1615409,36.9679874 Z" id="Fill-18" fill="#173D7A" mask="url(#mask-2)"></path>
                <path d="M35.6618711,30.2439623 C35.6618711,29.1538679 36.226022,28.1785535 37.1708333,27.635 C37.5018082,27.4447484 37.8590409,27.319434 38.2324686,27.2628302 L38.8434748,27.1702201 L38.8434748,24.3095283 L30.3816824,29.1920755 L35.6618711,32.3980503 L35.6618711,30.2439623 Z" id="Fill-19" fill="#E5EFF7" mask="url(#mask-2)"></path>
                <polygon id="Fill-20" fill="#E5EFF7" mask="url(#mask-2)" points="53.9839308 43.7057704 53.9839308 86.6111164 66.9814151 79.1103302 63.6004403 38.1510535"></polygon>
                <path d="M40.4789623,24.3094969 L40.4789623,27.3200314 L40.906478,27.5260063 C40.9935849,27.5681447 41.0677987,27.6069811 41.1330503,27.6448742 C44.8506604,29.8065094 47.1599371,33.8205031 47.1599371,38.1208176 L47.1599371,38.8661006 L53.4630818,42.5052516 L62.726761,37.1541509 L40.4789623,24.3094969 Z" id="Fill-21" fill="#229DCA" mask="url(#mask-2)"></path>
                <path d="M37.7438208,28.3399686 C36.9831289,28.753805 36.5288836,29.4959434 36.5288836,30.3253459 L36.5287264,30.3253459 L36.5287264,32.8932704 L38.9523113,34.2157547 L38.839261,28.029434 C38.839261,28.029434 38.6174057,28.0091509 38.2144182,28.129434 C38.1197642,28.1577358 37.8519969,28.2811635 37.7438208,28.3399686" id="Fill-22" fill="#E5EFF7" mask="url(#mask-2)"></path>
                <path d="M46.8150943,47.7317925 C46.8150943,47.9415409 46.5716981,48.0786478 46.3619497,48.0786478 C46.152044,48.0786478 45.9440252,47.8704717 45.9440252,47.6607233 L45.9440252,40.1121384 L36.7290881,34.7979874 L36.7290881,41.9089937 C36.7290881,42.1187421 36.4756289,42.2511321 36.2658805,42.2511321 C36.0559748,42.2511321 35.797327,42.074717 35.797327,41.8649686 L35.797327,34.3148113 L29.8663522,30.8456289 L26.5742138,70.7975157 L52.7102201,85.8872956 L52.7103774,44.0343082 L46.8150943,40.6222013 L46.8150943,47.7317925 Z" id="Fill-23" fill="#229DCA" mask="url(#mask-2)"></path>
                <path d="M46.1361164,37.1654245 C45.8035692,33.7814623 44.0302987,30.7004874 41.2714937,28.7127516 L40.4790409,28.0281604 L40.4790409,35.1831918 L46.2858019,38.6883805 L46.1361164,37.1654245 Z" id="Fill-24" fill="#229DCA" mask="url(#mask-2)"></path>
            </g>
        </g>
    </g>
</svg>