<?xml version="1.0" encoding="UTF-8"?>
<svg width="88px" height="83px" viewBox="0 0 88 83" version="1.1" xmlns="http://www.w3.org/2000/svg" xmlns:xlink="http://www.w3.org/1999/xlink">
    <!-- Generator: sketchtool 41.2 (35397) - http://www.bohemiancoding.com/sketch -->
    <title>2EA3DA30-E8CB-4417-9D3D-F228120585A5</title>
    <desc>Created with sketchtool.</desc>
    <defs>
        <polygon id="path-1" points="0 99.9981132 99.9981132 99.9981132 99.9981132 0 0 0"></polygon>
    </defs>
    <g id="Page-1" stroke="none" stroke-width="1" fill="none" fill-rule="evenodd">
        <g id="NEXT-ORBIT-LANDING-PAGE-V002" transform="translate(-179.000000, -2215.000000)">
            <g id="Page-1" transform="translate(171.000000, 2207.000000)">
                <path d="M65.1927044,30.8423742 C64.5466352,30.8423742 64.0208491,31.3681604 64.0208491,32.0142296 C64.0208491,32.660456 64.5466352,33.1860849 65.1927044,33.1860849 C65.8389308,33.1860849 66.3645597,32.660456 66.3645597,32.0142296 C66.3645597,31.3681604 65.8389308,30.8423742 65.1927044,30.8423742 Z M65.1927044,33.660456 C64.2851572,33.660456 63.546478,32.9220912 63.546478,32.0142296 C63.546478,31.1066824 64.2851572,30.3680031 65.1927044,30.3680031 C66.1004088,30.3680031 66.8389308,31.1066824 66.8389308,32.0142296 C66.8389308,32.9220912 66.1004088,33.660456 65.1927044,33.660456 Z" id="Fill-1" fill="#229DCA"></path>
                <path d="M48.0055189,46.3522013 C59.4218711,45.1981132 93.6635377,48.5916667 85.4767453,59.7850629 C78.6561478,69.1106918 52.1709277,80.0482704 44.6080346,81.2166667 C36.6635377,82.4440252 14.0124371,77.4641509 8.59561321,68.0391509 C2.80724843,57.9677673 39.3663679,47.2256289 48.0055189,46.3522013" id="Fill-3" fill="#E7F6F8"></path>
                <path d="M62.8316038,88.0462107 C50.6345912,87.4778145 9.39449686,77.554544 11.0977987,65.5344182 C12.5168239,55.5201101 35.2006289,46.9356761 43.0061321,46.8281289 C51.2056604,46.7149214 80.3446541,56.5581604 92.9078616,68.784261 C106.33239,81.8484119 72.061478,88.4760849 62.8316038,88.0462107" id="Fill-5" fill="#C3E5EB"></path>
                <path d="M77.9368553,10.7452987 C77.9368553,12.0352358 76.8912579,13.0808333 75.6013208,13.0808333 C74.3113836,13.0808333 73.2657862,12.0352358 73.2657862,10.7452987 C73.2657862,9.45551887 74.3113836,8.40976415 75.6013208,8.40976415 C76.8912579,8.40976415 77.9368553,9.45551887 77.9368553,10.7452987" id="Fill-7" fill="#C3E5EB"></path>
                <mask id="mask-2" fill="white">
                    <use xlink:href="#path-1"></use>
                </mask>
                <g id="Clip-10"></g>
                <polygon id="Fill-9" fill="#173D7A" mask="url(#mask-2)" points="89.3113208 32.9515723 90.5396226 32.9515723 90.5396226 27.7847484 89.3113208 27.7847484"></polygon>
                <polygon id="Fill-11" fill="#173D7A" mask="url(#mask-2)" points="87.3419811 30.9822327 92.508805 30.9822327 92.508805 29.7539308 87.3419811 29.7539308"></polygon>
                <path d="M44.8891195,16.5731918 C45.6200943,16.5731918 46.2127044,15.9804245 46.2127044,15.2494497 C46.2127044,14.5184748 45.6200943,13.9258648 44.8891195,13.9258648 C44.1581447,13.9258648 43.5655346,14.5184748 43.5655346,15.2494497 C43.5655346,15.9804245 44.1581447,16.5731918 44.8891195,16.5731918" id="Fill-12" fill="#229DCA" mask="url(#mask-2)"></path>
                <path d="M14.8584434,50.1027673 C15.6785692,50.1027673 16.3433491,49.4378302 16.3433491,48.6177044 C16.3433491,47.7975786 15.6785692,47.1326415 14.8584434,47.1326415 C14.0381604,47.1326415 13.3733805,47.7975786 13.3733805,48.6177044 C13.3733805,49.4378302 14.0381604,50.1027673 14.8584434,50.1027673" id="Fill-13" fill="#E7F6F8" mask="url(#mask-2)"></path>
                <polygon id="Fill-14" fill="#173D7A" mask="url(#mask-2)" points="22.0740566 24.7542453 25.2716981 24.7542453 25.2716981 23.9940252 22.0740566 23.9940252"></polygon>
                <polygon id="Fill-15" fill="#173D7A" mask="url(#mask-2)" points="23.2927673 25.972956 24.0529874 25.972956 24.0529874 22.7753145 23.2927673 22.7753145"></polygon>
                <polygon id="Fill-16" fill="#E7F6F8" mask="url(#mask-2)" points="50.4140723 60.1486006 62.5208333 67.2081918 62.5208333 53.3963994 50.4140723 46.5280031"></polygon>
                <path d="M50.6778616,59.9970597 L62.2571069,66.7489465 L62.2571069,53.5498899 L50.6778616,46.981022 L50.6778616,59.9970597 Z M62.7847799,67.6675 L50.1501887,60.3000472 L50.1501887,46.0750472 L62.7847799,53.2425 L62.7847799,67.6675 Z" id="Fill-17" fill="#173D7A" mask="url(#mask-2)"></path>
                <polygon id="Fill-18" fill="#E7F6F8" mask="url(#mask-2)" points="50.4140723 46.0963994 60.4087264 39.6997013 73.0019654 46.9596069 62.5208333 52.9646384"></polygon>
                <path d="M50.9247642,46.0827358 L62.5202044,52.6608805 L72.4724057,46.9589937 L60.4159591,40.008522 L50.9247642,46.0827358 Z M62.5216195,53.2682704 L49.9033805,46.1099371 L60.4014937,39.3910692 L73.5315252,46.9604088 L62.5216195,53.2682704 Z" id="Fill-19" fill="#173D7A" mask="url(#mask-2)"></path>
                <polygon id="Fill-20" fill="#229DCA" mask="url(#mask-2)" points="50.4140723 49.6700629 62.5208333 56.7298113 62.5208333 52.9645597 50.4140723 46.0963208"></polygon>
                <path d="M50.6778616,49.5185063 L62.2571069,56.2703931 L62.2571069,53.1183491 L50.6778616,46.5493239 L50.6778616,49.5185063 Z M62.7847799,57.1891038 L50.1501887,49.8214937 L50.1501887,45.6433491 L62.7847799,52.8108019 L62.7847799,57.1891038 Z" id="Fill-21" fill="#173D7A" mask="url(#mask-2)"></path>
                <polygon id="Fill-22" fill="#E5EFF7" mask="url(#mask-2)" points="62.5208333 66.7766352 62.5208333 52.9645283 73.0019654 46.9596541 73.0019654 60.8395283"></polygon>
                <path d="M62.7847799,53.1175157 L62.7847799,66.3239623 L72.738239,60.6859119 L72.738239,47.4148428 L62.7847799,53.1175157 Z M62.2571069,67.2291509 L62.2571069,52.8116981 L73.2657547,46.5044654 L73.2657547,60.9933019 L62.2571069,67.2291509 Z" id="Fill-23" fill="#173D7A" mask="url(#mask-2)"></path>
                <polygon id="Fill-24" fill="#229DCA" mask="url(#mask-2)" points="62.5208333 59.1522327 62.5208333 52.9644969 73.0019654 46.9596226 73.0019654 60.8394969 67.7613994 63.8080503 67.7613994 56.7299057"></polygon>
                <path d="M68.0252044,56.3171384 L68.0252044,63.3555031 L72.7382547,60.6858491 L72.7382547,47.4149371 L62.7847956,53.1174528 L62.7847956,58.7396226 L68.0252044,56.3171384 Z M67.4976887,64.2605346 L67.4976887,57.1422956 L62.2569654,59.5647799 L62.2569654,52.8116352 L73.2657704,46.5045597 L73.2657704,60.993239 L67.4976887,64.2605346 Z" id="Fill-25" fill="#173D7A" mask="url(#mask-2)"></path>
                <polygon id="Fill-26" fill="#229DCA" mask="url(#mask-2)" points="44.9663522 63.5645755 49.7199686 60.1387893 55.4245283 68.8312421 62.7278302 66.9648899 67.9685535 76.3013679 65.7468553 90.1549843 47.1394654 80.2402044"></polygon>
                <path d="M47.3836478,80.0712579 L65.5449686,89.7484591 L67.6933962,76.3501887 L62.5970126,67.2706289 L55.3075472,69.1336792 L49.6506289,60.5138679 L45.2484277,63.6866667 L47.3836478,80.0712579 Z M65.9488994,90.5616667 L46.8955975,80.4088365 L44.6842767,63.4426415 L49.7894654,59.7635535 L55.5416667,68.5289623 L62.858805,66.6591509 L68.2433962,76.2523899 L68.2289308,76.342956 L65.9488994,90.5616667 Z" id="Fill-27" fill="#173D7A" mask="url(#mask-2)"></path>
                <polygon id="Fill-28" fill="#E7F6F8" mask="url(#mask-2)" points="73.0019811 60.8395755 78.9861006 69.8897327 67.7614151 76.5449214 62.5208491 67.2082862"></polygon>
                <path d="M62.8758333,67.3013208 L67.8593239,76.1802516 L78.6130975,69.8039937 L72.9220597,61.1969182 L62.8758333,67.3013208 Z M67.6634119,76.9094969 L62.1659277,67.1151572 L73.0819654,60.4822956 L79.3588522,69.9752201 L67.6634119,76.9094969 Z" id="Fill-29" fill="#173D7A" mask="url(#mask-2)"></path>
                <polygon id="Fill-30" fill="#E5EFF7" mask="url(#mask-2)" points="76.6769969 84.1507075 65.5397327 90.3983491 67.7614308 76.5448899 78.9861164 69.8897013"></polygon>
                <path d="M68.0024843,76.7087107 L65.886761,89.9013208 L76.4369182,83.9830818 L78.6353459,70.4041509 L68.0024843,76.7087107 Z M65.1927358,90.8956604 L67.520566,76.3808805 L67.6268553,76.3179874 L79.3364465,69.3749057 L76.9171069,84.3186164 L65.1927358,90.8956604 Z" id="Fill-31" fill="#173D7A" mask="url(#mask-2)"></path>
                <path d="M56.3158176,73.7922327 C55.951195,74.4238365 55.044434,74.5827987 54.2906604,74.1477358 C53.5368868,73.7125157 53.221478,72.8477358 53.5861006,72.2162893 C53.9507233,71.5846855 54.8574843,71.4254088 55.6112579,71.8606289 C56.3648742,72.2958491 56.6804403,73.1606289 56.3158176,73.7922327" id="Fill-32" fill="#C3E5EB" mask="url(#mask-2)"></path>
                <path d="M54.7235377,71.8788679 C54.6475943,71.8788679 54.5722799,71.8851572 54.4983805,71.8982075 C54.1941352,71.9516667 53.9513679,72.1114151 53.8145755,72.3480503 C53.5232233,72.8526101 53.796022,73.5574843 54.4225943,73.919434 C55.0491667,74.2810692 55.796022,74.164717 56.0875314,73.6603145 C56.3785692,73.1557547 56.1057704,72.4508805 55.4791981,72.0890881 C55.2397327,71.9508805 54.9779403,71.8788679 54.7235377,71.8788679 M55.1776258,74.6554403 C54.8398899,74.6554403 54.4859591,74.5651887 54.1587579,74.376195 C53.2801415,73.8689623 52.9208648,72.8406604 53.3575,72.0843711 C53.5738522,71.71 53.9464937,71.4593711 54.4068711,71.3783962 C54.8508962,71.3008805 55.3247956,71.3908176 55.7430346,71.6321698 C56.6213365,72.1394025 56.9809277,73.1673899 56.5442925,73.9241509 C56.2703931,74.3988365 55.7466509,74.6554403 55.1776258,74.6554403" id="Fill-33" fill="#173D7A" mask="url(#mask-2)"></path>
                <path d="M56.3158176,80.2519811 C55.951195,80.8835849 55.044434,81.0427044 54.2906604,80.6074843 C53.5368868,80.1722642 53.221478,79.3074843 53.5861006,78.6760377 C53.9507233,78.044434 54.8574843,77.8851572 55.6112579,78.3203774 C56.3648742,78.7555975 56.6804403,79.6203774 56.3158176,80.2519811" id="Fill-34" fill="#C3E5EB" mask="url(#mask-2)"></path>
                <path d="M54.7235377,78.3386164 C54.6475943,78.3386164 54.5722799,78.3449057 54.4983805,78.357956 C54.1941352,78.4114151 53.9513679,78.5711635 53.8145755,78.8077987 C53.5232233,79.3123585 53.796022,80.0172327 54.4225943,80.3791824 C55.0491667,80.7408176 55.796022,80.6246226 56.0875314,80.1200629 C56.3785692,79.6155031 56.1057704,78.9106289 55.4791981,78.5488365 C55.2397327,78.4106289 54.9779403,78.3386164 54.7235377,78.3386164 M55.1776258,81.1151887 C54.8398899,81.1151887 54.4859591,81.0249371 54.1587579,80.8359434 C53.2801415,80.3287107 52.9208648,79.300566 53.3575,78.5441195 C53.5738522,78.1697484 53.9464937,77.9191195 54.4068711,77.8381447 C54.8508962,77.7601572 55.3247956,77.850566 55.7430346,78.0920755 C56.6213365,78.5991509 56.9809277,79.6271384 56.5442925,80.3838994 C56.2703931,80.8585849 55.7466509,81.1151887 55.1776258,81.1151887" id="Fill-35" fill="#173D7A" mask="url(#mask-2)"></path>
                <path d="M20.9036006,58.3166352 L20.9333176,43.8284277 C20.9333176,43.8284277 20.4897642,42.232673 23.0199528,40.6043711 C25.3069025,39.132673 39.6512421,30.5581447 39.6512421,30.5581447 C39.6512421,30.5581447 41.9793868,29.3674214 44.111305,32.3870755 C45.4097327,34.2263836 42.0480975,46.2444654 42.0480975,46.2444654 C42.0480975,46.2444654 41.975456,46.8254403 41.0312736,47.4064151 C40.0870912,47.9875472 36.4378774,51.4131761 36.4378774,51.4131761 L36.5712107,60.138805 L35.2845755,60.2317296 L29.6575314,56.2458805 L25.0336321,60.005 C25.0336321,60.005 21.4786006,61.143522 20.9036006,58.3166352" id="Fill-36" fill="#229DCA" mask="url(#mask-2)"></path>
                <path d="M21.1675472,58.2897642 C21.2994654,58.9105189 21.6029245,59.3641352 22.0692767,59.6381918 C23.0953774,60.2407075 24.6258805,59.8473113 24.9077987,59.7671226 L29.646478,55.9147642 L35.3601572,59.9616195 L36.3037107,59.8935377 L36.1722642,51.3006132 L36.257327,51.220739 C36.4070126,51.0800157 39.9368868,47.7701101 40.8930189,47.1819025 C41.696478,46.6874057 41.7864151,46.2108333 41.7872013,46.2058019 L41.7941195,46.1732547 C43.1315409,41.391022 44.7952201,33.8133491 43.8956918,32.5392925 C41.9184906,29.7383491 39.7925472,30.7820597 39.7713208,30.7929088 C39.6431761,30.8702673 25.4199057,39.3735692 23.162673,40.8263994 C20.8504088,42.3142925 21.1733648,43.7023428 21.1881447,43.7605189 L21.1971069,43.8289151 L21.1675472,58.2897642 Z M35.2093711,60.5015566 L35.1320126,60.4468396 L29.6684906,56.5770283 L25.1611006,60.2411792 L25.1139308,60.2564308 C25.0340566,60.2820597 23.137044,60.8759277 21.8040252,60.0943239 C21.1953774,59.7374057 20.8054403,59.1570597 20.6452201,58.3691667 L20.6400314,58.316022 L20.669434,43.8580031 C20.6109434,43.5767138 20.4063836,41.972783 22.8771384,40.3823742 C25.1416038,38.9252987 39.3724214,30.4174371 39.5158176,30.3319025 C39.5576415,30.3097327 40.1920755,29.9900786 41.1065409,30.0775 C41.9357862,30.1553302 43.1677044,30.593066 44.3268239,32.2348899 C45.6543396,34.1153931 42.6719497,44.9929088 42.3060692,46.3013994 C42.2804403,46.4427516 42.1186478,47.0471541 41.1695912,47.6311164 C40.3372013,48.1433805 37.2562264,51.0094182 36.7033962,51.5259277 L36.8389308,60.3837893 L35.2093711,60.5015566 Z" id="Fill-37" fill="#173D7A" mask="url(#mask-2)"></path>
                <path d="M23.2977201,58.4781604 L23.2977201,45.5481289 C23.2977201,45.5481289 22.8543239,43.952217 25.3843553,42.3240723 C27.671305,40.852217 42.0158019,32.2776887 42.0158019,32.2776887 C42.0158019,32.2776887 44.4125,31.1883805 44.4125,33.4399528 L44.4125,47.9640094 C44.4125,47.9640094 44.3398585,48.5449843 43.3956761,49.1261164 C42.4514937,49.7070912 36.4678459,53.3946698 36.4678459,53.3946698 L36.4678459,59.7841352 L32.0198899,56.2276887 L26.1823113,59.6574057 C26.1823113,59.6574057 23.2680031,61.0559906 23.2977201,58.4781604" id="Fill-38" fill="#E5EFF7" mask="url(#mask-2)"></path>
                <path d="M42.1378459,32.512044 C41.6295126,32.8159748 27.7541981,41.1125157 25.5271541,42.5458491 C23.2148899,44.0338994 23.5376887,45.4217925 23.5526258,45.4801258 L23.5614308,45.5480503 L23.5614308,58.4812264 C23.5549843,59.0460063 23.7012107,59.4274528 23.996022,59.6153459 C24.5771541,59.9856289 25.6719654,59.6070126 26.0582862,59.4241509 L32.0427201,55.9082704 L36.2040409,59.2353145 L36.2040409,53.2472642 L36.3295126,53.1700629 C36.3295126,53.1700629 42.3131604,49.4824843 43.2573428,48.9013522 C43.9886321,48.4515094 44.1287264,48.0161321 44.148695,47.9379874 L44.148695,33.439717 C44.148695,32.9310692 44.0156761,32.5873585 43.7534119,32.4186478 C43.2820283,32.114717 42.4403616,32.3779245 42.1378459,32.512044 L42.1378459,32.512044 Z M36.7317138,60.332956 L31.9969654,56.5471069 L26.2964937,59.8952201 C26.2299843,59.9269811 24.6641038,60.6666038 23.712217,60.0603145 C23.2537264,59.7678616 23.0254245,59.2351572 23.0339151,58.4766667 L23.0339151,45.5779245 C22.9754245,45.2972642 22.7699214,43.6927044 25.2417767,42.1019811 C27.5060849,40.6449057 41.7369025,32.137044 41.8802987,32.0513522 L41.9063994,32.0375157 C41.9598585,32.0134591 43.2227516,31.4491509 44.0391038,31.9749371 C44.4619025,32.2471069 44.6765252,32.7400314 44.6765252,33.439717 L44.6743239,47.9967925 C44.6652044,48.0691195 44.5565566,48.7217925 43.5339151,49.3507233 C42.6708648,49.8820126 37.5966509,53.0088994 36.7317138,53.5420755 L36.7317138,60.332956 Z" id="Fill-39" fill="#173D7A" mask="url(#mask-2)"></path>
                <path d="M35.1353145,41.8291509 C34.4889308,42.0984906 33.9538679,42.7340252 33.6305975,43.5211321 C33.1666038,43.0620126 32.5427044,42.9090252 31.8960063,43.1782075 C30.71,43.6723899 29.8978931,45.3977044 30.082327,47.0322956 C30.266761,48.6667296 34.4705346,50.9683019 34.4705346,50.9683019 C34.4705346,50.9683019 37.8010377,45.5286792 37.616761,43.8942453 C37.432327,42.2596541 36.321478,41.3351258 35.1353145,41.8291509" id="Fill-40" fill="#229DCA" mask="url(#mask-2)"></path>
                <path d="M32.5329874,43.3091981 C32.3583019,43.3091981 32.1785849,43.3464623 31.9976101,43.421934 C30.9141195,43.8731918 30.1726101,45.4794811 30.3446226,47.0027516 C30.4749686,48.1582547 33.1186792,49.8939465 34.3771698,50.6136006 C35.3642767,48.9714623 37.4910063,45.1334119 37.3546855,43.9238208 C37.2603459,43.0893868 36.9100314,42.4362421 36.3930503,42.1321541 C36.0410063,41.9250786 35.6411635,41.9043239 35.2369182,42.0727201 C34.6803145,42.3044811 34.1837736,42.8689465 33.8746541,43.621305 L33.7248113,43.985456 L33.4450943,43.7085692 C33.1776415,43.4439465 32.8645912,43.3091981 32.5329874,43.3091981 L32.5329874,43.3091981 Z M34.5642767,51.3203616 L34.3438365,51.1997642 C33.9012264,50.9574686 30.0141195,48.782783 29.8202516,47.0618711 C29.6238679,45.3214623 30.5095597,43.4700472 31.7944654,42.9346698 C32.4027987,42.6815252 33.0197799,42.7433176 33.5340881,43.0988208 C33.9010692,42.3774371 34.4353459,41.834827 35.0339308,41.585456 C35.5891195,41.3541667 36.1667925,41.3865566 36.6605031,41.6774371 C37.3218239,42.0664308 37.7660063,42.8637579 37.8788994,43.8647013 C37.9612893,44.5955189 37.4458805,46.0423742 36.3471384,48.1654874 C35.5424214,49.7198899 34.7040566,51.092217 34.695566,51.1060535 L34.5642767,51.3203616 Z" id="Fill-41" fill="#173D7A" mask="url(#mask-2)"></path>
            </g>
        </g>
    </g>
</svg>