<?xml version="1.0" encoding="UTF-8"?>
<svg width="91px" height="84px" viewBox="0 0 91 84" version="1.1" xmlns="http://www.w3.org/2000/svg" xmlns:xlink="http://www.w3.org/1999/xlink">
    <!-- Generator: sketchtool 41.2 (35397) - http://www.bohemiancoding.com/sketch -->
    <title>3A54EC29-9B92-49B3-822C-9666C48E28F5</title>
    <desc>Created with sketchtool.</desc>
    <defs>
        <polygon id="path-1" points="0 99.9981132 99.9981132 99.9981132 99.9981132 0 0 0"></polygon>
    </defs>
    <g id="Page-1" stroke="none" stroke-width="1" fill="none" fill-rule="evenodd">
        <g id="NEXT-ORBIT-LANDING-PAGE-V002" transform="translate(-458.000000, -2212.000000)">
            <g id="Page-1" transform="translate(450.000000, 2207.000000)">
                <path d="M23.3747013,25.2522327 C22.7286321,25.2522327 22.2028459,25.7780189 22.2028459,26.4240881 C22.2028459,27.0703145 22.7286321,27.5959434 23.3747013,27.5959434 C24.0209277,27.5959434 24.5465566,27.0703145 24.5465566,26.4240881 C24.5465566,25.7780189 24.0209277,25.2522327 23.3747013,25.2522327 Z M23.3747013,28.0703145 C22.4671541,28.0703145 21.7284748,27.3317925 21.7284748,26.4240881 C21.7284748,25.5163836 22.4671541,24.7778616 23.3747013,24.7778616 C24.2824057,24.7778616 25.0209277,25.5163836 25.0209277,26.4240881 C25.0209277,27.3317925 24.2824057,28.0703145 23.3747013,28.0703145 Z" id="Fill-1" fill="#229DCA"></path>
                <path d="M50.8002987,46.3522799 C62.2166509,45.1980346 96.4583176,48.5915881 88.2715252,59.7851415 C81.4510849,69.1107704 54.9657075,80.0481918 47.4028145,81.2165881 C39.4583176,82.4441038 16.807217,77.4640723 11.3903931,68.0390723 C5.6020283,57.9676887 42.1611478,47.2257075 50.8002987,46.3522799" id="Fill-3" fill="#E7F6F8"></path>
                <path d="M64.4721698,88.242217 C51.8388365,87.5499214 9.05660377,76.8931604 10.7199686,64.4154874 C12.1056604,54.0197327 35.5205975,45.2875 43.6015723,45.2404874 C52.0900943,45.1912736 82.3422956,55.6640723 95.452044,68.4747642 C109.460535,82.1639151 74.0322327,88.7661164 64.4721698,88.242217" id="Fill-5" fill="#C3E5EB"></path>
                <path d="M23.3747013,9.47998428 C23.3747013,10.7699214 22.3291038,11.8155189 21.0391667,11.8155189 C19.7492296,11.8155189 18.7036321,10.7699214 18.7036321,9.47998428 C18.7036321,8.19004717 19.7492296,7.14444969 21.0391667,7.14444969 C22.3291038,7.14444969 23.3747013,8.19004717 23.3747013,9.47998428" id="Fill-7" fill="#C3E5EB"></path>
                <mask id="mask-2" fill="white">
                    <use xlink:href="#path-1"></use>
                </mask>
                <g id="Clip-10"></g>
                <polygon id="Fill-9" fill="#173D7A" mask="url(#mask-2)" points="10.0586478 45.4212264 11.2869497 45.4212264 11.2869497 40.2544025 10.0586478 40.2544025"></polygon>
                <polygon id="Fill-11" fill="#173D7A" mask="url(#mask-2)" points="8.08930818 43.4518868 13.2561321 43.4518868 13.2561321 42.2235849 8.08930818 42.2235849"></polygon>
                <path d="M92.7944811,37.0637264 C92.7944811,37.7947013 93.3870912,38.3874686 94.118066,38.3874686 C94.8490409,38.3874686 95.4418082,37.7947013 95.4418082,37.0637264 C95.4418082,36.3327516 94.8490409,35.7401415 94.118066,35.7401415 C93.3870912,35.7401415 92.7944811,36.3327516 92.7944811,37.0637264" id="Fill-12" fill="#229DCA" mask="url(#mask-2)"></path>
                <path d="M59.2649057,7.03305031 C59.2649057,7.8531761 59.9298428,8.51795597 60.7498113,8.51795597 C61.5700943,8.51795597 62.2350314,7.8531761 62.2350314,7.03305031 C62.2350314,6.21292453 61.5700943,5.54814465 60.7498113,5.54814465 C59.9298428,5.54814465 59.2649057,6.21292453 59.2649057,7.03305031" id="Fill-13" fill="#E7F6F8" mask="url(#mask-2)"></path>
                <polygon id="Fill-14" fill="#173D7A" mask="url(#mask-2)" points="84.6133648 17.4463836 85.3735849 17.4463836 85.3735849 14.2487421 84.6133648 14.2487421"></polygon>
                <polygon id="Fill-15" fill="#173D7A" mask="url(#mask-2)" points="83.3946541 16.227673 86.5922956 16.227673 86.5922956 15.4674528 83.3946541 15.4674528"></polygon>
                <path d="M19.7023113,66.3174686 L17.1586006,64.8487579 L17.0370597,66.0591352 C16.9977516,66.4497013 16.977783,66.8333491 16.977783,67.199544 L16.977783,67.8451415 L19.7023113,69.3803616 L19.7023113,66.3174686 Z" id="Fill-16" fill="#FFFFFF" mask="url(#mask-2)"></path>
                <path d="M39.0708019,71.1638836 L21.0805503,60.7772484 L20.653978,61.1986321 C19.4332233,62.4050786 18.4901415,63.8953302 17.9266195,65.5083805 L17.7119969,66.1228459 L20.6063365,67.7942296 C20.7277201,67.8643553 20.8028774,67.9947013 20.8028774,68.1344811 L20.8028774,72.0969025 C20.8028774,72.2358962 20.7283491,72.3660849 20.6082233,72.4363679 C20.5480031,72.4714308 20.4796069,72.4899843 20.4097956,72.4899843 C20.3426572,72.4899843 20.2756761,72.4723742 20.2167138,72.4390409 L17.2921855,70.7912421 L17.2921855,74.2223742 L35.6854245,84.8413994 L35.6854245,81.4577516 L32.3487893,79.4525629 C32.2311792,79.3819654 32.158066,79.2525629 32.1583805,79.1152987 L32.1615252,75.1028774 C32.1618396,74.9629403 32.2369969,74.8324371 32.3583805,74.7626258 C32.4176572,74.7283491 32.485739,74.7101101 32.5546069,74.7101101 C32.6236321,74.7101101 32.6915566,74.7283491 32.7511478,74.762783 L36.0124686,76.6447013 L36.3189151,75.7349528 C36.7925,74.3291352 37.5178145,73.0324371 38.4747327,71.8811792 L39.0708019,71.1638836 Z" id="Fill-17" fill="#229DCA" mask="url(#mask-2)"></path>
                <polygon id="Fill-18" fill="#FFFFFF" mask="url(#mask-2)" points="49.4109906 55.3243711 31.0157075 44.7028302 24.7257704 48.3742138 43.1213679 58.9941824"></polygon>
                <path d="M32.9448585,78.8934748 L35.6503616,80.5191038 L35.6958019,79.1840409 C35.7096384,78.7815252 35.7431289,78.3793239 35.7950157,77.9890723 L35.8646698,77.4673742 L32.9473742,75.7837264 L32.9448585,78.8934748 Z" id="Fill-19" fill="#FFFFFF" mask="url(#mask-2)"></path>
                <polygon id="Fill-20" fill="#229DCA" mask="url(#mask-2)" points="42.6588994 59.6347642 24.201195 48.9789465 23.2074843 53.0685692 41.4960063 63.6273742"></polygon>
                <polygon id="Fill-21" fill="#229DCA" mask="url(#mask-2)" points="49.8043868 49.0628616 31.411305 38.4439937 31.411305 44.023239 49.8043868 54.6436792"></polygon>
                <polygon id="Fill-22" fill="#FFFFFF" mask="url(#mask-2)" points="81.3556447 30.4771541 62.961305 19.8570283 31.8054874 37.764261 50.1980975 48.3823428"></polygon>
                <polygon id="Fill-23" fill="#FFFFFF" mask="url(#mask-2)" points="41.2692925 64.4041038 23.014261 53.8646384 21.4972799 60.1099214 39.4936635 70.500173"></polygon>
                <path d="M50.5905503,74.0065094 L51.2704245,74.099434 C51.5932233,74.1434591 51.8947956,74.2455031 52.1664937,74.4022642 C52.3690094,74.5189308 52.5553302,74.6681447 52.7215252,74.8461321 L53.147783,75.3032075 L69.8973113,65.6340252 L69.9710535,65.2931447 C70.1341038,64.5362264 70.4383491,63.7585535 70.8507704,63.044717 C71.5531289,61.8280503 72.5174371,60.8533648 73.5658648,60.2997484 C74.1548585,59.9888994 74.7635063,59.824434 75.3260849,59.824434 C75.7935377,59.824434 76.2210535,59.9343396 76.5962107,60.1511635 C76.8451101,60.2945597 77.0668082,60.4838679 77.2559591,60.7137421 L77.6790723,61.2280503 L79.0536006,60.4346541 L79.0536006,54.8481761 L50.5905503,71.2052516 L50.5905503,74.0065094 Z" id="Fill-24" fill="#FFFFFF" mask="url(#mask-2)"></path>
                <polygon id="Fill-25" fill="#FFFFFF" mask="url(#mask-2)" points="78.1336006 37.4201101 54.2068711 51.1515566 54.2068711 64.0350472 78.1336006 50.3036006"></polygon>
                <path d="M76.2028931,60.8321226 C75.9458176,60.683695 75.6486478,60.6083805 75.3200314,60.6083805 C74.8854403,60.6083805 74.4186164,60.7384119 73.9326101,60.9950157 C73.0266352,61.4733176 72.1516352,62.3635692 71.5316667,63.4376258 C70.9113836,64.5116824 70.5778931,65.714827 70.6168868,66.7384119 C70.6536792,67.7102673 71.0068239,68.4374686 71.6109119,68.7862107 C71.8683019,68.9346384 72.1651572,69.0099528 72.4937736,69.0099528 C72.9286792,69.0099528 73.3955031,68.8797642 73.881195,68.6231604 C74.7868553,68.145173 75.6621698,67.2549214 76.2824528,66.1807075 C76.9024214,65.1063365 77.2359119,63.9031918 77.1969182,62.8797642 C77.1604403,61.9083805 76.8072956,61.181022 76.2028931,60.8321226" id="Fill-26" fill="#FFFFFF" mask="url(#mask-2)"></path>
                <polygon id="Fill-27" fill="#FFFFFF" mask="url(#mask-2)" points="43.8977201 68.0732862 46.9680031 66.3264308 46.9680031 63.6280031 45.4349843 63.3830346"></polygon>
                <path d="M53.420739,50.9238522 C53.420739,50.7834434 53.4965252,50.652783 53.6182233,50.5829717 L78.3311164,36.4004245 C78.3903931,36.366305 78.4578459,36.3483805 78.5267138,36.3483805 C78.595739,36.3483805 78.6642925,36.3667767 78.7241981,36.4013679 C78.8444811,36.4711792 78.9197956,36.6015252 78.9197956,36.7414623 L78.9197956,50.5315566 C78.9197956,50.6718082 78.8441667,50.8026258 78.7223113,50.8724371 L54.0097327,65.0549843 C53.9501415,65.0891038 53.8823742,65.1070283 53.8138208,65.1070283 C53.7447956,65.1070283 53.6765566,65.0887893 53.6166509,65.0540409 C53.4960535,64.9840723 53.420739,64.8537264 53.420739,64.7139465 L53.420739,50.9238522 Z M50.5905503,70.2982233 L81.7499843,52.391934 L81.7499843,31.1571855 L50.5905503,49.0634748 L50.5905503,70.2982233 Z" id="Fill-28" fill="#FFFFFF" mask="url(#mask-2)"></path>
                <path d="M51.7731761,75.0830346 C51.5143711,74.9335063 51.2157862,74.8577201 50.8862264,74.8577201 C49.6002201,74.8577201 48.0791509,75.995456 47.1016352,77.6885377 C45.8354403,79.881305 45.8708176,82.2806761 47.180566,83.0372799 C47.44,83.1866509 47.737956,83.2624371 48.0672013,83.2624371 C49.3538365,83.2624371 50.8749057,82.1247013 51.8524214,80.4316195 C52.4727044,79.3575629 52.806195,78.1544182 52.7672013,77.1306761 C52.7304088,76.1588208 52.3772642,75.4316195 51.7731761,75.0830346" id="Fill-29" fill="#FFFFFF" mask="url(#mask-2)"></path>
                <path d="M43.4014465,69.2603616 C43.3424843,69.2938522 43.2751887,69.3116195 43.2074214,69.3116195 C43.1166981,69.3116195 43.0283333,69.280173 42.9586792,69.2230975 C42.8336792,69.1208962 42.7832075,68.9495126 42.8336792,68.7963679 L45.2292767,61.4861478 C45.2575786,61.400456 45.3146541,61.3265566 45.3901258,61.2776572 L47.1486164,60.1463679 C47.2121384,60.1053302 47.285566,60.0837893 47.3615094,60.0837893 C47.4269182,60.0837893 47.492327,60.100456 47.549717,60.1317453 C47.6759748,60.2007704 47.7542767,60.3328459 47.7542767,60.4768711 L47.7542767,66.5548585 C47.7542767,66.6958962 47.6783333,66.8268711 47.5558491,66.8965252 L43.4014465,69.2603616 Z M49.3495597,74.4454245 L49.804434,74.2341038 L49.804434,56.004544 L43.4558491,59.7091038 L40.1078931,71.2009277 C40.090283,71.2617767 40.0577358,71.3179088 40.0138679,71.3635063 L39.635566,71.7565881 C37.5954717,73.8757704 36.4715723,76.6631918 36.4715723,79.6053302 L36.4715723,84.8455818 L45.4943711,79.7204245 L45.5737736,79.3886635 C45.7442138,78.6779717 46.0289623,77.9735692 46.4204717,77.2954245 C47.1778616,75.9836321 48.217956,74.9715252 49.3495597,74.4454245 L49.3495597,74.4454245 Z" id="Fill-30" fill="#FFFFFF" mask="url(#mask-2)"></path>
                <path d="M82.3395755,30.1375157 L63.1584434,19.0629874 C63.0985377,19.0287107 63.0306132,19.0104717 62.9619025,19.0104717 C62.8930346,19.0104717 62.8255818,19.0285535 62.7659906,19.062673 L30.8222799,37.4225786 C30.7005818,37.4923899 30.6251101,37.6227358 30.6251101,37.7633019 L30.6251101,44.0203774 L23.7449214,48.0365723 C23.6540409,48.0895597 23.5876887,48.1794969 23.562217,48.2832704 L23.3791981,49.0316981 L20.6946069,60.0827987 L20.5139465,60.2453774 C17.966934,62.5359434 16.5060849,65.8156604 16.5060849,69.2436478 L16.5060849,74.4494654 C16.5060849,74.5895597 16.5812421,74.7199057 16.7026258,74.7898742 L35.8818711,85.8625157 C35.9414623,85.8969497 36.0093868,85.9151887 36.0780975,85.9151887 C36.1424057,85.9151887 36.2089151,85.8966352 36.2707075,85.8614151 L36.9482233,85.4783962 L36.9485377,85.4790252 L43.5114308,81.7515094 L43.9051415,81.9883019 C45.0057704,82.6499371 46.6815566,83.6566981 46.7878459,83.7178616 C47.1661478,83.9364151 47.5920912,84.0471069 48.0541981,84.0471069 C49.6449214,84.0471069 51.4030975,82.7821698 52.5332862,80.8244654 C53.2358019,79.6081132 53.5979088,78.2857862 53.552783,77.1007233 C53.5463365,76.9316981 53.529827,76.7577987 53.5034119,76.5835849 L53.4222799,76.0527673 L67.8735377,67.7103145 L68.8262107,68.2107862 L68.7586006,68.0939623 L71.2482233,69.4827987 C71.6180346,69.6892453 72.0353302,69.793805 72.4883176,69.793805 C73.0502673,69.793805 73.6589151,69.6293396 74.2482233,69.3181761 C75.2966509,68.7648742 76.2609591,67.7900314 76.9636321,66.573522 C77.6658333,65.3571698 78.0279403,64.0348428 77.9828145,62.8494654 C77.9791981,62.7518239 77.9708648,62.6460063 77.9570283,62.5169182 L77.9016824,62.0071698 L79.6433491,61.0019811 C79.7645755,60.9321698 79.8398899,60.8015094 79.8398899,60.6615723 L79.8398899,54.3963208 L82.3389465,52.9601572 C82.4606447,52.8903459 82.5361164,52.7596855 82.5361164,52.6192767 L82.5361164,30.4779245 C82.5361164,30.337673 82.4611164,30.2074843 82.3395755,30.1375157" id="Fill-31" fill="#173D7A" mask="url(#mask-2)"></path>
                <polygon id="Fill-32" fill="#E7F6F8" mask="url(#mask-2)" points="62.9612579 19.857044 81.3555975 30.4771698 50.1980503 48.3823585 31.8055975 37.7642767"></polygon>
                <polygon id="Fill-33" fill="#229DCA" mask="url(#mask-2)" points="31.4112264 38.443978 49.8043082 49.0628459 49.8043082 54.6436635 31.4112264 44.0232233"></polygon>
                <polygon id="Fill-34" fill="#E7F6F8" mask="url(#mask-2)" points="31.0156918 44.7028774 49.4109748 55.3244182 43.1213522 58.9942296 24.7257547 48.374261"></polygon>
                <polygon id="Fill-35" fill="#229DCA" mask="url(#mask-2)" points="24.2012579 48.9788679 42.6589623 59.6346855 41.4959119 63.6272956 23.2075472 53.0686478"></polygon>
                <polygon id="Fill-36" fill="#E7F6F8" mask="url(#mask-2)" points="23.0143239 53.8646069 41.2693553 64.4040723 39.4937264 70.5001415 21.4973428 60.1100472"></polygon>
                <path d="M35.7950157,77.9890723 C35.7431289,78.3793239 35.7096384,78.7815252 35.6958019,79.1840409 L35.6503616,80.5191038 L32.9448585,78.8934748 L32.9473742,75.7837264 L35.8646698,77.4673742 L35.7950157,77.9890723 Z" id="Fill-37" fill="#E7F6F8" mask="url(#mask-2)"></path>
                <path d="M36.0124371,76.6447642 L32.7511164,74.7626887 C32.6915252,74.7284119 32.6236006,74.7100157 32.5545755,74.7100157 C32.4857075,74.7100157 32.4176258,74.7284119 32.3583491,74.7625314 C32.2369654,74.8325 32.1618082,74.9630031 32.1614937,75.102783 L32.1583491,79.1153616 C32.1580346,79.2526258 32.2311478,79.3818711 32.3487579,79.4524686 L35.6853931,81.4576572 L35.6853931,84.8414623 L17.2921541,74.2224371 L17.2921541,70.7911478 L20.2166824,72.4391038 C20.2756447,72.4724371 20.3426258,72.4898899 20.4099214,72.4898899 C20.4795755,72.4898899 20.5479717,72.4714937 20.6081918,72.4362736 C20.7283176,72.3659906 20.8030031,72.2359591 20.8030031,72.0968082 L20.8030031,68.134544 C20.8030031,67.9946069 20.7276887,67.864261 20.6064623,67.7942925 L17.7119654,66.1229088 L17.9267453,65.5084434 C18.4902673,63.8953931 19.4333491,62.4051415 20.6539465,61.198695 L21.0805189,60.7773113 L39.0707704,71.1639465 L38.4747013,71.8810849 C37.517783,73.0323428 36.7924686,74.3290409 36.3188836,75.7350157 L36.0124371,76.6447642 Z" id="Fill-38" fill="#229DCA" mask="url(#mask-2)"></path>
                <path d="M51.8524057,80.4315566 C50.8748899,82.1247956 49.3538208,83.2623742 48.0671855,83.2623742 C47.7379403,83.2623742 47.4401415,83.1865881 47.1805503,83.037217 C45.8708019,82.2807704 45.8354245,79.8812421 47.1016195,77.6886321 C48.0791352,75.9953931 49.6002044,74.8578145 50.8862107,74.8578145 C51.2157704,74.8578145 51.5143553,74.9334434 51.7731604,75.0829717 C52.3772484,75.4315566 52.7303931,76.1587579 52.7671855,77.1307704 C52.8061792,78.1545126 52.4726887,79.3575 51.8524057,80.4315566" id="Fill-39" fill="#E5EFF7" mask="url(#mask-2)"></path>
                <path d="M51.1902987,79.8586635 C50.6211164,80.8446698 49.7352673,81.506934 48.9862107,81.506934 C48.794544,81.506934 48.6209591,81.4629088 48.4700157,81.3758019 C47.7074371,80.9353931 47.6866824,79.5382233 48.4239465,78.2614937 C48.9931289,77.2756447 49.8786635,76.6132233 50.6277201,76.6132233 C50.819544,76.6132233 50.9932862,76.6574057 51.1440723,76.7443553 C51.4958019,76.9473428 51.701305,77.3707704 51.7230031,77.9366509 C51.7454874,78.5327201 51.551305,79.2331918 51.1902987,79.8586635" id="Fill-40" fill="#173D7A" mask="url(#mask-2)"></path>
                <path d="M50.8666195,79.7043553 C50.4285692,80.441934 49.7469654,80.9375314 49.1705503,80.9375314 C49.0229088,80.9375314 48.8894182,80.9045126 48.7733805,80.8395755 C48.1864308,80.5098585 48.1705503,79.4645755 48.7378459,78.5092296 C49.1758962,77.7718082 49.8573428,77.2762107 50.4336006,77.2762107 C50.5813994,77.2762107 50.7150472,77.3092296 50.8309277,77.3743239 C51.1016824,77.5260535 51.2598585,77.8428774 51.2763679,78.266305 C51.2938208,78.712217 51.1444497,79.2362736 50.8666195,79.7043553" id="Fill-41" fill="#229DCA" mask="url(#mask-2)"></path>
                <path d="M76.2824371,66.1806447 C75.6621541,67.2548585 74.7868396,68.1451101 73.8813365,68.6230975 C73.3954874,68.8797013 72.9286635,69.0098899 72.4937579,69.0098899 C72.1651415,69.0098899 71.8682862,68.9347327 71.6108962,68.7861478 C71.0068082,68.4375629 70.6536635,67.7103616 70.6168711,66.7385063 C70.5778774,65.7147642 70.9113679,64.5117767 71.5316509,63.4377201 C72.1517767,62.3636635 73.0266195,61.4734119 73.9325943,60.9951101 C74.4186006,60.7385063 74.8854245,60.6084748 75.3200157,60.6084748 C75.6486321,60.6084748 75.9458019,60.6836321 76.2028774,60.8320597 C76.8072799,61.1809591 77.1604245,61.9083176 77.1969025,62.8798585 C77.2358962,63.9032862 76.9024057,65.1062736 76.2824371,66.1806447" id="Fill-42" fill="#E5EFF7" mask="url(#mask-2)"></path>
                <path d="M79.0536635,60.4345912 L77.6791352,61.2281447 L77.2558648,60.7136792 C77.0667138,60.483805 76.8450157,60.2944969 76.5962736,60.1511006 C76.2209591,59.9342767 75.7936006,59.8243711 75.3261478,59.8243711 C74.7635692,59.8243711 74.1549214,59.9888365 73.5659277,60.2998428 C72.5175,60.8533019 71.5531918,61.8279874 70.8508333,63.0448113 C70.4384119,63.7586478 70.1340094,64.5361635 69.9709591,65.2930818 L69.8973742,65.6339623 L53.1476887,75.3031447 L52.7214308,74.8460692 C52.5553931,74.6680818 52.3689151,74.5188679 52.1665566,74.4022013 C51.8948585,74.2454403 51.5932862,74.1433962 51.2704874,74.0993711 L50.5906132,74.0064465 L50.5906132,71.2051887 L79.0536635,54.8482704 L79.0536635,60.4345912 Z" id="Fill-43" fill="#E5EFF7" mask="url(#mask-2)"></path>
                <polygon id="Fill-44" fill="#E5EFF7" mask="url(#mask-2)" points="81.7499528 52.3919182 50.5905189 70.2982075 50.5905189 49.0634591 81.7499528 31.1571698"></polygon>
                <path d="M54.2069025,51.1515723 L78.1336321,37.4201258 L78.1336321,50.3036164 L54.2069025,64.0350629 L54.2069025,51.1515723 Z M53.6166509,65.0540881 C53.6765566,65.0888365 53.7447956,65.1070755 53.8138208,65.1070755 C53.8823742,65.1070755 53.9501415,65.0891509 54.0097327,65.0550314 L78.7223113,50.8724843 C78.8441667,50.8025157 78.9197956,50.6718553 78.9197956,50.5316038 L78.9197956,36.7415094 C78.9197956,36.6015723 78.8444811,36.4712264 78.7241981,36.4012579 C78.6642925,36.3668239 78.595739,36.3484277 78.5267138,36.3484277 C78.4578459,36.3484277 78.3903931,36.3663522 78.3311164,36.4004717 L53.6182233,50.5830189 C53.4965252,50.6528302 53.420739,50.7834906 53.420739,50.9238994 L53.420739,64.7139937 C53.420739,64.8537736 53.4960535,64.9841195 53.6166509,65.0540881 L53.6166509,65.0540881 Z" id="Fill-45" fill="#173D7A" mask="url(#mask-2)"></path>
                <path d="M47.7542138,66.5548428 C47.7542138,66.6958805 47.6784277,66.8268553 47.5557862,66.8965094 L43.4013836,69.2603459 C43.3424214,69.2938365 43.275283,69.3116038 43.2073585,69.3116038 C43.1167925,69.3116038 43.0282704,69.2801572 42.9586164,69.2230818 C42.8336164,69.1208805 42.7833019,68.9494969 42.8336164,68.7963522 L45.2292138,61.4861321 C45.2575157,61.4004403 45.3145912,61.3265409 45.3902201,61.2776415 L47.1485535,60.1463522 C47.2122327,60.1053145 47.2856604,60.0837736 47.3614465,60.0837736 C47.4268553,60.0837736 47.4922642,60.1004403 47.5496541,60.1317296 C47.6759119,60.2007547 47.7542138,60.3328302 47.7542138,60.4768553 L47.7542138,66.5548428 Z M43.4557862,59.7090881 L40.1078302,71.2009119 C40.0903774,71.2619182 40.0578302,71.3178931 40.013805,71.3634906 L39.6355031,71.7565723 C37.595566,73.8757547 36.4715094,76.6631761 36.4715094,79.6053145 L36.4715094,84.845566 L45.4943082,79.7204088 L45.5738679,79.3886478 C45.7443082,78.677956 46.0288994,77.9735535 46.420566,77.2954088 C47.1777987,75.9836164 48.2178931,74.9715094 49.3494969,74.4454088 L49.8043711,74.2340881 L49.8043711,56.0045283 L43.4557862,59.7090881 Z" id="Fill-46" fill="#E5EFF7" mask="url(#mask-2)"></path>
                <polygon id="Fill-47" fill="#229DCA" mask="url(#mask-2)" points="43.8977201 68.0732862 46.9680031 66.3264308 46.9680031 63.6280031 45.4349843 63.3830346"></polygon>
                <path d="M46.9680503,66.3263679 L43.8977673,68.0732233 L45.4350314,63.3829717 L46.9680503,63.6279403 L46.9680503,66.3263679 Z M47.5496541,60.1318711 C47.4922642,60.1004245 47.4268553,60.0837579 47.3614465,60.0837579 C47.2856604,60.0837579 47.2122327,60.105456 47.1485535,60.1463365 L45.3902201,61.277783 C45.3145912,61.3265252 45.2575157,61.4004245 45.2292138,61.4861164 L42.8336164,68.7963365 C42.7833019,68.9496384 42.8336164,69.1208648 42.9586164,69.223066 C43.0282704,69.2801415 43.1167925,69.3115881 43.2073585,69.3115881 C43.275283,69.3115881 43.3424214,69.2938208 43.4013836,69.2603302 L47.5557862,66.8964937 C47.6784277,66.8269969 47.7542138,66.696022 47.7542138,66.554827 L47.7542138,60.4768396 C47.7542138,60.3328145 47.6759119,60.200739 47.5496541,60.1318711 L47.5496541,60.1318711 Z" id="Fill-48" fill="#173D7A" mask="url(#mask-2)"></path>
                <path d="M75.4499057,65.653522 C74.8807233,66.6393711 73.9948742,67.3016352 73.2458176,67.3016352 C73.0541509,67.3016352 72.880566,67.2576101 72.7296226,67.1706604 C71.967044,66.7302516 71.9462893,65.3330818 72.6835535,64.0563522 C73.2527358,63.0705031 74.1382704,62.4080818 74.887327,62.4080818 C75.0793082,62.4080818 75.2528931,62.4522642 75.4036792,62.5392138 C75.7554088,62.742044 75.9609119,63.1656289 75.9826101,63.7315094 C76.0050943,64.3275786 75.8109119,65.0280503 75.4499057,65.653522" id="Fill-49" fill="#173D7A" mask="url(#mask-2)"></path>
                <path d="M75.1262264,65.4990566 C74.6881761,66.2366352 74.0065723,66.7323899 73.4301572,66.7323899 C73.2825157,66.7323899 73.1490252,66.6993711 73.0329874,66.6342767 C72.4460377,66.304717 72.4301572,65.259434 72.9974528,64.3040881 C73.4355031,63.5665094 74.1169497,63.0710692 74.6932075,63.0710692 C74.8410063,63.0710692 74.9746541,63.1039308 75.0905346,63.1691824 C75.3612893,63.3209119 75.5194654,63.6377358 75.5359748,64.0611635 C75.5535849,64.5070755 75.4040566,65.0311321 75.1262264,65.4990566" id="Fill-50" fill="#229DCA" mask="url(#mask-2)"></path>
                <path d="M17.4494654,69.2436164 C17.4494654,68.8774214 17.469434,68.4936164 17.5087421,68.1032075 L17.630283,66.8928302 L20.1739937,68.3615409 L20.1739937,71.424434 L17.4494654,69.8890566 L17.4494654,69.2436164 Z" id="Fill-51" fill="#E7F6F8" mask="url(#mask-2)"></path>
            </g>
        </g>
    </g>
</svg>