<?xml version="1.0" encoding="UTF-8"?>
<svg width="89px" height="85px" viewBox="0 0 89 85" version="1.1" xmlns="http://www.w3.org/2000/svg" xmlns:xlink="http://www.w3.org/1999/xlink">
    <!-- Generator: sketchtool 41.2 (35397) - http://www.bohemiancoding.com/sketch -->
    <title>29774762-AFD3-4053-837A-E0F48FEBAA52</title>
    <desc>Created with sketchtool.</desc>
    <defs>
        <polygon id="path-1" points="0 99.9981132 99.9981132 99.9981132 99.9981132 0 0 0"></polygon>
    </defs>
    <g id="Page-1" stroke="none" stroke-width="1" fill="none" fill-rule="evenodd">
        <g id="NEXT-ORBIT-LANDING-PAGE-V002" transform="translate(-738.000000, -1966.000000)">
            <g id="Page-1" transform="translate(730.000000, 1962.000000)">
                <path d="M90.5444025,40.6111792 C89.8983333,40.6111792 89.3725472,41.1369654 89.3725472,41.7830346 C89.3725472,42.429261 89.8983333,42.9548899 90.5444025,42.9548899 C91.1906289,42.9548899 91.7162579,42.429261 91.7162579,41.7830346 C91.7162579,41.1369654 91.1906289,40.6111792 90.5444025,40.6111792 Z M90.5444025,43.429261 C89.6368553,43.429261 88.8981761,42.690739 88.8981761,41.7830346 C88.8981761,40.8754874 89.6368553,40.1368082 90.5444025,40.1368082 C91.4521069,40.1368082 92.1906289,40.8754874 92.1906289,41.7830346 C92.1906289,42.690739 91.4521069,43.429261 90.5444025,43.429261 Z" id="Fill-1" fill="#229DCA"></path>
                <path d="M74.9679245,6.83962264 C74.9679245,8.12940252 73.922327,9.17515723 72.6323899,9.17515723 C71.3422956,9.17515723 70.2966981,8.12940252 70.2966981,6.83962264 C70.2966981,5.54968553 71.3422956,4.50408805 72.6323899,4.50408805 C73.922327,4.50408805 74.9679245,5.54968553 74.9679245,6.83962264" id="Fill-3" fill="#C3E5EB"></path>
                <path d="M20.9841195,29.6994811 C20.9841195,30.430456 20.3915094,31.0232233 19.6605346,31.0232233 C18.9295597,31.0232233 18.3369497,30.430456 18.3369497,29.6994811 C18.3369497,28.9685063 18.9295597,28.3758962 19.6605346,28.3758962 C20.3915094,28.3758962 20.9841195,28.9685063 20.9841195,29.6994811" id="Fill-5" fill="#229DCA"></path>
                <path d="M44.3033962,13.846305 C44.3033962,14.6664308 43.6384591,15.3312107 42.8184906,15.3312107 C41.9982075,15.3312107 41.3332704,14.6664308 41.3332704,13.846305 C41.3332704,13.026022 41.9982075,12.3612421 42.8184906,12.3612421 C43.6384591,12.3612421 44.3033962,13.026022 44.3033962,13.846305" id="Fill-7" fill="#E7F6F8"></path>
                <mask id="mask-2" fill="white">
                    <use xlink:href="#path-1"></use>
                </mask>
                <g id="Clip-10"></g>
                <polygon id="Fill-9" fill="#173D7A" mask="url(#mask-2)" points="10.9130503 16.429717 12.1413522 16.429717 12.1413522 11.2628931 10.9130503 11.2628931"></polygon>
                <polygon id="Fill-11" fill="#173D7A" mask="url(#mask-2)" points="8.94371069 14.4603774 14.1105346 14.4603774 14.1105346 13.2320755 8.94371069 13.2320755"></polygon>
                <polygon id="Fill-12" fill="#173D7A" mask="url(#mask-2)" points="85.8144654 21.5397799 86.5746855 21.5397799 86.5746855 18.3422956 85.8144654 18.3422956"></polygon>
                <polygon id="Fill-13" fill="#173D7A" mask="url(#mask-2)" points="84.5957547 20.3210692 87.7933962 20.3210692 87.7933962 19.5610063 84.5957547 19.5610063"></polygon>
                <path d="M49.071195,46.352327 C60.4875472,45.1980818 94.7292138,48.5916352 86.5424214,59.7851887 C79.7218239,69.1106604 53.2366038,80.048239 45.6737107,81.2166352 C37.7290566,82.4439937 15.0781132,77.4641195 9.66128931,68.0391195 C3.87292453,57.9677358 40.432044,47.2257547 49.071195,46.352327" id="Fill-14" fill="#E7F6F8" mask="url(#mask-2)"></path>
                <path d="M62.7430818,88.2422484 C50.1097484,87.5499528 7.32751572,76.8931918 8.9908805,64.4155189 C10.3765723,54.0197642 33.7915094,45.2873742 41.8724843,45.2405189 C50.3610063,45.191305 80.6132075,55.6641038 93.722956,68.4747956 C107.731447,82.1639465 72.3031447,88.7661478 62.7430818,88.2422484" id="Fill-15" fill="#C3E5EB" mask="url(#mask-2)"></path>
                <path d="M63.2700472,67.4847642 C63.3359277,67.4847642 63.4007075,67.5020597 63.4576258,67.5349214 C63.5733491,67.6019025 63.6452044,67.7264308 63.6450472,67.8600786 L63.6398585,74.870456 L69.5214623,71.474544 L69.5214623,64.0338208 C69.5214623,63.9004874 69.5934748,63.7759591 69.7088836,63.7091352 L72.6323113,62.0213994 L66.6871855,55.1352358 L60.7423742,68.8861792 L63.0826258,67.5349214 C63.139544,67.5020597 63.2043239,67.4847642 63.2700472,67.4847642" id="Fill-16" fill="#E5EFF7" mask="url(#mask-2)"></path>
                <path d="M83.347783,40.7346384 L50.1880346,21.5901415 C50.1309591,21.5571226 50.066022,21.539827 50.000456,21.539827 C49.9347327,21.539827 49.8699528,21.5571226 49.8130346,21.5901415 L16.6501415,40.7332233 C16.5347327,40.7998899 16.4628774,40.924261 16.4628774,41.0579088 L16.4661792,67.8483176 C16.4661792,67.9816509 16.5378774,68.106022 16.6536006,68.1728459 L49.8106761,87.3313365 C49.8675943,87.3641981 49.9325314,87.3816509 49.9982547,87.3816509 C50.063978,87.3816509 50.1289151,87.3641981 50.1858333,87.3313365 L83.3476258,68.1876258 C83.4633491,68.1206447 83.5352044,67.9962736 83.5352044,67.862783 L83.5352044,41.0593239 C83.5352044,40.9258333 83.4635063,40.8014623 83.347783,40.7346384" id="Fill-17" fill="#173D7A" mask="url(#mask-2)"></path>
                <path d="M59.9488208,70.1522013 C60.0142296,70.1522013 60.0790094,70.1349057 60.1357704,70.102044 L62.8944182,68.5092767 L62.8893868,75.5196541 C62.8892296,75.6531447 62.9610849,75.7775157 63.0771226,75.8444969 C63.1338836,75.8773585 63.1986635,75.8948113 63.2643868,75.8948113 C63.3299528,75.8948113 63.3947327,75.8773585 63.4518082,75.8444969 L70.0837264,72.015566 C70.1992925,71.9487421 70.2711478,71.8243711 70.2711478,71.6908805 L70.2711478,64.2501572 L73.3997642,62.4438679 C73.4966195,62.3878931 73.5631289,62.2922956 73.5819969,62.1816038 C73.6007075,62.0710692 73.5694182,61.9589623 73.4961478,61.8742138 L66.8639151,54.1922956 C66.7926887,54.1097484 66.6893868,54.0624214 66.5805818,54.0624214 C66.5617138,54.0624214 66.5425314,54.0639937 66.5233491,54.0668239 C66.3950472,54.086478 66.2875,54.1696541 66.2360849,54.288522 L59.6044811,69.6279874 C59.5398585,69.7768868 59.578066,69.9495283 59.698978,70.0572327 C59.7678459,70.1183962 59.8565252,70.1522013 59.9488208,70.1522013" id="Fill-18" fill="#173D7A" mask="url(#mask-2)"></path>
                <polygon id="Fill-19" fill="#E7F6F8" mask="url(#mask-2)" points="65.2224057 31.6079245 49.7912736 22.698805 18.1953616 40.9374843 33.6268082 49.846761"></polygon>
                <polygon id="Fill-20" fill="#E7F6F8" mask="url(#mask-2)" points="66.3844497 32.248978 34.7375943 50.5175314 50.1962421 59.4426887 81.840739 41.1724057"></polygon>
                <path d="M59.8450157,69.4349843 L66.2480031,54.6249214 C66.2976887,54.509827 66.401305,54.4296384 66.5253616,54.4107704 C66.5437579,54.4079403 66.5623113,54.4065252 66.5805503,54.4065252 C66.6855818,54.4065252 66.7854245,54.4521226 66.8541352,54.5319969 L73.2574371,61.9486635 C73.3281918,62.0305818 73.3583805,62.1387579 73.3402987,62.2453616 C73.322217,62.3522799 73.258066,62.4445755 73.1643553,62.4988208 L70.1437579,64.2426887 L70.1437579,71.4266509 C70.1437579,71.5554245 70.0744182,71.6755503 69.962783,71.7400157 L63.5597956,75.4370283 C63.5046069,75.4687893 63.4421855,75.485456 63.3788208,75.485456 C63.3152987,75.485456 63.2528774,75.4687893 63.1978459,75.4370283 C63.0858962,75.3724057 63.0167138,75.2521226 63.0168711,75.1233491 L63.0215881,68.3547956 L60.3582233,69.8925314 C60.3033491,69.9242925 60.2409277,69.9411164 60.1775629,69.9411164 C60.0885692,69.9411164 60.0028774,69.9085692 59.9363679,69.8494497 C59.819544,69.7453616 59.7827516,69.5788522 59.8450157,69.4349843 L59.8450157,69.4349843 Z M50.9318082,85.5875 L82.2261478,67.5216195 L82.226305,42.4791667 L50.9344811,60.5458333 L50.9318082,85.5875 Z" id="Fill-21" fill="#E5EFF7" mask="url(#mask-2)"></path>
                <path d="M26.6658491,62.1024686 L33.0793711,54.6738522 C33.1483962,54.593978 33.2483962,54.548066 33.3537421,54.548066 C33.3721384,54.548066 33.3906918,54.5494811 33.4087736,54.5523113 C33.5329874,54.5713365 33.636761,54.6515252 33.686761,54.7670912 L40.100283,69.6016824 C40.1625472,69.7453931 40.1255975,69.9120597 40.0086164,70.0164623 C39.9422642,70.075739 39.8567296,70.1082862 39.7675786,70.1082862 C39.7040566,70.1082862 39.6413208,70.0914623 39.5862893,70.059544 L36.9183648,68.5192925 L36.923239,75.2988522 C36.9233962,75.4280975 36.8540566,75.548695 36.7421069,75.6131604 C36.686761,75.6452358 36.6243396,75.6619025 36.5606604,75.6619025 C36.4969811,75.6619025 36.4344025,75.6450786 36.3793711,75.6133176 L29.9655346,71.9103302 C29.8537421,71.8457075 29.7844025,71.7254245 29.7844025,71.5963365 L29.7844025,64.4004245 L26.7587736,62.6537264 C26.6647484,62.5993239 26.6007547,62.5070283 26.582673,62.4004245 C26.564434,62.2931918 26.5949371,62.184544 26.6658491,62.1024686 L26.6658491,62.1024686 Z M17.6825157,67.6705503 L49.0226101,85.7791981 L49.0254403,60.6972799 L17.6796855,42.5996384 L17.6825157,67.6705503 Z" id="Fill-22" fill="#229DCA" mask="url(#mask-2)"></path>
                <path d="M30.7297956,64.2994182 L30.7297956,70.9079088 L35.9538522,73.9241038 L35.9491352,67.6975314 C35.948978,67.5788208 36.0129717,67.4682862 36.1156447,67.4088522 C36.1661164,67.3799214 36.2236635,67.3643553 36.2821541,67.3643553 C36.3406447,67.3643553 36.3980346,67.3797642 36.4486635,67.4088522 L38.5274371,68.6088522 L33.2470912,56.3961164 L27.9670597,62.5121541 L30.5632862,64.0112107 C30.6661164,64.0704874 30.7297956,64.1808648 30.7297956,64.2994182" id="Fill-23" fill="#229DCA" mask="url(#mask-2)"></path>
                <path d="M66.6872484,56.4439308 L71.8292296,62.3999057 L69.3007704,63.8598113 C69.2007704,63.9175157 69.1386635,64.0252201 69.1386635,64.1404717 L69.1386635,70.5761635 L64.0513994,73.5132704 L64.0559591,67.4497484 C64.0561164,67.3343396 63.9938522,67.2266352 63.8938522,67.1687736 C63.8446384,67.1403145 63.7885063,67.1253774 63.7315881,67.1253774 C63.674827,67.1253774 63.618695,67.1403145 63.5696384,67.1687736 L61.5454245,68.3374843 L66.6872484,56.4439308 Z" id="Fill-24" fill="#E5EFF7" mask="url(#mask-2)"></path>
            </g>
        </g>
    </g>
</svg>