<?xml version="1.0" encoding="UTF-8"?>
<svg width="53px" height="63px" viewBox="0 0 53 63" version="1.1" xmlns="http://www.w3.org/2000/svg" xmlns:xlink="http://www.w3.org/1999/xlink">
    <!-- Generator: sketchtool 41.2 (35397) - http://www.bohemiancoding.com/sketch -->
    <title>34424474-742D-4EBC-9771-A3AE70DED657</title>
    <desc>Created with sketchtool.</desc>
    <defs>
        <polygon id="path-1" points="0 70 70 70 70 0 0 0"></polygon>
    </defs>
    <g id="Page-1" stroke="none" stroke-width="1" fill="none" fill-rule="evenodd">
        <g id="NEXT-ORBIT-LANDING-PAGE-V002" transform="translate(-95.000000, -1343.000000)">
            <g id="Page-1" transform="translate(84.000000, 1339.000000)">
                <path d="M62.2904355,35.0513884 C61.8381871,35.0513884 61.4701368,35.4194387 61.4701368,35.8716871 C61.4701368,36.3240456 61.8381871,36.6919858 62.2904355,36.6919858 C62.742794,36.6919858 63.1108443,36.3240456 63.1108443,35.8716871 C63.1108443,35.4194387 62.742794,35.0513884 62.2904355,35.0513884 Z M62.2904355,37.0240456 C61.6551525,37.0240456 61.1381871,36.5071903 61.1381871,35.8716871 C61.1381871,35.2364041 61.6551525,34.7193286 62.2904355,34.7193286 C62.9258286,34.7193286 63.4429041,35.2364041 63.4429041,35.8716871 C63.4429041,36.5071903 62.9258286,37.0240456 62.2904355,37.0240456 Z" id="Fill-1" fill="#229DCA"></path>
                <path d="M36.4246871,40.1394308 C42.6294827,39.5121824 61.2396871,41.3566164 56.7901745,47.4401226 C53.0831462,52.5086289 38.6885708,58.4531258 34.5781619,59.0881887 C30.2602846,59.7552799 17.9495299,57.0487233 15.0054575,51.9261761 C11.8595299,46.4524182 31.729294,40.614022 36.4246871,40.1394308" id="Fill-3" fill="#E7F6F8"></path>
                <path d="M43.8553302,62.9065346 C36.9890566,62.5302296 13.7370597,56.7383899 14.6410063,49.9567547 C15.3942767,44.3066761 28.1201887,39.5606541 32.5120283,39.5351195 C37.1256447,39.5084843 53.5677201,45.2003868 60.6927516,52.1630755 C68.3063522,59.6029969 49.0511792,63.1912673 43.8553302,62.9065346" id="Fill-5" fill="#C3E5EB"></path>
                <path d="M24.9956682,17.4130503 C24.9956682,18.3158962 24.26375,19.0479245 23.360794,19.0479245 C22.4578381,19.0479245 21.7259198,18.3158962 21.7259198,17.4130503 C21.7259198,16.5100943 22.4578381,15.7781761 23.360794,15.7781761 C24.26375,15.7781761 24.9956682,16.5100943 24.9956682,17.4130503" id="Fill-7" fill="#C3E5EB"></path>
                <path d="M13.9612138,32.9203176 C13.9612138,33.432 13.5463868,33.846827 13.0347044,33.846827 C12.523022,33.846827 12.1080849,33.432 12.1080849,32.9203176 C12.1080849,32.4086352 12.523022,31.9936981 13.0347044,31.9936981 C13.5463868,31.9936981 13.9612138,32.4086352 13.9612138,32.9203176" id="Fill-9" fill="#229DCA"></path>
                <path d="M51.5188884,11.7340692 C51.5188884,12.3081572 51.0534324,12.7735031 50.4794544,12.7735031 C49.9053664,12.7735031 49.4399104,12.3081572 49.4399104,11.7340692 C49.4399104,11.1599811 49.9053664,10.6946352 50.4794544,10.6946352 C51.0534324,10.6946352 51.5188884,11.1599811 51.5188884,11.7340692" id="Fill-11" fill="#E7F6F8"></path>
                <path d="M13.5149418,19.0478695 C13.5149418,19.6220676 13.0494858,20.0874135 12.4755079,20.0874135 C11.9014198,20.0874135 11.4359638,19.6220676 11.4359638,19.0478695 C11.4359638,18.4737814 11.9014198,18.0084355 12.4755079,18.0084355 C13.0494858,18.0084355 13.5149418,18.4737814 13.5149418,19.0478695" id="Fill-13" fill="#E7F6F8"></path>
                <mask id="mask-2" fill="white">
                    <use xlink:href="#path-1"></use>
                </mask>
                <g id="Clip-16"></g>
                <polygon id="Fill-15" fill="#173D7A" mask="url(#mask-2)" points="21.1226101 8.45624214 21.9824214 8.45624214 21.9824214 4.83946541 21.1226101 4.83946541"></polygon>
                <polygon id="Fill-17" fill="#173D7A" mask="url(#mask-2)" points="19.7440723 7.0777044 23.3608491 7.0777044 23.3608491 6.21789308 19.7440723 6.21789308"></polygon>
                <polygon id="Fill-18" fill="#173D7A" mask="url(#mask-2)" points="59.7529245 20.9180031 60.2850786 20.9180031 60.2850786 18.6796541 59.7529245 18.6796541"></polygon>
                <polygon id="Fill-19" fill="#173D7A" mask="url(#mask-2)" points="58.899827 20.0649057 61.1381761 20.0649057 61.1381761 19.5327516 58.899827 19.5327516"></polygon>
                <polygon id="Fill-20" fill="#229DCA" mask="url(#mask-2)" points="19.5427123 41.2386619 19.5558097 48.1059261 25.5048192 44.6711934"></polygon>
                <polygon id="Fill-21" fill="#E5EFF7" mask="url(#mask-2)" points="36.8877217 38.099184 38.9805676 27.2342154 19.7439953 40.8091525 25.9778475 44.3979733"></polygon>
                <polygon id="Fill-22" fill="#229DCA" mask="url(#mask-2)" points="32.4200708 48.6523223 25.9781997 44.9437531 19.7929953 48.5146336 32.4181997 55.7983758"></polygon>
                <polygon id="Fill-23" fill="#E7F6F8" mask="url(#mask-2)" points="37.0993616 38.5228821 26.451217 44.670555 32.6434654 48.2357123 42.2180566 41.4781808"></polygon>
                <polygon id="Fill-24" fill="#229DCA" mask="url(#mask-2)" points="42.6433506 41.1778192 52.2180519 34.4203978 39.4929104 27.0734796 37.3631934 38.1294072"></polygon>
                <polygon id="Fill-25" fill="#E5EFF7" mask="url(#mask-2)" points="42.0166085 22.8545047 54.8784481 30.2804481 56.6284481 29.2701808 43.7666085 21.8422563"></polygon>
                <polygon id="Fill-26" fill="#E5EFF7" mask="url(#mask-2)" points="42.6689292 41.7384575 32.8927028 48.6380802 32.8909418 55.7981116 49.9609261 45.9484733"></polygon>
                <path d="M22.5456903,56.6514403 C22.657184,57.6560943 23.1901085,58.4137673 23.7855487,58.4137673 C24.1665865,58.4137673 24.5385991,58.0972264 24.7811777,57.5670535 L24.9600299,57.1761101 L22.4427814,55.7228396 L22.5456903,56.6514403 Z" id="Fill-27" fill="#E5EFF7" mask="url(#mask-2)"></path>
                <path d="M23.7856148,54.1016132 C23.4181148,54.1016132 23.0664638,54.3872264 22.8208035,54.8850409 L22.6248915,55.2822579 L25.1443412,56.7366289 L25.0150173,55.7822736 C24.8828318,54.8084371 24.3658664,54.1016132 23.7856148,54.1016132" id="Fill-28" fill="#FFFFFF" mask="url(#mask-2)"></path>
                <polygon id="Fill-29" fill="#E5EFF7" mask="url(#mask-2)" points="50.2644465 45.5778695 52.3132673 34.931706 43.0942893 41.438294"></polygon>
                <polygon id="Fill-30" fill="#E5EFF7" mask="url(#mask-2)" points="39.6463931 26.6164214 52.5697579 34.0775849 54.5558428 30.6397704 41.630717 23.1776164"></polygon>
                <polygon id="Fill-31" fill="#229DCA" mask="url(#mask-2)" points="35.3496368 54.9251478 41.5466179 58.5051635 50.1973412 53.5106195 50.1972311 46.3577421"></polygon>
                <path d="M35.7884906,63.9883538 C35.7884906,65.1570016 36.3663208,66.1443758 37.0502516,66.1443758 C37.7344025,66.1443758 38.3123428,65.1570016 38.3123428,63.9883538 C38.3123428,62.819706 37.7344025,61.8322217 37.0502516,61.8322217 C36.3663208,61.8322217 35.7884906,62.819706 35.7884906,63.9883538" id="Fill-32" fill="#E5EFF7" mask="url(#mask-2)"></path>
                <path d="M46.9193601,57.5830016 C46.9193601,58.7516494 47.4971903,59.7390236 48.1812311,59.7390236 C48.8651619,59.7390236 49.4429921,58.7516494 49.4429921,57.5830016 C49.4429921,56.4142437 48.8651619,55.4268695 48.1812311,55.4268695 C47.4971903,55.4268695 46.9193601,56.4142437 46.9193601,57.5830016" id="Fill-33" fill="#E5EFF7" mask="url(#mask-2)"></path>
                <path d="M32.7825079,56.4064843 L32.7559827,56.4202421 L32.7535613,56.4221132 C32.7225236,56.4363113 32.6887343,56.4437956 32.6546148,56.4437956 C32.6132311,56.4437956 32.5723978,56.4327893 32.5364072,56.4120975 L25.9605896,52.6184497 L24.2722248,53.6067044 L24.720511,54.0396918 C25.2211871,54.5234182 25.520228,55.3526321 25.520228,56.2575692 C25.520228,56.3776478 25.5146148,56.4986069 25.5029481,56.6271604 L25.4756525,56.9279623 L34.8771148,62.356044 L50.1974292,53.5106195 L44.1216274,49.8641258 L32.7825079,56.4064843 Z" id="Fill-34" fill="#E7F6F8" mask="url(#mask-2)"></path>
                <path d="M54.8784921,30.2804151 L42.0166525,22.8544717 L43.7666525,21.8422233 L56.6283821,29.2701478 L54.8784921,30.2804151 Z M52.5697028,34.0775849 L39.6463381,26.6164214 L41.630772,23.1776164 L54.5557877,30.6397704 L52.5697028,34.0775849 Z M50.2644355,45.5778365 L43.0943884,41.438261 L52.3132563,34.931783 L50.2644355,45.5778365 Z M41.5465739,58.5051635 L35.3495928,54.9251478 L50.1972972,46.3577421 L50.1974072,53.5106195 L41.5465739,58.5051635 Z M49.4429261,57.5829465 C49.4429261,58.7517044 48.8650959,59.7389686 48.1811651,59.7389686 C47.4972343,59.7389686 46.9194041,58.7517044 46.9194041,57.5829465 C46.9194041,56.4141887 47.4972343,55.4269245 48.1811651,55.4269245 C48.8650959,55.4269245 49.4429261,56.4141887 49.4429261,57.5829465 L49.4429261,57.5829465 Z M34.8770928,62.356044 L25.4756305,56.9279623 L25.5030362,56.6271604 C25.5145928,56.4986069 25.520206,56.3776478 25.520206,56.2575692 C25.520206,55.3526321 25.2211651,54.5234182 24.720489,54.0396918 L24.2722028,53.6067044 L25.9605676,52.6184497 L32.5363852,56.4120975 C32.5723758,56.4327893 32.6132091,56.4437956 32.6545928,56.4437956 C32.6888223,56.4437956 32.7225016,56.4363113 32.7535393,56.4221132 L32.7559607,56.4202421 L32.7824858,56.4064843 L34.8770928,55.1979937 L41.074184,58.7781195 L34.8770928,62.356044 Z M38.3122657,63.9883868 C38.3122657,65.1570346 37.7343255,66.1444088 37.0502846,66.1444088 C36.3663538,66.1444088 35.7885236,65.1570346 35.7885236,63.9883868 C35.7885236,62.819739 36.3663538,61.8322547 37.0502846,61.8322547 C37.7343255,61.8322547 38.3122657,62.819739 38.3122657,63.9883868 L38.3122657,63.9883868 Z M22.6248915,55.2821918 L22.8208035,54.8850849 C23.0664638,54.3871604 23.4181148,54.1016572 23.7856148,54.1016572 C24.3658664,54.1016572 24.8828318,54.8083711 25.0150173,55.7822075 L25.1443412,56.736673 L22.6248915,55.2821918 Z M24.7811336,57.5670975 C24.5386651,58.0971604 24.1665425,58.4137013 23.7855047,58.4137013 C23.1901745,58.4137013 22.6571399,57.6561384 22.5456462,56.6514843 L22.4428475,55.7228836 L24.9599858,57.176044 L24.7811336,57.5670975 Z M19.7930833,48.5146447 L25.9781777,44.9437642 L32.4200487,48.6523333 L32.4182877,55.7983868 L19.7930833,48.5146447 Z M19.5426903,41.2386069 L25.5047972,44.6712484 L19.5557877,48.1058711 L19.5426903,41.2386069 Z M38.9805676,27.2342044 L36.8877217,38.099173 L25.9778475,44.3980723 L19.7439953,40.8091415 L38.9805676,27.2342044 Z M32.6434764,48.2357453 L26.451228,44.6705881 L37.0993726,38.5229151 L42.2180676,41.4781038 L32.6434764,48.2357453 Z M32.8926588,48.6381352 L42.6688852,41.7384025 L49.9608821,45.9484182 L32.8910079,55.7981667 L32.8926588,48.6381352 Z M39.4929104,27.0734025 L52.2180519,34.4204308 L42.6433506,41.1778522 L37.3631934,38.1293302 L39.4929104,27.0734025 Z M57.2191997,29.0653208 L43.8848601,21.3646604 C43.8488695,21.3439686 43.8080362,21.3329623 43.7664324,21.3329623 C43.7250487,21.3329623 43.6839953,21.3439686 43.6482248,21.3646604 L41.4257248,22.6500849 C41.3899544,22.6706667 41.3602374,22.7006038 41.3394355,22.7364843 L39.1448915,26.5398176 L19.1693569,40.6362327 C19.1072814,40.6800377 19.0703003,40.7524591 19.0705204,40.8297233 L19.0700802,41.3033239 L19.0690896,41.3033239 L19.0690896,48.515195 C19.0691997,48.5915786 19.1226903,48.6735755 19.2020456,48.7193616 L25.4892783,52.3464843 L21.4231148,54.7261541 C21.3506934,54.7686384 21.3058978,54.8470031 21.306228,54.9309811 C21.3064481,55.014739 21.351794,55.0928836 21.4242154,55.1348176 L22.1050645,55.5277421 L22.0729261,55.8331667 C22.0582877,55.972066 22.0508035,56.1148176 22.0508035,56.2575692 C22.0508035,57.7069874 22.8290582,58.8863113 23.7855047,58.8863113 C24.3287752,58.8863113 24.8298915,58.5144088 25.1605204,57.8661384 L25.3866997,57.4223648 L34.7588852,62.8334969 C34.7908035,62.8519874 34.826794,62.8625535 34.8636651,62.8647547 L35.4388538,62.8531981 L35.3578475,63.4056038 C35.3298915,63.5956824 35.3156934,63.7918145 35.3156934,63.9882767 C35.3156934,65.437695 36.093728,66.6170189 37.0502846,66.6170189 C38.0066211,66.6170189 38.7847657,65.437695 38.7847657,63.9882767 C38.7847657,63.0955566 38.4919984,62.2727264 38.0016682,61.7870189 L37.561967,61.3513899 L46.5970299,56.1349591 L46.4783821,57.0789686 C46.45725,57.2467044 46.4465739,57.4162013 46.4465739,57.5828365 C46.4465739,59.0322547 47.2246085,60.2115786 48.181055,60.2115786 C49.1375016,60.2115786 49.9155362,59.0322547 49.9155362,57.5828365 C49.9155362,56.6823019 49.6188066,55.8553994 49.1219827,55.3710126 L48.6751274,54.9352736 L50.5518097,53.8515943 C50.6246714,53.8095503 50.6700173,53.7310755 50.6700173,53.6470975 L50.6700173,45.9709811 L52.8806305,34.4841572 L55.0514009,30.7262799 L57.2190896,29.4748648 C57.2920613,29.4327107 57.3374072,29.3542358 57.3374072,29.2700377 C57.3374072,29.1859497 57.2920613,29.1074748 57.2191997,29.0653208 L57.2191997,29.0653208 Z" id="Fill-35" fill="#173D7A" mask="url(#mask-2)"></path>
                <polygon id="Fill-36" fill="#E5EFF7" mask="url(#mask-2)" points="46.9193601 38.7385943 38.9805236 44.341456 43.8232909 49.489978 50.1973632 45.8181698 51.5806336 38.7385943"></polygon>
                <polygon id="Fill-37" fill="#229DCA" mask="url(#mask-2)" points="22.4428255 42.908305 29.5571808 47.0413868 22.4428255 50.0432421 19.5426682 48.3820629 19.5919764 43.5987296"></polygon>
                <polygon id="Fill-38" fill="#E7F6F8" mask="url(#mask-2)" points="24.9599858 53.2041274 22.0466211 54.9387186 25.4757406 56.9279953 26.7963852 55.0660613"></polygon>
                <polygon id="Fill-39" fill="#E7F6F8" mask="url(#mask-2)" points="42.773511 57.7968868 38.9805236 59.9868082 34.3345487 55.4190881 37.0503506 53.943805"></polygon>
            </g>
        </g>
    </g>
</svg>