<?xml version="1.0" encoding="UTF-8"?>
<svg width="53px" height="59px" viewBox="0 0 53 59" version="1.1" xmlns="http://www.w3.org/2000/svg" xmlns:xlink="http://www.w3.org/1999/xlink">
    <!-- Generator: sketchtool 41.2 (35397) - http://www.bohemiancoding.com/sketch -->
    <title>00321E17-7B4E-48E7-869B-766015D15F59</title>
    <desc>Created with sketchtool.</desc>
    <defs>
        <polygon id="path-1" points="0 70 70 70 70 0 0 0"></polygon>
    </defs>
    <g id="Page-1" stroke="none" stroke-width="1" fill="none" fill-rule="evenodd">
        <g id="NEXT-ORBIT-LANDING-PAGE-V002" transform="translate(-95.000000, -1626.000000)">
            <g id="Page-1" transform="translate(84.000000, 1622.000000)">
                <path d="M62.2904686,35.0513443 C61.8382201,35.0513443 61.4701698,35.4193947 61.4701698,35.8716431 C61.4701698,36.3240016 61.8382201,36.6920519 62.2904686,36.6920519 C62.742827,36.6920519 63.1107673,36.3240016 63.1107673,35.8716431 C63.1107673,35.4193947 62.742827,35.0513443 62.2904686,35.0513443 Z M62.2904686,37.0240016 C61.6551855,37.0240016 61.1381101,36.5071462 61.1381101,35.8716431 C61.1381101,35.2363601 61.6551855,34.7192846 62.2904686,34.7192846 C62.9258616,34.7192846 63.442827,35.2363601 63.442827,35.8716431 C63.442827,36.5071462 62.9258616,37.0240016 62.2904686,37.0240016 Z" id="Fill-1" fill="#229DCA"></path>
                <path d="M36.4246211,40.1393868 C42.6295267,39.5121384 61.2396211,41.3565723 56.7902186,47.4400786 C53.0831903,52.5085849 38.6885047,58.4531918 34.578206,59.0881447 C30.2603286,59.7552358 17.9495739,57.0486792 15.0055016,51.9261321 C11.8595739,46.4523742 31.729228,40.6140881 36.4246211,40.1393868" id="Fill-3" fill="#E7F6F8"></path>
                <path d="M43.8552642,62.9065016 C36.9891006,62.5303066 13.7369937,56.7383569 14.6410503,49.9567217 C15.3942107,44.3067531 28.1201226,39.5607311 32.5120723,39.5351965 C37.1255786,39.5084513 53.5677642,45.2003538 60.6926855,52.1630425 C68.3063962,59.6029638 49.0511132,63.1913443 43.8552642,62.9065016" id="Fill-5" fill="#C3E5EB"></path>
                <path d="M24.9957013,17.4130173 C24.9957013,18.3159733 24.263783,19.0478915 23.360827,19.0478915 C22.4578711,19.0478915 21.7259528,18.3159733 21.7259528,17.4130173 C21.7259528,16.5100613 22.4578711,15.7781431 23.360827,15.7781431 C24.263783,15.7781431 24.9957013,16.5100613 24.9957013,17.4130173" id="Fill-7" fill="#C3E5EB"></path>
                <path d="M13.9612579,32.9202736 C13.9612579,33.431956 13.5463208,33.846783 13.0346384,33.846783 C12.523066,33.846783 12.1081289,33.431956 12.1081289,32.9202736 C12.1081289,32.4085912 12.523066,31.9937642 13.0346384,31.9937642 C13.5463208,31.9937642 13.9612579,32.4085912 13.9612579,32.9202736" id="Fill-9" fill="#229DCA"></path>
                <path d="M51.5189214,11.7340252 C51.5189214,12.3082233 51.0534654,12.7735692 50.4794874,12.7735692 C49.9052893,12.7735692 49.4398333,12.3082233 49.4398333,11.7340252 C49.4398333,11.1599371 49.9052893,10.6945912 50.4794874,10.6945912 C51.0534654,10.6945912 51.5189214,11.1599371 51.5189214,11.7340252" id="Fill-11" fill="#E7F6F8"></path>
                <path d="M13.5149858,19.0479465 C13.5149858,19.6220346 13.0495299,20.0873805 12.4754418,20.0873805 C11.9013538,20.0873805 11.4358978,19.6220346 11.4358978,19.0479465 C11.4358978,18.4737484 11.9013538,18.0084025 12.4754418,18.0084025 C13.0495299,18.0084025 13.5149858,18.4737484 13.5149858,19.0479465" id="Fill-13" fill="#E7F6F8"></path>
                <mask id="mask-2" fill="white">
                    <use xlink:href="#path-1"></use>
                </mask>
                <g id="Clip-16"></g>
                <polygon id="Fill-15" fill="#173D7A" mask="url(#mask-2)" points="21.1225 8.45624214 21.9823113 8.45624214 21.9823113 4.83946541 21.1225 4.83946541"></polygon>
                <polygon id="Fill-17" fill="#173D7A" mask="url(#mask-2)" points="19.7440723 7.0777044 23.360739 7.0777044 23.360739 6.21789308 19.7440723 6.21789308"></polygon>
                <polygon id="Fill-18" fill="#173D7A" mask="url(#mask-2)" points="59.7529245 20.9178931 60.2850786 20.9178931 60.2850786 18.6796541 59.7529245 18.6796541"></polygon>
                <polygon id="Fill-19" fill="#173D7A" mask="url(#mask-2)" points="58.899827 20.0647956 61.1381761 20.0647956 61.1381761 19.5327516 58.899827 19.5327516"></polygon>
                <path d="M44.7546761,42.5878569 L44.6287642,42.3858915 C44.1858711,41.6748852 44.0441101,40.8334544 44.2297862,40.0165676 L44.3087013,39.6696494 C44.4842516,38.8974481 44.2318774,38.0836431 43.650195,37.546206 L43.4280881,37.3411588 C42.7900535,36.751772 42.4202421,35.9155142 42.4134182,35.0467877 L42.4106667,34.7157186 C42.4045031,33.9391148 41.9850535,33.2121494 41.3155409,32.8186745 L41.0301478,32.6509387 C40.2812799,32.2106871 39.7419717,31.4722752 39.5505723,30.6249009 L39.4839843,30.3302626 C39.3094245,29.5576211 38.731044,28.9323538 37.9743616,28.6981399 L37.6343774,28.5928097 C36.8341101,28.3452783 36.1763742,27.8017877 35.7821289,27.0627154 L35.6699748,26.8526053 C35.2737484,26.1101211 34.4746918,25.6488475 33.6333711,25.6784544 L33.2024748,25.693423 C32.5258082,25.7174167 31.8465,25.5169921 31.2902421,25.1303412 L31.2873805,25.1283601 C30.4414371,24.5388632 29.312522,24.6056714 28.5419717,25.2908129 L28.3218459,25.4865047 C27.9993616,25.7734387 27.6280094,25.9878412 27.2182453,26.1237689 L26.9385755,26.2165519 C25.9600063,26.5412374 25.3377107,27.485577 25.4253208,28.5129041 C25.4828836,29.1890204 25.3167987,29.8782343 24.9572233,30.4538632 L24.7287327,30.8194921 C24.282978,31.5333601 24.2823176,32.4560173 24.7273019,33.1704355 L24.8532138,33.3722909 C25.2961069,34.0832972 25.4377579,34.924728 25.2521918,35.7416148 L25.1732767,36.0883129 C24.9977264,36.8607343 25.2501006,37.6744292 25.8318931,38.2118664 L26.0538899,38.4169135 C26.6919245,39.0063003 27.0617358,39.8426682 27.0686698,40.7111745 L27.0712013,41.0423538 C27.0774748,41.8189575 27.4970346,42.5458129 28.1665472,42.9393978 L28.4518302,43.1071336 C29.2006981,43.5474953 29.7400063,44.2859072 29.9314057,45.1332814 L29.9981038,45.4279198 C30.1726635,46.2003412 30.7511541,46.8258286 31.5077264,47.0599324 L31.8478208,47.1651525 C32.647978,47.412794 33.3058239,47.9561745 33.7001792,48.6952469 L33.8122233,48.9053569 C34.2083396,49.6479513 35.0080566,50.1090047 35.848827,50.0793978 L36.2796132,50.0645393 C36.958261,50.0405456 37.6378994,50.2415204 38.1945975,50.6294921 L38.1965786,50.6308129 C39.0424119,51.218989 40.1701164,51.1516305 40.9401164,50.4671494 L41.1602421,50.2713475 C41.4827264,49.9844135 41.8540786,49.770011 42.2637327,49.6341934 L42.5435126,49.5413003 C43.5220818,49.2165047 44.1443774,48.2721651 44.0567673,47.2451682 C43.9990943,46.5691619 44.1653994,45.8798381 44.5247547,45.3044292 L44.7532453,44.9385802 C45.199,44.2248223 45.1996604,43.302055 44.7546761,42.5878569" id="Fill-20" fill="#229DCA" mask="url(#mask-2)"></path>
                <path d="M47.1126525,40.9432531 C46.6690991,40.230706 46.5276682,39.3893852 46.7136745,38.5731588 L46.7919292,38.2272311 C46.9679198,37.4542594 46.7157657,36.6403443 46.1338632,36.102577 L45.9121965,35.8983003 C45.2732814,35.3078129 44.9036903,34.471445 44.8973066,33.6032689 L44.8946651,33.2724198 C44.8885016,32.495816 44.4688318,31.7690708 43.7993192,31.3754858 L43.5142563,31.2078601 C42.7649481,30.7676085 42.2254198,30.0289764 42.0340204,29.1816022 L41.9677626,28.8865236 C41.7930928,28.1144324 41.2143821,27.488945 40.4576997,27.2547311 L40.1174953,27.1492909 C39.3176682,26.9017594 38.6598223,26.3582689 38.265467,25.6191965 L38.1536431,25.4102972 C37.751033,24.6552657 36.9712374,24.204228 36.1170393,24.2350456 L35.6857028,24.2500142 C35.0142091,24.2734575 34.3415047,24.0767752 33.7876682,23.6961777 C33.781945,23.6925456 33.7762217,23.6886934 33.7706085,23.6847311 C33.1335645,23.2408475 32.2978569,23.163033 31.5893821,23.4818852 C31.5219135,23.5131431 31.2389418,23.6728443 30.8431557,23.9006745 C31.1845708,23.9937877 31.5151997,24.1455645 31.8200739,24.3574355 C31.8209544,24.358206 31.822055,24.3587563 31.8231557,24.3595267 C32.2147594,24.6323726 32.6924324,24.7735833 33.1699953,24.7569638 L33.6008915,24.7419953 C34.7956242,24.7003915 35.9333443,25.3555959 36.4964261,26.4113192 L36.6085802,26.6213192 C36.8859387,27.1412563 37.348533,27.5232846 37.9112846,27.6975142 L38.251489,27.8028443 C39.3272437,28.1357846 40.1495236,29.0248726 40.3977154,30.1231903 L40.4643035,30.4178286 C40.5989104,31.0138192 40.9782972,31.533316 41.5050582,31.842923 L41.7903412,32.0106588 C42.7421651,32.5702186 43.338706,33.6035991 43.347511,34.7078601 L43.3500425,35.0388192 C43.3548852,35.6498884 43.6150739,36.2380645 44.0639104,36.6527814 L44.2857972,36.8577186 C45.1130299,37.6218852 45.4718349,38.7787563 45.2221022,39.8768538 L45.1432972,40.2236619 C45.0126525,40.7981903 45.1123695,41.3899984 45.4238475,41.8901242 L45.5497594,42.0919796 C46.182511,43.1076399 46.1816305,44.4195896 45.5476682,45.4343695 L45.3192877,45.8001085 C45.0664733,46.2049198 44.9496965,46.6896368 44.9900896,47.1652186 C45.020577,47.523033 44.9895393,47.8733632 44.9063318,48.2057531 C45.4204355,47.8933947 45.8036745,47.6481745 45.8944764,47.5644167 C46.3598223,47.1016022 46.5960173,46.4585047 46.5402154,45.8019796 C46.5326211,45.7176714 46.5288789,45.6292909 46.5288789,45.5339764 C46.5288789,44.9416179 46.6947437,44.3630173 47.008423,43.8610204 L47.2368035,43.4952814 C47.6828884,42.7816336 47.6835487,41.8589764 47.2386745,41.1446682 L47.1126525,40.9432531 Z" id="Fill-21" fill="#E5EFF7" mask="url(#mask-2)"></path>
                <path d="M47.2367925,43.4953365 L47.0084119,43.8609654 C46.6947327,44.3630723 46.5288679,44.941673 46.5288679,45.5339214 C46.5288679,45.6293459 46.5327201,45.7176164 46.5402044,45.8020346 C46.5960063,46.4585597 46.3598113,47.1016572 45.8944654,47.5644717 C45.8036635,47.6481195 45.4204245,47.8934497 44.9063208,48.2058082 C44.9895283,47.8733082 45.020566,47.5230881 44.9900786,47.1652736 C44.9496855,46.6895818 45.0664623,46.2048648 45.3192767,45.8000535 L45.5476572,45.4343145 C46.1816195,44.4195346 46.1825,43.107695 45.5497484,42.0920346 L45.4238365,41.8900692 C45.1123585,41.3899434 45.0126415,40.7981352 45.1432862,40.2236069 L45.2220912,39.8767987 C45.4718239,38.7787013 45.1130189,37.6219403 44.2857862,36.8576635 L44.0638994,36.6527264 C43.6150629,36.2381195 43.3548742,35.6499434 43.3501415,35.0388742 L43.3475,34.707805 C43.338695,33.6036541 42.7421541,32.5701635 41.7903302,32.0106038 L41.5050472,31.842978 C40.9782862,31.533261 40.5988994,31.0138742 40.4642925,30.4178836 L40.3977044,30.1232453 C40.1495126,29.0248176 39.3272327,28.1357296 38.251478,27.8028994 L37.9112736,27.6975692 C37.348522,27.5233396 36.8859277,27.1412013 36.6086792,26.6213742 L36.4964151,26.4112642 C35.9333333,25.3556509 34.7956132,24.7003365 33.6008805,24.7419403 L33.1699843,24.7569088 C32.6924214,24.7735283 32.2147484,24.6323176 31.8231447,24.3595818 C31.822044,24.3588113 31.8210535,24.3581509 31.8200629,24.3573805 C31.5151887,24.1455094 31.1845597,23.9937327 30.8431447,23.9007296 C31.2389308,23.6727893 31.5219025,23.5130881 31.5893711,23.4818302 C32.297956,23.1630881 33.1335535,23.2409025 33.7705975,23.6847862 C33.7762107,23.6887484 33.781934,23.6924906 33.7876572,23.6961226 C34.3414937,24.0767201 35.0141981,24.2734025 35.6856918,24.2500692 L36.1170283,24.2351006 C36.9712264,24.204283 37.751022,24.6552107 38.1536321,25.4103522 L38.265456,25.6191415 C38.6598113,26.3583239 39.3176572,26.9017044 40.1174843,27.1492358 L40.4576887,27.2546761 C41.2143711,27.4888899 41.7930818,28.1144874 41.9677516,28.8865786 L42.0340094,29.1815472 C42.2254088,30.0289214 42.7649371,30.7675535 43.5142453,31.207805 L43.7994182,31.3755409 C44.4689308,31.7690157 44.8884906,32.4958711 44.8946541,33.2723648 L44.8972956,33.6032138 C44.9036792,34.4715 45.2732704,35.3077579 45.9121855,35.8983553 L46.1338522,36.102522 C46.7157547,36.6403994 46.9679088,37.4542044 46.7919182,38.2272862 L46.7136635,38.5731038 C46.5276572,39.3893302 46.6690881,40.230761 47.1126415,40.9433082 L47.2386635,41.1447233 C47.6835377,41.8590314 47.6828774,42.7816887 47.2367925,43.4953365 L47.2367925,43.4953365 Z M44.5247327,45.3044403 C44.1653774,45.8798491 43.9990723,46.569173 44.0567453,47.2451792 C44.1443553,48.2721761 43.5220597,49.2164057 42.5434906,49.5413113 L42.2637107,49.6340943 C41.8540566,49.770022 41.4828145,49.9844245 41.1602201,50.2712484 L40.9400943,50.4671604 C40.1700943,51.1516415 39.0423899,51.219 38.1965566,50.6308239 L38.1946855,50.6295031 C37.6378774,50.2415314 36.958239,50.0405566 36.2795912,50.0645503 L35.848805,50.0794088 C35.0081447,50.1090157 34.2083176,49.6478522 33.8122013,48.9053679 L33.7001572,48.6952579 C33.3059119,47.9561855 32.647956,47.412805 31.8479088,47.1651635 L31.5077044,47.0599434 C30.7511321,46.8258396 30.1726415,46.2003522 29.9980818,45.4279308 L29.9314937,45.1332925 C29.7399843,44.2859182 29.2006761,43.5475063 28.4518082,43.1071447 L28.1665252,42.9394088 C27.4970126,42.5458239 27.0774528,41.8189686 27.0711792,41.0423648 L27.0686478,40.7111855 C27.0617138,39.8426792 26.6919025,39.0063113 26.0538679,38.4168145 L25.8318711,38.2118774 C25.2500786,37.6744403 24.9977044,36.8607453 25.1732547,36.0883239 L25.2521698,35.7416258 C25.4377358,34.924739 25.2960849,34.0833082 24.8531918,33.3721918 L24.7272799,33.1703365 C24.2822956,32.4560283 24.282956,31.533261 24.7287107,30.8195031 L24.9572013,30.4538742 C25.3167767,29.8782453 25.4829717,29.1890314 25.4252987,28.5129151 C25.3376887,27.4855881 25.9600943,26.5412484 26.9385535,26.2165629 L27.2182233,26.1237799 C27.6279874,25.9878522 27.9993396,25.7733396 28.321934,25.4865157 L28.5420597,25.2908239 C29.3126101,24.6056824 30.4414151,24.5388742 31.2873585,25.1283711 L31.2902201,25.1303522 C31.846478,25.5170031 32.5257862,25.7174277 33.2024528,25.693434 L33.6333491,25.6784654 C34.4746698,25.6488585 35.2738365,26.1101321 35.6699528,26.8526164 L35.7821069,27.0627264 C36.1763522,27.8017987 36.8340881,28.3452893 37.6343553,28.5928208 L37.9744497,28.6981509 C38.731022,28.9323648 39.3095126,29.5576321 39.4840723,30.3302736 L39.5505503,30.6249119 C39.7419497,31.4722862 40.2813679,32.2106981 41.0301258,32.6509497 L41.3155189,32.8186855 C41.9850314,33.2121604 42.4045912,33.9391258 42.4106447,34.7156195 L42.4133962,35.0467987 C42.4202201,35.9155252 42.7901415,36.751783 43.4281761,37.3411698 L43.650173,37.546217 C44.2318553,38.0836541 44.4842296,38.8974591 44.3086792,39.6696604 L44.2298742,40.0165786 C44.0440881,40.8333553 44.1858491,41.6748962 44.6288522,42.3859025 L44.7546541,42.5878679 C45.1996384,43.302066 45.198978,44.2248333 44.7533333,44.9385912 L44.5247327,45.3044403 Z M47.9072956,40.4475849 C47.5957075,39.9469088 47.4959906,39.3552107 47.6270755,38.7805723 L47.7053302,38.4346447 C47.9553931,37.3365472 47.5968082,36.1793459 46.7691352,35.4141887 L46.5472484,35.210022 C46.0984119,34.7949748 45.8383333,34.2067987 45.8339308,33.5960597 L45.8311792,33.2648805 C45.8224843,32.1609497 45.2258333,31.1275692 44.2740094,30.5680094 L43.9887264,30.4002736 C43.4617453,30.0906667 43.0822484,29.5712799 42.9478616,28.9757296 L42.8814937,28.6804308 C42.6330818,27.5822233 41.8104717,26.6930252 40.7350472,26.3599748 L40.3948428,26.2545346 C39.8319811,26.080305 39.3693868,25.6981667 39.0915881,25.1776792 L38.9797642,24.9687799 C38.4165723,23.9126164 37.2800629,23.2571918 36.0846698,23.2990157 L35.6532233,23.3138742 C35.1764308,23.3304937 34.6986478,23.189283 34.3068239,22.916327 C34.3014308,22.9124748 34.2957075,22.9087327 34.2899843,22.9052107 C33.3863679,22.2835755 32.2061635,22.1770346 31.2050314,22.6276321 C30.9765409,22.7304308 28.1073113,24.4236384 27.9197642,24.5903836 L27.6996384,24.7861855 C27.4727987,24.9879308 27.2116195,25.138717 26.9233648,25.2343616 L26.6435849,25.3271447 C25.2523899,25.7889686 24.3675943,27.1315157 24.4921855,28.5921604 C24.5326887,29.0677421 24.4156918,29.5524591 24.1628774,29.9573805 L23.9343868,30.3230094 C23.3005346,31.3377893 23.2997642,32.649739 23.9324057,33.6653994 L24.0582075,33.8672547 C24.3696855,34.3673805 24.4694025,34.9591887 24.3387579,35.533717 L24.2599528,35.8805252 C24.0104403,36.9786226 24.3691352,38.1356038 25.1962579,38.8996604 L25.4182547,39.1045975 C25.8670912,39.5193145 26.1271698,40.1074906 26.1320126,40.7185597 L26.134544,41.0496289 C26.1433491,42.1537799 26.7398899,43.1870503 27.6918239,43.7467201 L27.9771069,43.914456 C28.5038679,44.2240629 28.8830346,44.7435597 29.0178616,45.3395503 L29.0843396,45.6341887 C29.3324214,46.7325063 30.1549214,47.6217044 31.2306761,47.9546447 L31.5706604,48.0598648 C32.133522,48.2340943 32.5962264,48.6162327 32.8735849,49.1360597 L32.985739,49.3460597 C33.5488208,50.401783 34.6857704,51.0567673 35.8811635,51.0153836 L36.3120597,51.0004151 C36.7880818,50.9836855 37.2659748,51.124566 37.6572484,51.3966415 C37.6579088,51.3970818 37.6585692,51.397522 37.6590094,51.3979623 C38.2064623,51.7794403 38.8370126,51.9676478 39.4651415,51.9676478 C40.2170912,51.9675377 40.9654088,51.6976635 41.5622799,51.1669403 L41.7822956,50.9713585 C42.0093553,50.7696132 42.2704245,50.618827 42.5586792,50.5231824 L42.8383491,50.4302893 C43.0847799,50.3485126 46.2534906,48.5280723 46.5524214,48.2307925 C47.2169811,47.5700849 47.5525629,46.6560126 47.4729874,45.7211384 C47.4679245,45.662695 47.4653931,45.6016101 47.4653931,45.5339214 C47.4653931,45.1172233 47.5819497,44.7104308 47.8026258,44.357239 L48.0308962,43.9917201 C48.6652987,42.9769403 48.6661792,41.6649906 48.0330975,40.6487799 L47.9072956,40.4475849 Z" id="Fill-22" fill="#173D7A" mask="url(#mask-2)"></path>
                <path d="M34.431228,43.0142406 L34.3901745,41.7123066 C33.7980362,41.292967 33.1787123,40.6407343 32.8114324,40.0731399 L33.0290267,39.3776525 C33.4059921,39.9394135 33.9440896,40.5485016 34.5154261,40.9408758 C35.2396399,41.4383601 35.7125802,41.2464104 35.6893569,40.5116305 C35.6670142,39.8026053 35.2552689,39.0911588 34.4882406,38.1860016 C33.4314167,36.9557186 32.7700487,35.9214575 32.7346085,34.7999167 C32.7007091,33.7299953 33.2769984,33.3314575 34.2093412,33.7828255 L34.1681777,32.4810016 L34.8005991,32.9154198 L34.8401116,34.1656242 C35.4529418,34.6118192 35.8777846,35.1054513 36.1805676,35.5277626 L35.9524072,36.2032186 C35.733272,35.9014261 35.3060079,35.3305299 34.6532248,34.8821336 C33.867816,34.3427154 33.5906777,34.7323381 33.606967,35.2478726 C33.6280991,35.9181557 34.0161808,36.5124953 34.9183664,37.5861588 C35.9860865,38.8492406 36.5378318,39.8839418 36.5740425,41.0310173 C36.6061808,42.0492091 36.0753475,42.617684 35.031511,42.1150267 L35.0738852,43.4555928 L34.431228,43.0142406 Z" id="Fill-23" fill="#E5EFF7" mask="url(#mask-2)"></path>
            </g>
        </g>
    </g>
</svg>