<?xml version="1.0" encoding="UTF-8"?>
<svg width="91px" height="82px" viewBox="0 0 91 82" version="1.1" xmlns="http://www.w3.org/2000/svg" xmlns:xlink="http://www.w3.org/1999/xlink">
    <!-- Generator: sketchtool 41.2 (35397) - http://www.bohemiancoding.com/sketch -->
    <title>84C8F4FE-7B34-4E27-A843-03C35C86D544</title>
    <desc>Created with sketchtool.</desc>
    <defs>
        <polygon id="path-1" points="0 99.9981132 99.9981132 99.9981132 99.9981132 0 0 0"></polygon>
    </defs>
    <g id="Page-1" stroke="none" stroke-width="1" fill="none" fill-rule="evenodd">
        <g id="NEXT-ORBIT-LANDING-PAGE-V002" transform="translate(-737.000000, -2217.000000)">
            <g id="Page-1" transform="translate(730.000000, 2207.000000)">
                <path d="M64.507956,14.1672799 C63.8618868,14.1672799 63.3361006,14.693066 63.3361006,15.3391352 C63.3361006,15.9853616 63.8618868,16.5109906 64.507956,16.5109906 C65.1540252,16.5109906 65.6798113,15.9853616 65.6798113,15.3391352 C65.6798113,14.693066 65.1540252,14.1672799 64.507956,14.1672799 Z M64.507956,16.9853616 C63.6002516,16.9853616 62.8617296,16.2468396 62.8617296,15.3391352 C62.8617296,14.4315881 63.6002516,13.6929088 64.507956,13.6929088 C65.4155031,13.6929088 66.1541824,14.4315881 66.1541824,15.3391352 C66.1541824,16.2468396 65.4155031,16.9853616 64.507956,16.9853616 Z" id="Fill-1" fill="#229DCA"></path>
                <path d="M50.1750629,46.3522327 C61.5914151,45.1981447 95.8330818,48.5915409 87.6462893,59.7850943 C80.8258491,69.1107233 54.3404717,80.0483019 46.7775786,81.2165409 C38.8330818,82.4440566 16.1819811,77.4641824 10.7651572,68.0391824 C4.97679245,57.9677987 41.5359119,47.2256604 50.1750629,46.3522327" id="Fill-3" fill="#E7F6F8"></path>
                <path d="M63.846934,88.2423113 C51.2136006,87.5500157 8.43136792,76.8932547 10.0947327,64.4154245 C11.4804245,54.019827 34.8953616,45.2874371 42.9763365,45.2405818 C51.4648585,45.1912107 81.717217,55.6641667 94.8268082,68.4748585 C108.835299,82.1640094 73.4069969,88.7662107 63.846934,88.2423113" id="Fill-5" fill="#C3E5EB"></path>
                <path d="M35.6325629,13.0035377 C35.6325629,14.2934748 34.5869654,15.3390723 33.2970283,15.3390723 C32.0070912,15.3390723 30.9614937,14.2934748 30.9614937,13.0035377 C30.9614937,11.7137579 32.0070912,10.6680031 33.2970283,10.6680031 C34.5869654,10.6680031 35.6325629,11.7137579 35.6325629,13.0035377" id="Fill-7" fill="#C3E5EB"></path>
                <mask id="mask-2" fill="white">
                    <use xlink:href="#path-1"></use>
                </mask>
                <g id="Clip-10"></g>
                <polygon id="Fill-9" fill="#173D7A" mask="url(#mask-2)" points="9.43349057 45.4210692 10.6617925 45.4210692 10.6617925 40.2542453 9.43349057 40.2542453"></polygon>
                <polygon id="Fill-11" fill="#173D7A" mask="url(#mask-2)" points="7.46415094 43.4517296 12.6309748 43.4517296 12.6309748 42.2234277 7.46415094 42.2234277"></polygon>
                <path d="M11.3074057,22.3140566 C11.3074057,23.0450314 11.9000157,23.6376415 12.6309906,23.6376415 C13.3619654,23.6376415 13.9545755,23.0450314 13.9545755,22.3140566 C13.9545755,21.5830818 13.3619654,20.9904717 12.6309906,20.9904717 C11.9000157,20.9904717 11.3074057,21.5830818 11.3074057,22.3140566" id="Fill-12" fill="#229DCA" mask="url(#mask-2)"></path>
                <path d="M87.4123428,34.9562421 C87.4123428,35.7765252 88.0772799,36.441305 88.8972484,36.441305 C89.7175314,36.441305 90.3824686,35.7765252 90.3824686,34.9562421 C90.3824686,34.1361164 89.7175314,33.4713365 88.8972484,33.4713365 C88.0772799,33.4713365 87.4123428,34.1361164 87.4123428,34.9562421" id="Fill-13" fill="#E7F6F8" mask="url(#mask-2)"></path>
                <polygon id="Fill-14" fill="#173D7A" mask="url(#mask-2)" points="82.3893082 22.5891509 83.1495283 22.5891509 83.1495283 19.3915094 82.3893082 19.3915094"></polygon>
                <polygon id="Fill-15" fill="#173D7A" mask="url(#mask-2)" points="81.1705975 21.3704403 84.368239 21.3704403 84.368239 20.6102201 81.1705975 20.6102201"></polygon>
                <polygon id="Fill-16" fill="#E7F6F8" mask="url(#mask-2)" points="26.1668239 55.4149214 29.9839623 57.6183805 37.1394654 44.713978 33.3224843 42.5102044"></polygon>
                <polygon id="Fill-17" fill="#E7F6F8" mask="url(#mask-2)" points="35.0887107 60.5650472 38.9058491 62.7685063 46.0608805 49.8648899 42.2440566 47.6611164"></polygon>
                <path d="M40.6887421,77.4291824 C40.6888994,77.5615723 40.617673,77.685 40.5032075,77.751195 C40.4466038,77.7838994 40.3822956,77.8010377 40.3172013,77.8010377 C40.2521069,77.8010377 40.1876415,77.7838994 40.1313522,77.7513522 L28.5105975,71.0458491 C28.3958176,70.9796541 28.3247484,70.8565409 28.3247484,70.7239937 L28.3247484,57.5186478 L25.1911006,55.7098428 L25.1944025,72.7420755 L43.819717,83.4980503 L43.819717,66.4629874 L40.6758491,64.6482075 L40.6887421,77.4291824 Z" id="Fill-18" fill="#229DCA" mask="url(#mask-2)"></path>
                <polygon id="Fill-19" fill="#E7F6F8" mask="url(#mask-2)" points="55.303695 55.2013365 51.165173 52.8118711 44.0106132 65.7148585 47.928066 67.9763365"></polygon>
                <polygon id="Fill-20" fill="#E7F6F8" mask="url(#mask-2)" points="29.0680975 70.5095597 39.9449843 76.7858176 39.9324057 64.2188365 29.0680975 57.9477673"></polygon>
                <polygon id="Fill-21" fill="#E7F6F8" mask="url(#mask-2)" points="50.5214623 52.4403931 46.7046384 50.2364623 39.5496069 63.1400786 43.3667453 65.3433805"></polygon>
                <polygon id="Fill-22" fill="#E7F6F8" mask="url(#mask-2)" points="24.9587107 37.6812421 17.5797799 50.4582862 21.062327 52.4685063 28.2179874 39.5631604"></polygon>
                <polygon id="Fill-23" fill="#E7F6F8" mask="url(#mask-2)" points="32.6789308 42.1385849 28.8619497 39.9344969 21.7059748 52.84 25.5232704 55.0433019"></polygon>
                <polygon id="Fill-24" fill="#E7F6F8" mask="url(#mask-2)" points="30.6278459 57.9899057 34.4449843 60.193522 41.600173 47.289434 37.7833491 45.0856604"></polygon>
                <polygon id="Fill-25" fill="#E7F6F8" mask="url(#mask-2)" points="78.4365566 41.7207704 51.8208333 26.3572484 29.7448899 24.536022 29.3121855 25.920456 55.9250786 41.2868082 78.0040094 43.1052044"></polygon>
                <path d="M56.183066,55.0654403 L56.1796069,90.2061635 L82.5549214,74.9784906 L82.5531918,57.967956 L79.4233176,59.7718868 L79.4215881,72.9586792 C79.4215881,73.0910692 79.3505189,73.2141824 79.235739,73.2805346 L59.8673428,84.4626101 C59.810739,84.4951572 59.7465881,84.5122956 59.6814937,84.5122956 C59.6162421,84.5122956 59.5520912,84.4951572 59.4954874,84.4626101 C59.3811792,84.3964151 59.3097956,84.2729874 59.3097956,84.1405975 L59.3130975,61.7780189 C59.3130975,61.6459434 59.3841667,61.522673 59.4989465,61.456478 L78.8601101,50.2784906 C78.9181289,50.2431132 78.9847956,50.2245597 79.0528774,50.2245597 C79.1891981,50.2245597 79.3145126,50.2989308 79.3797642,50.4185849 L82.5517767,55.9319497 L82.5542925,44.2256604 L56.183066,42.053805" id="Fill-26" fill="#E7F6F8" mask="url(#mask-2)"></path>
                <polygon id="Fill-27" fill="#E7F6F8" mask="url(#mask-2)" points="78.9162421 51.1042296 60.1925 61.9141352 63.694544 67.9798585 82.4171855 57.1881918"></polygon>
                <path d="M63.2367296,68.6732862 L60.0560692,63.1643239 L60.0530818,83.4970283 L78.678239,72.7441981 L78.6798113,60.200173 L63.7442767,68.8092925 C63.6867296,68.8424686 63.6247799,68.8592925 63.5596855,68.8592925 C63.4246226,68.8592925 63.3040252,68.7896384 63.2367296,68.6732862" id="Fill-28" fill="#229DCA" mask="url(#mask-2)"></path>
                <polygon id="Fill-29" fill="#E7F6F8" mask="url(#mask-2)" points="51.5629717 44.0995283 29.0680031 31.1119497 29.0680031 34.7267296 51.5629717 47.7141509"></polygon>
                <path d="M28.3247799,30.4685063 C28.3247799,30.3361164 28.3960063,30.2128459 28.5106289,30.1466509 C28.5670755,30.1139465 28.6312264,30.0968082 28.6963208,30.0968082 C28.7614151,30.0968082 28.8257233,30.1139465 28.8820126,30.1464937 L52.1203774,43.5631604 C52.235,43.6293553 52.3060692,43.7526258 52.3060692,43.8850157 L52.3060692,48.3578145 C52.3060692,48.4902044 52.2348428,48.6134748 52.1203774,48.6796698 C52.0637736,48.712217 51.9996226,48.7295126 51.9345283,48.7295126 C51.8695912,48.7295126 51.8054403,48.712217 51.7491509,48.679827 L28.5106289,35.2630031 C28.3958491,35.1968082 28.3247799,35.0735377 28.3247799,34.941305 L28.3247799,30.4685063 Z M25.194434,36.9590723 L55.4398742,54.4216509 L55.4398742,41.8647327 L25.194434,24.400739 L25.194434,36.9590723 Z" id="Fill-30" fill="#229DCA" mask="url(#mask-2)"></path>
                <path d="M52.1202044,65.9376887 C52.234827,66.0038836 52.3062107,66.1269969 52.3062107,66.2592296 L52.3093553,88.4004245 L55.4363994,90.2062421 L55.4397013,56.4524686 L50.5027516,65.0035692 L52.1202044,65.9376887 Z" id="Fill-31" fill="#229DCA" mask="url(#mask-2)"></path>
                <path d="M78.6797799,60.2002201 L78.6782075,72.7440881 L60.0530503,83.4970755 L60.0560377,63.1643711 L63.2366981,68.6733333 C63.3039937,68.7896855 63.4247484,68.8591824 63.5596541,68.8591824 C63.6247484,68.8591824 63.6868553,68.8425157 63.7442453,68.8093396 L78.6797799,60.2002201 Z M63.6945597,67.9799371 L60.1925157,61.9140566 L78.9162579,51.1041509 L82.4172013,57.1882704 L63.6945597,67.9799371 Z M56.1794654,90.206195 L56.1830818,55.0654717 L56.1830818,42.0538365 L82.5543082,44.2255346 L82.5517925,55.9319811 L79.3797799,50.4186164 C79.3145283,50.298805 79.1892138,50.2245912 79.0528931,50.2245912 C78.9846541,50.2245912 78.9181447,50.2431447 78.8599686,50.2783648 L59.4989623,61.4565094 C59.3841824,61.5227044 59.3131132,61.6458176 59.3131132,61.7780503 L59.3098113,84.1406289 C59.3098113,84.2730189 59.381195,84.3964465 59.4955031,84.4626415 C59.5521069,84.4951887 59.6162579,84.512327 59.6815094,84.512327 C59.7466038,84.512327 59.8107547,84.4951887 59.8673585,84.4626415 L79.2357547,73.2804088 C79.3505346,73.2142138 79.4216038,73.0909434 79.4216038,72.9587107 L79.4233333,59.771761 L82.5532075,57.9679874 L82.5549371,74.978522 L56.1794654,90.206195 Z M55.9250629,41.2868553 L29.3121698,25.9203459 L29.7448742,24.5360692 L51.8208176,26.3572956 L78.4365409,41.7208176 L78.0039937,43.1050943 L55.9250629,41.2868553 Z M55.4398428,54.4216038 L25.1944025,36.9591824 L25.1944025,24.4006918 L55.4398428,41.8648428 L55.4398428,54.4216038 Z M55.4363836,90.206195 L52.3093396,88.4005346 L52.306195,66.2591824 C52.306195,66.1269497 52.2348113,66.0038365 52.1201887,65.9376415 L50.5027358,65.003522 L55.4396855,56.4524214 L55.4363836,90.206195 Z M44.5627987,83.9271069 L44.5627987,66.8918868 L47.878522,68.8057233 C47.9357547,68.8387421 47.9980189,68.8557233 48.0631132,68.8557233 C48.1673585,68.8557233 48.3068239,68.8068239 48.3860692,68.669717 L50.1310377,65.6473899 L51.5627987,66.4739623 L51.5661006,87.9714465 L44.5627987,83.9271069 Z M51.1651572,52.8118553 L55.3036792,55.2013208 L47.9280503,67.9763208 L44.0105975,65.7148428 L51.1651572,52.8118553 Z M43.819717,83.4980189 L25.1944025,72.7422013 L25.1911006,55.7098113 L28.3247484,57.5186164 L28.3247484,70.7241195 C28.3247484,70.8565094 28.3958176,70.9797799 28.5105975,71.0459748 L40.1313522,77.7513208 C40.1876415,77.7838679 40.2521069,77.8010063 40.3172013,77.8010063 C40.3822956,77.8010063 40.4466038,77.7838679 40.5032075,77.7511635 C40.617673,77.6849686 40.6888994,77.5615409 40.6887421,77.4291509 L40.6758491,64.6481761 L43.819717,66.462956 L43.819717,83.4980189 Z M29.9840252,57.6183019 L26.1668868,55.4148428 L33.3223899,42.5101258 L37.1395283,44.7140566 L29.9840252,57.6183019 Z M34.4450314,60.1934591 L30.6278931,57.9898428 L37.783239,45.0855975 L41.6002201,47.2895283 L34.4450314,60.1934591 Z M38.9058805,62.7684591 L35.0887421,60.565 L42.2440881,47.6610692 L46.0609119,49.865 L38.9058805,62.7684591 Z M39.9448742,76.7857547 L29.0681447,70.5094969 L29.0681447,57.9478616 L39.9322956,64.2189308 L39.9448742,76.7857547 Z M39.5495912,63.14 L46.7046226,50.2365409 L50.5214465,52.4403145 L43.3667296,65.3434591 L39.5495912,63.14 Z M21.7058805,52.8398428 L28.8618553,39.9344969 L32.6789937,42.1385849 L25.5233333,55.0433019 L21.7058805,52.8398428 Z M17.5797799,50.458239 L24.9587107,37.681195 L28.2179874,39.5631132 L21.062327,52.4684591 L17.5797799,50.458239 Z M83.1110692,43.5621698 L82.7516352,43.353522 L52.1201887,25.671761 C52.0728616,25.6445597 52.0192453,25.6277358 51.965,25.6233333 L25.606195,23.4489623 L25.6060377,23.4508491 L24.8533648,23.3890566 C24.8423585,23.3881132 24.8310377,23.3876415 24.8201887,23.3876415 C24.753522,23.3876415 24.6918868,23.4038365 24.6370126,23.4354403 C24.5225472,23.5016352 24.4511635,23.6249057 24.4511635,23.7572956 L24.4511635,37.0741195 L16.7502201,50.4085535 C16.7006918,50.4944025 16.6874843,50.5945597 16.7132704,50.6906289 C16.7388994,50.7865409 16.8003774,50.8667296 16.8863836,50.9162579 L24.4477044,55.2808805 L24.4510063,72.9569811 C24.4510063,73.0892138 24.5222327,73.212327 24.6368553,73.278522 L55.6220755,91.171761 C55.678522,91.2043082 55.742673,91.2214465 55.8077673,91.2214465 C55.8728616,91.2214465 55.937327,91.2041509 55.9939308,91.1716038 L83.1120126,75.5146855 C83.2266352,75.4486478 83.2977044,75.3253774 83.2977044,75.1929874 L83.2977044,43.8837107 C83.2978616,43.7521069 83.2263208,43.6286792 83.1110692,43.5621698 L83.1110692,43.5621698 Z" id="Fill-32" fill="#173D7A" mask="url(#mask-2)"></path>
                <path d="M29.067956,31.1120283 L51.5629245,44.0996069 L51.5629245,47.7142296 L29.067956,34.7266509 L29.067956,31.1120283 Z M28.510566,35.2629717 L51.7490881,48.6797956 C51.8053774,48.7123428 51.8696855,48.7294811 51.9346226,48.7294811 C51.999717,48.7294811 52.0638679,48.7123428 52.1203145,48.6796384 C52.2349371,48.6136006 52.3061635,48.490173 52.3061635,48.3579403 L52.3061635,43.8849843 C52.3061635,43.7527516 52.2350943,43.6293239 52.1203145,43.5631289 L28.8819497,30.1464623 C28.8256604,30.1139151 28.7615094,30.0967767 28.6964151,30.0967767 C28.6313208,30.0967767 28.5670126,30.1139151 28.510566,30.1466195 C28.3961006,30.2128145 28.324717,30.3360849 28.324717,30.4684748 L28.324717,34.9412736 C28.324717,35.0735063 28.3959434,35.1967767 28.510566,35.2629717 L28.510566,35.2629717 Z" id="Fill-33" fill="#173D7A" mask="url(#mask-2)"></path>
                <path d="M50.1309906,65.647327 L48.386022,68.6698113 C48.3067767,68.8069182 48.1674686,68.8556604 48.0632233,68.8556604 C47.9981289,68.8556604 47.9357075,68.8388365 47.8784748,68.8058176 L44.5627516,66.8918239 L44.5627516,83.9272013 L51.5660535,87.9713836 L51.5627516,66.4740566 L50.1309906,65.647327 Z" id="Fill-34" fill="#E7F6F8" mask="url(#mask-2)"></path>
            </g>
        </g>
    </g>
</svg>