<?xml version="1.0" encoding="UTF-8"?>
<svg width="89px" height="88px" viewBox="0 0 89 88" version="1.1" xmlns="http://www.w3.org/2000/svg" xmlns:xlink="http://www.w3.org/1999/xlink">
    <!-- Generator: sketchtool 41.2 (35397) - http://www.bohemiancoding.com/sketch -->
    <title>0E3F14DD-800F-4013-9176-43C90D00964B</title>
    <desc>Created with sketchtool.</desc>
    <defs>
        <polygon id="path-1" points="0 99.9981132 99.9981132 99.9981132 99.9981132 0 0 0"></polygon>
    </defs>
    <g id="Page-1" stroke="none" stroke-width="1" fill="none" fill-rule="evenodd">
        <g id="NEXT-ORBIT-LANDING-PAGE-V002" transform="translate(-1015.000000, -2211.000000)">
            <g id="Page-1" transform="translate(1011.000000, 2207.000000)">
                <path d="M45.1508648,50.7862264 C56.567217,49.6319811 90.8087264,53.0255346 82.6220912,64.2190881 C75.8014937,73.544717 49.3162736,84.4822956 41.7533805,85.6505346 C33.8087264,86.8780503 11.157783,81.8980189 5.74095912,72.4730189 C-0.0474056604,62.4016352 36.5117138,51.6596541 45.1508648,50.7862264 Z" id="Fill-1" fill="#E7F6F8"></path>
                <path d="M58.0520912,90.2061792 C45.4187579,89.5138836 3.40712264,81.3272484 5.07048742,68.8494182 C6.45633648,58.4536635 29.8712736,49.7214308 37.9520912,49.6745755 C46.4406132,49.6252044 76.6929717,60.0981604 89.8027201,72.908695 C103.811053,86.5978459 67.6121541,90.7300786 58.0520912,90.2061792" id="Fill-3" fill="#C3E5EB"></path>
                <polygon id="Fill-5" fill="#173D7A" points="59.6703302 91.9375786 59.6703302 81.4836478 62.5453302 81.4836478 62.5453302 90.7872642"></polygon>
                <polygon id="Fill-7" fill="#E7F6F8" points="61.9306918 90.3549686 60.3300629 91.0422327 60.1420126 81.955283 61.9306918 81.9947484"></polygon>
                <polygon id="Fill-9" fill="#173D7A" points="36.6050314 78.1474843 36.6050314 67.6935535 39.4800314 67.6935535 39.4800314 76.9971698"></polygon>
                <polygon id="Fill-11" fill="#E7F6F8" points="38.8653931 76.5648585 37.2647642 77.2522799 37.0767138 68.165173 38.8653931 68.2046384"></polygon>
                <path d="M29.7041352,56.0986635 L36.4011478,52.2290094 C36.4618396,52.1939465 36.5277201,52.1761792 36.597217,52.1761792 C36.7115252,52.1761792 36.8200157,52.2255503 36.894544,52.3118711 L43.2355818,59.6291667 L49.6590094,48.5060535 C49.7241038,48.3933176 49.8406132,48.3202044 49.9706447,48.3107704 C49.9799214,48.3099843 49.9893553,48.3095126 49.9986321,48.3095126 C50.1178145,48.3095126 50.2332233,48.3650157 50.3072799,48.4580975 L56.7791352,56.6000786 L63.1744182,52.244261 C63.2572799,52.1879717 63.3399843,52.1761792 63.394544,52.1761792 C63.5255189,52.1761792 63.6475314,52.2403302 63.7209591,52.3480346 C63.8428145,52.5271226 63.7961164,52.7720912 63.6170283,52.8941038 L56.9200157,57.455739 C56.8371541,57.5118711 56.7542925,57.5238208 56.6994182,57.5238208 C56.5785063,57.5238208 56.4659277,57.4697327 56.3910849,57.3753931 L50.0508333,49.3994497 L43.6399843,60.5002358 C43.5766195,60.6101415 43.4632547,60.6829403 43.3369969,60.6948899 C43.3237893,60.6961478 43.3115252,60.6967767 43.2994182,60.6967767 C43.1854245,60.6967767 43.0772484,60.6474057 43.0022484,60.5610849 L36.5132547,53.0722484 L30.0973742,56.7791667 C30.0363679,56.814544 29.9704874,56.8323113 29.9016195,56.8323113 C29.7591667,56.8323113 29.6314937,56.7588836 29.5605818,56.6357704 C29.451934,56.4481918 29.5165566,56.2069969 29.7041352,56.0986635 L29.7041352,56.0986635 Z M26.9412421,58.1445755 L69.7044497,82.8338836 L69.7044497,52.7948899 L26.9410849,28.1082547 L26.9412421,58.1445755 Z" id="Fill-13" fill="#E7F6F8"></path>
                <path d="M23.9874057,21.6235535 L73.643695,50.293522 C73.7649214,50.3634906 73.8402358,50.4938365 73.8402358,50.6339308 L73.8402358,88.6353459 L76.4012421,87.1542138 L76.4037579,48.9266981 L26.5509277,20.1436792 L23.9874057,21.6235535 Z" id="Fill-15" fill="#E7F6F8"></path>
                <path d="M70.4908176,83.5145755 C70.4908176,83.6546698 70.4155031,83.785173 70.2942767,83.8551415 C70.2345283,83.8895755 70.1666038,83.9076572 70.0977358,83.9076572 C70.0288679,83.9076572 69.9609434,83.8895755 69.901195,83.8551415 L26.3515094,58.7117453 C26.2304403,58.6417767 26.1549686,58.5114308 26.1549686,58.3713365 L26.1548113,27.4273113 C26.1548113,27.2873742 26.230283,27.1567138 26.3513522,27.0867453 C26.4109434,27.0524686 26.4790252,27.0342296 26.5478931,27.0342296 C26.6170755,27.0342296 26.685,27.0523113 26.744434,27.0867453 L70.2942767,52.2273113 C70.4155031,52.2972799 70.4908176,52.427783 70.4908176,52.5678774 L70.4908176,83.5145755 Z M23.5942767,22.3046698 L23.5942767,60.0768396 L73.0541824,88.6356447 L73.0540252,50.8608019 L23.5942767,22.3046698 Z" id="Fill-17" fill="#229DCA"></path>
                <path d="M76.4011792,87.1542767 L73.8403302,88.6354088 L73.8403302,50.6338365 C73.8403302,50.4938994 73.7648585,50.3635535 73.6437893,50.2934277 L23.9873428,21.6236164 L26.5508648,20.1437421 L76.4038522,48.926761 L76.4011792,87.1542767 Z M23.594261,60.076761 L23.594261,22.3047484 L73.0540094,50.8608805 L73.0541667,88.6357233 L23.594261,60.076761 Z M76.9936321,48.3596226 L26.7474057,19.3492453 C26.6876572,19.3148113 26.6198899,19.2967296 26.5508648,19.2967296 C26.4819969,19.2967296 26.4140723,19.3148113 26.3543239,19.3492453 L23.0046384,21.2833648 C22.8835692,21.3533333 22.8080975,21.4838365 22.8080975,21.6236164 L22.8080975,60.3036478 C22.8080975,60.4435849 22.8835692,60.5739308 23.0046384,60.6440566 L36.1917453,68.2586792 L36.1917453,77.3967296 C36.1917453,77.6133962 36.3680031,77.7898113 36.584827,77.7898113 C36.8014937,77.7898113 36.9779088,77.6133962 36.9779088,77.3967296 L36.9779088,68.7126101 L59.6703616,81.8157547 L59.6703616,91.3872956 C59.6703616,91.6041195 59.8466195,91.7803774 60.0634434,91.7803774 C60.2802673,91.7803774 60.4565252,91.6041195 60.4565252,91.3872956 L60.4565252,82.2698428 L73.2508648,89.6574214 C73.310456,89.6918553 73.3782233,89.7099371 73.4470912,89.7099371 C73.509827,89.7099371 73.5717767,89.6948428 73.6274371,89.6660692 L73.6420597,89.656478 L73.6647013,89.6451572 L76.9908019,87.7214151 C77.1120283,87.6514465 77.1871855,87.5209434 77.1871855,87.3811635 L77.1900157,48.6998742 C77.1900157,48.5597799 77.1147013,48.429434 76.9936321,48.3596226 L76.9936321,48.3596226 Z" id="Fill-19" fill="#173D7A"></path>
                <path d="M29.9016038,56.8323113 C29.9704717,56.8323113 30.0363522,56.814544 30.0973585,56.7791667 L36.513239,53.0722484 L43.0022327,60.5610849 C43.0772327,60.6474057 43.1854088,60.6967767 43.2994025,60.6967767 C43.3115094,60.6967767 43.3237736,60.6961478 43.3369811,60.6948899 C43.463239,60.6829403 43.5766038,60.6101415 43.6399686,60.5002358 L50.0508176,49.3994497 L56.3910692,57.3753931 C56.4659119,57.4697327 56.5784906,57.5238208 56.6995597,57.5238208 C56.7542767,57.5238208 56.8372956,57.5118711 56.92,57.455739 L63.6170126,52.8941038 C63.7961006,52.7720912 63.8427987,52.5271226 63.7209434,52.3480346 C63.6475157,52.2403302 63.5256604,52.1761792 63.3946855,52.1761792 C63.3399686,52.1761792 63.2574214,52.1879717 63.1744025,52.244261 L56.7791195,56.6000786 L50.3072642,48.4580975 C50.2333648,48.3650157 50.1177987,48.3095126 49.9986164,48.3095126 C49.9893396,48.3095126 49.9799057,48.3099843 49.9706289,48.3107704 C49.8405975,48.3202044 49.7240881,48.3933176 49.6589937,48.5060535 L43.235566,59.6291667 L36.8946855,52.3118711 C36.82,52.2255503 36.7116667,52.1761792 36.5972013,52.1761792 C36.5278616,52.1761792 36.4618239,52.1939465 36.4011321,52.2290094 L29.7041195,56.0986635 C29.5165409,56.2069969 29.4520755,56.4481918 29.560566,56.6357704 C29.631478,56.7588836 29.7591509,56.8323113 29.9016038,56.8323113" id="Fill-21" fill="#173D7A"></path>
                <path d="M69.7044969,82.8338994 L26.9411321,58.1445912 L26.9409748,28.1082704 L69.7044969,52.7949057 L69.7044969,82.8338994 Z M70.2942767,52.2272956 L26.744434,27.0867296 C26.685,27.0522956 26.6170755,27.0342138 26.5478931,27.0342138 C26.4790252,27.0342138 26.4109434,27.0524528 26.3513522,27.0867296 C26.230283,27.1568553 26.1548113,27.2873585 26.1548113,27.4272956 L26.1549686,58.3713208 C26.1549686,58.5114151 26.2304403,58.641761 26.3515094,58.7117296 L69.901195,83.8551258 C69.9609434,83.8895597 70.0288679,83.9076415 70.0977358,83.9076415 C70.1666038,83.9076415 70.2345283,83.8895597 70.2942767,83.8551258 C70.4153459,83.7851572 70.4908176,83.6546541 70.4908176,83.5145597 L70.4908176,52.5678616 C70.4908176,52.4277673 70.4153459,52.2972642 70.2942767,52.2272956 L70.2942767,52.2272956 Z" id="Fill-23" fill="#173D7A"></path>
                <path d="M7.06984277,42.4433648 C7.06984277,43.0895912 7.59562893,43.6152201 8.24185535,43.6152201 C8.88792453,43.6152201 9.41371069,43.0895912 9.41371069,42.4433648 C9.41371069,41.7972956 8.88792453,41.2715094 8.24185535,41.2715094 C7.59562893,41.2715094 7.06984277,41.7972956 7.06984277,42.4433648 M6.59562893,42.4433648 C6.59562893,41.5358176 7.33415094,40.7971384 8.24185535,40.7971384 C9.14955975,40.7971384 9.88808176,41.5358176 9.88808176,42.4433648 C9.88808176,43.3510692 9.14955975,44.0895912 8.24185535,44.0895912 C7.33415094,44.0895912 6.59562893,43.3510692 6.59562893,42.4433648" id="Fill-25" fill="#229DCA"></path>
                <path d="M84.4335535,39.9605031 C84.4335535,41.250283 85.4791509,42.2960377 86.7690881,42.2960377 C88.0590252,42.2960377 89.1046226,41.250283 89.1046226,39.9605031 C89.1046226,38.670566 88.0590252,37.6249686 86.7690881,37.6249686 C85.4791509,37.6249686 84.4335535,38.670566 84.4335535,39.9605031" id="Fill-27" fill="#C3E5EB"></path>
                <path d="M57.4996226,17.2168868 C57.4996226,17.9478616 58.0922327,18.5406289 58.8232075,18.5406289 C59.5541824,18.5406289 60.1467925,17.9478616 60.1467925,17.2168868 C60.1467925,16.4860692 59.5541824,15.8933019 58.8232075,15.8933019 C58.0922327,15.8933019 57.4996226,16.4860692 57.4996226,17.2168868" id="Fill-29" fill="#229DCA"></path>
                <path d="M21.6805031,6.08529874 C21.6805031,6.90558176 22.3454403,7.57036164 23.165566,7.57036164 C23.9856918,7.57036164 24.6506289,6.90558176 24.6506289,6.08529874 C24.6506289,5.26517296 23.9856918,4.60039308 23.165566,4.60039308 C22.3454403,4.60039308 21.6805031,5.26517296 21.6805031,6.08529874" id="Fill-31" fill="#E7F6F8"></path>
                <mask id="mask-2" fill="white">
                    <use xlink:href="#path-1"></use>
                </mask>
                <g id="Clip-34"></g>
                <polygon id="Fill-33" fill="#173D7A" mask="url(#mask-2)" points="5.98144654 31.304717 7.20974843 31.304717 7.20974843 26.1378931 5.98144654 26.1378931"></polygon>
                <polygon id="Fill-35" fill="#173D7A" mask="url(#mask-2)" points="4.01226415 29.3353774 9.17908805 29.3353774 9.17908805 28.1070755 4.01226415 28.1070755"></polygon>
                <polygon id="Fill-36" fill="#173D7A" mask="url(#mask-2)" points="79.7246855 13.318239 80.4849057 13.318239 80.4849057 10.1205975 79.7246855 10.1205975"></polygon>
                <polygon id="Fill-37" fill="#173D7A" mask="url(#mask-2)" points="78.5059748 12.0996855 81.7036164 12.0996855 81.7036164 11.3394654 78.5059748 11.3394654"></polygon>
            </g>
        </g>
    </g>
</svg>