<?xml version="1.0" encoding="UTF-8"?>
<svg width="91px" height="86px" viewBox="0 0 91 86" version="1.1" xmlns="http://www.w3.org/2000/svg" xmlns:xlink="http://www.w3.org/1999/xlink">
    <!-- Generator: sketchtool 41.2 (35397) - http://www.bohemiancoding.com/sketch -->
    <title>2B0E2759-5AC4-40FA-B230-1927AF5DFC63</title>
    <desc>Created with sketchtool.</desc>
    <defs>
        <polygon id="path-1" points="0 99.9981132 99.9981132 99.9981132 99.9981132 0 0 0"></polygon>
    </defs>
    <g id="Page-1" stroke="none" stroke-width="1" fill="none" fill-rule="evenodd">
        <g id="NEXT-ORBIT-LANDING-PAGE-V002" transform="translate(-457.000000, -1969.000000)">
            <g id="Page-1" transform="translate(450.000000, 1962.000000)">
                <path d="M90.4600786,35.7813365 C89.8140094,35.7813365 89.2882233,36.3071226 89.2882233,36.9531918 C89.2882233,37.5994182 89.8140094,38.1250472 90.4600786,38.1250472 C91.106305,38.1250472 91.6320912,37.5994182 91.6320912,36.9531918 C91.6320912,36.3071226 91.106305,35.7813365 90.4600786,35.7813365 Z M90.4600786,38.5994182 C89.5525314,38.5994182 88.8140094,37.8608962 88.8140094,36.9531918 C88.8140094,36.0456447 89.5525314,35.3069654 90.4600786,35.3069654 C91.367783,35.3069654 92.106305,36.0456447 92.106305,36.9531918 C92.106305,37.8608962 91.367783,38.5994182 90.4600786,38.5994182 Z" id="Fill-1" fill="#229DCA"></path>
                <path d="M50.0916667,42.8932075 C61.5081761,41.7389623 95.7495283,45.1325157 87.5628931,56.3260692 C80.7422956,65.6515409 54.2570755,76.5891195 46.6941824,77.7575157 C38.7496855,78.9848742 16.0985849,74.005 10.681761,64.58 C4.89355346,54.5086164 41.4525157,43.7666352 50.0916667,42.8932075" id="Fill-3" fill="#E7F6F8"></path>
                <path d="M63.7635377,84.7831289 C51.1302044,84.0908333 8.3479717,73.4340723 10.0113365,60.9563994 C11.3971855,50.5606447 34.8119654,41.8282547 42.8929403,41.7813994 C51.3814623,41.7321855 81.6338208,52.2049843 94.7434119,65.0156761 C108.751903,78.704827 73.3236006,85.3070283 63.7635377,84.7831289" id="Fill-5" fill="#C3E5EB"></path>
                <polygon id="Fill-7" fill="#C3E5EB" points="33.038522 74.0309591 46.1298742 81.5891352 46.1298742 62.4267138 33.038522 54.8675943"></polygon>
                <path d="M50.0692453,52.4533805 L43.8253774,56.1109277 L46.7294654,56.1277516 C47.9304088,56.1277516 49.1083962,55.8095126 50.1355975,55.2073113 L50.1558805,55.1955189 C50.6201887,54.9235063 50.8936164,54.4425314 50.8895283,53.907783 C50.8881132,53.6933176 50.8354403,53.278066 50.4983333,52.9153302 L50.0692453,52.4533805 Z" id="Fill-9" fill="#C3E5EB"></path>
                <path d="M49.7573899,48.9300786 L49.7303459,48.9461164 C49.2720126,49.214827 48.9992138,49.6948585 49.0025157,50.2294497 C49.0044025,50.4465881 49.0578616,50.8624686 49.3959119,51.2250472 L49.8253145,51.6851101 L56.0650943,48.0297642 L53.1603774,48.0113679 C51.9603774,48.0113679 50.7834906,48.3291352 49.7573899,48.9300786" id="Fill-11" fill="#C3E5EB"></path>
                <path d="M56.8956604,52.1364623 L56.1516352,52.5661792 C56.0907862,52.6012421 56.0252201,52.6190094 55.9563522,52.6190094 C55.8459748,52.6190094 55.6984906,52.5672799 55.6146855,52.4221541 C55.5437736,52.2996698 55.5596541,52.1828459 55.5753774,52.1241981 C55.5911006,52.0653931 55.6357547,51.9562736 55.7585535,51.8853616 L56.5027358,51.4556447 C56.9668868,51.1877201 57.2433019,50.707217 57.2418868,50.1708962 C57.2407862,49.961305 57.1925157,49.5597327 56.8800943,49.2032862 L56.4521069,48.7144497 L50.860283,51.9900786 L51.3118553,52.6812736 C51.5469182,53.0408648 51.6727044,53.4635063 51.6755346,53.9034434 C51.6810377,54.7221541 51.2624843,55.4580031 50.5560377,55.8724686 L50.5360692,55.8839465 C49.3844969,56.5589465 48.0687736,56.9150786 46.7289937,56.9150786 C45.7761635,56.9150786 44.8428302,56.7366195 43.9546226,56.3850472 L43.5984906,56.2438522 L42.5338679,56.8674371 C42.4725472,56.9032862 42.406195,56.9216824 42.3362264,56.9216824 C42.1945597,56.9216824 42.0673585,56.8488836 41.9958176,56.7268711 C41.8999057,56.5628774 41.935283,56.3542296 42.0797799,56.2308019 L42.6060377,55.7819025 L42.2278931,55.2028145 C41.9912579,54.8405503 41.8654717,54.4147642 41.8642138,53.9718396 C41.8618553,53.1501415 42.2851258,52.4144497 42.996761,52.0034434 C43.0572956,51.9685377 43.1230189,51.9506132 43.192044,51.9506132 C43.3348113,51.9506132 43.4624843,52.0241981 43.5337107,52.1473113 C43.6418868,52.3350472 43.5774214,52.5759277 43.3898428,52.684261 C42.9252201,52.9523428 42.6489623,53.4326887 42.6502201,53.9690094 C42.6510063,54.1773428 42.6989623,54.5793868 43.0120126,54.936934 L43.4401572,55.425456 L49.0324528,52.1496698 L48.5807233,51.4584748 C48.3451887,51.0980975 48.2190881,50.674827 48.2164151,50.234261 C48.2112264,49.4155503 48.6300943,48.6797013 49.3365409,48.2658648 L49.3587107,48.2528145 C50.5072956,47.5800157 51.8206604,47.2252987 53.1585535,47.2252987 C54.1165723,47.2252987 55.0516352,47.4031289 55.9381132,47.754544 L56.2944025,47.8955818 L57.3510063,47.2768711 C57.412327,47.2408648 57.4789937,47.2226258 57.548805,47.2226258 C57.6904717,47.2226258 57.8175157,47.2954245 57.8888994,47.4172799 C57.9846541,47.580173 57.9502201,47.7883491 57.8074528,47.911934 L57.2877987,48.3616195 L57.6640566,48.9366195 C57.9010063,49.2988836 58.0267925,49.7245126 58.0280503,50.1675943 C58.0308805,50.9896069 57.6074528,51.7256132 56.8956604,52.1364623 L56.8956604,52.1364623 Z M53.4752201,42.5820597 L33.3502201,54.1397642 L46.3088679,61.6224686 L66.5892138,50.1536006 L53.4752201,42.5820597 Z" id="Fill-13" fill="#C3E5EB"></path>
                <polygon id="Fill-15" fill="#C3E5EB" points="36.0927358 32.5463994 16.0219811 44.1341352 32.5628616 53.6850786 52.6878616 42.1276887"></polygon>
                <polygon id="Fill-17" fill="#C3E5EB" points="15.6279088 51.935 32.2522799 61.5346855 32.2522799 58.428239 15.6282233 48.8287107"></polygon>
                <polygon id="Fill-19" fill="#C3E5EB" points="15.6268396 59.9609434 32.2523113 69.5614151 32.2523113 66.4565409 15.6271541 56.8565409"></polygon>
                <polygon id="Fill-21" fill="#C3E5EB" points="15.6263679 63.9778931 32.2523113 73.5769497 32.2523113 70.4689308 15.6266824 60.8687736"></polygon>
                <polygon id="Fill-23" fill="#C3E5EB" points="46.9159906 82.0430818 63.5123742 91.625 63.5123742 88.5198113 46.9159906 78.9356918"></polygon>
                <polygon id="Fill-25" fill="#C3E5EB" points="15.6283648 47.9209591 32.2524214 57.5203302 32.2524214 54.4135692 15.6286792 44.814827"></polygon>
                <polygon id="Fill-27" fill="#C3E5EB" points="15.6274528 55.9487421 32.2522956 65.5488994 32.2522956 62.4426101 15.6277673 52.8426101"></polygon>
                <polygon id="Fill-29" fill="#C3E5EB" points="67.379434 50.6097327 47.0990881 62.0784434 63.9053774 71.7828459 83.978805 60.1933805"></polygon>
                <polygon id="Fill-31" fill="#C3E5EB" points="64.2984906 83.5971226 84.3719182 72.0071855 84.3719182 68.9024686 64.2984906 80.4908333"></polygon>
                <polygon id="Fill-33" fill="#C3E5EB" points="64.2984906 87.611478 84.3719182 76.0215409 84.3719182 72.9149371 64.2984906 84.5048742"></polygon>
                <polygon id="Fill-35" fill="#C3E5EB" points="64.2984906 91.6250629 84.3719182 80.0388994 84.3719182 76.9291509 64.2984906 88.5190881"></polygon>
                <polygon id="Fill-37" fill="#C3E5EB" points="64.2984906 79.5829403 84.3719182 67.9947327 84.3719182 64.8882862 64.2984906 76.4766509"></polygon>
                <polygon id="Fill-39" fill="#C3E5EB" points="64.2984906 75.5690409 84.3719182 63.9806761 84.3719182 60.874544 64.2984906 72.4638522"></polygon>
                <polygon id="Fill-41" fill="#C3E5EB" points="46.9159906 65.9869182 63.5123742 75.5694654 63.5123742 72.4636478 46.9159906 62.8807862"></polygon>
                <polygon id="Fill-43" fill="#C3E5EB" points="46.9159906 74.0152987 63.5123742 83.5976887 63.5123742 80.4913994 46.9159906 70.9088522"></polygon>
                <polygon id="Fill-45" fill="#C3E5EB" points="46.9159906 70.0011006 63.5123742 79.5834906 63.5123742 76.4772013 46.9159906 66.8944969"></polygon>
                <polygon id="Fill-47" fill="#C3E5EB" points="46.9159906 78.0277987 63.5123742 87.611761 63.5123742 84.5053145 46.9159906 74.9229245"></polygon>
                <path d="M84.9615409,59.8531447 L36.2892138,31.752044 C36.2294654,31.7176101 36.1616981,31.6993711 36.092673,31.6993711 C36.023805,31.6993711 35.9558805,31.7176101 35.8961321,31.752044 L15.0393711,43.7937107 C14.9181447,43.8638365 14.8428302,43.9941824 14.8428302,44.1339623 L14.84,64.204717 C14.84,64.3448113 14.9153145,64.4751572 15.0365409,64.545283 L63.7088679,92.6462264 C63.7686164,92.6806604 63.8365409,92.6988994 63.9054088,92.6988994 C63.974434,92.6988994 64.0423585,92.6806604 64.1019497,92.6462264 L84.9616981,80.6064465 C85.0827673,80.5366352 85.1580818,80.4061321 85.1580818,80.2660377 L85.1580818,60.1935535 C85.1580818,60.0534591 85.0827673,59.9231132 84.9615409,59.8531447" id="Fill-49" fill="#173D7A"></path>
                <polygon id="Fill-51" fill="#229DCA" points="32.2523585 73.5769182 15.6264151 63.9778616 15.6267296 60.8687421 32.2523585 70.4688994"></polygon>
                <polygon id="Fill-53" fill="#229DCA" points="32.2523585 69.5613522 15.6268868 59.9608805 15.6272013 56.856478 32.2523585 66.456478"></polygon>
                <polygon id="Fill-55" fill="#229DCA" points="32.2523585 65.5488365 15.6275157 55.9486792 15.6278302 52.8425472 32.2523585 62.4425472"></polygon>
                <polygon id="Fill-57" fill="#229DCA" points="32.2523585 61.5346541 15.6279874 51.9349686 15.6283019 48.8286792 32.2523585 58.4282075"></polygon>
                <polygon id="Fill-59" fill="#229DCA" points="32.2523585 57.5202987 15.6283019 47.9209277 15.6286164 44.8147956 32.2523585 54.4135377"></polygon>
                <polygon id="Fill-61" fill="#E5EFF7" points="16.0219182 44.1341824 36.092673 32.5464465 52.6877987 42.1275786 32.5627987 53.6851258"></polygon>
                <polygon id="Fill-63" fill="#229DCA" points="46.129827 81.5891824 33.0384748 74.0310063 33.0384748 54.8676415 46.129827 62.426761"></polygon>
                <polygon id="Fill-65" fill="#229DCA" points="33.3502201 54.1397956 53.4752201 42.5820912 66.5892138 50.1534748 46.3088679 61.6225"></polygon>
                <polygon id="Fill-67" fill="#229DCA" points="63.512327 91.6250629 46.9159434 82.0431447 46.9159434 78.9357547 63.512327 88.5198742"></polygon>
                <polygon id="Fill-69" fill="#229DCA" points="63.512327 87.6117767 46.9159434 78.0278145 46.9159434 74.9229403 63.512327 84.5053302"></polygon>
                <polygon id="Fill-71" fill="#229DCA" points="63.512327 83.5977358 46.9159434 74.0153459 46.9159434 70.9088994 63.512327 80.4914465"></polygon>
                <polygon id="Fill-73" fill="#229DCA" points="63.512327 79.5835535 46.9159434 70.0011635 46.9159434 66.8945597 63.512327 76.4771069"></polygon>
                <polygon id="Fill-75" fill="#229DCA" points="63.512327 75.5695126 46.9159434 65.9869654 46.9159434 62.8808333 63.512327 72.463695"></polygon>
                <polygon id="Fill-77" fill="#E7F6F8" points="63.9054088 71.7828774 47.0989623 62.0784748 67.3794654 50.6097642 83.9788365 60.1934119"></polygon>
                <polygon id="Fill-79" fill="#E5EFF7" points="84.3719182 80.038978 64.2984906 91.6251415 64.2984906 88.5191667 84.3719182 76.9292296"></polygon>
                <polygon id="Fill-81" fill="#E5EFF7" points="84.3719182 76.0215566 64.2984906 87.6114937 64.2984906 84.5048899 84.3719182 72.9149528"></polygon>
                <polygon id="Fill-83" fill="#E5EFF7" points="84.3719182 72.0072013 64.2984906 83.5971384 64.2984906 80.4908491 84.3719182 68.9024843"></polygon>
                <polygon id="Fill-85" fill="#E5EFF7" points="84.3719182 67.9947013 64.2984906 79.5829088 64.2984906 76.4766195 84.3719182 64.8882547"></polygon>
                <polygon id="Fill-87" fill="#E5EFF7" points="84.3719182 63.9806604 64.2984906 75.5690252 64.2984906 72.4638365 84.3719182 60.8745283"></polygon>
                <path d="M49.8252516,51.6851887 L49.3960063,51.2249686 C49.0577987,50.8625472 49.0043396,50.4465094 49.0026101,50.2293711 C48.9991509,49.6949371 49.2719497,49.2147484 49.730283,48.9460377 L49.757327,48.9301572 C50.7835849,48.3290566 51.9603145,48.0114465 53.1603145,48.0114465 L56.0651887,48.0298428 L49.8252516,51.6851887 Z M50.8895597,53.9078302 C50.8936478,54.4425786 50.6202201,54.9235535 50.1559119,55.195566 L50.1356289,55.2072013 C49.1082704,55.8094025 47.9304403,56.1277987 46.7294969,56.1277987 L43.8254088,56.1108176 L50.0692767,52.4534277 L50.4983648,52.9153774 C50.8354717,53.2781132 50.8881447,53.6932075 50.8895597,53.9078302 L50.8895597,53.9078302 Z M57.6639308,48.936761 L57.2878302,48.3616038 L57.8074843,47.9119182 C57.9502516,47.7883333 57.9846855,47.5803145 57.8889308,47.4172642 C57.8175472,47.2954088 57.6903459,47.2226101 57.5488365,47.2226101 C57.4790252,47.2226101 57.4123585,47.2408491 57.3508805,47.2768553 L56.294434,47.895566 L55.9381447,47.7545283 C55.0516667,47.4032704 54.1166038,47.225283 53.1585849,47.225283 C51.8205346,47.225283 50.507327,47.5801572 49.3587421,48.2527987 L49.3365723,48.2658491 C48.6299686,48.6796855 48.2111006,49.4155346 48.2164465,50.2342453 C48.2191195,50.6748113 48.3452201,51.098239 48.5807547,51.4586164 L49.0324843,52.1496541 L43.4401887,55.4254403 L43.012044,54.9369182 C42.6989937,54.5793711 42.6510377,54.1774843 42.6502516,53.9689937 C42.6488365,53.432673 42.9252516,52.9524843 43.389717,52.6842453 C43.5774528,52.5759119 43.6419182,52.3350314 43.5335849,52.1472956 C43.4625157,52.0241824 43.3348428,51.9505975 43.1919182,51.9505975 C43.1230503,51.9505975 43.057327,51.968522 42.9966352,52.0034277 C42.2851572,52.414434 41.8618868,53.1501258 41.8642453,53.9718239 C41.8655031,54.4147484 41.9912893,54.8405346 42.2279245,55.2027987 L42.6060692,55.7818868 L42.0798113,56.2307862 C41.9351572,56.3542138 41.8999371,56.5628616 41.9958491,56.7268553 C42.0673899,56.8488679 42.1945912,56.9216667 42.3362579,56.9216667 C42.4060692,56.9216667 42.4724214,56.9034277 42.5338994,56.8674214 L43.5983648,56.2438365 L43.9546541,56.3850314 C44.8428616,56.7366038 45.776195,56.9150629 46.7290252,56.9150629 C48.068805,56.9150629 49.3843711,56.5589308 50.5361006,55.8839308 L50.5559119,55.8724528 C51.2625157,55.4579874 51.6810692,54.7221384 51.675566,53.9034277 C51.6727358,53.4636478 51.5469497,53.0408491 51.3118868,52.6812579 L50.8603145,51.9900629 L56.4519811,48.714434 L56.8801258,49.2032704 C57.1923899,49.559717 57.2408176,49.9612893 57.2419182,50.1708805 C57.2433333,50.7072013 56.9669182,51.1877044 56.5027673,51.4556289 L55.7584277,51.8853459 C55.6357862,51.9564151 55.5911321,52.0653774 55.5752516,52.1241824 C55.5596855,52.1828302 55.543805,52.2996541 55.6145597,52.4221384 C55.698522,52.5672642 55.8460063,52.6189937 55.9563836,52.6189937 C56.0252516,52.6189937 56.0908176,52.6012264 56.1515094,52.5663208 L56.8956918,52.1364465 C57.6074843,51.7255975 58.0309119,50.9895912 58.0280818,50.1675786 C58.0268239,49.7244969 57.9008805,49.2988679 57.6639308,48.936761 L57.6639308,48.936761 Z" id="Fill-89" fill="#E5EFF7"></path>
                <path d="M64.2209591,19.7436006 C64.2209591,21.0333805 63.1753616,22.0791352 61.8854245,22.0791352 C60.5954874,22.0791352 59.5498899,21.0333805 59.5498899,19.7436006 C59.5498899,18.4536635 60.5954874,17.408066 61.8854245,17.408066 C63.1753616,17.408066 64.2209591,18.4536635 64.2209591,19.7436006" id="Fill-91" fill="#C3E5EB"></path>
                <path d="M10.5283648,39.3609906 C10.5283648,40.0918082 9.93575472,40.6845755 9.20477987,40.6845755 C8.4736478,40.6845755 7.88119497,40.0918082 7.88119497,39.3609906 C7.88119497,38.6300157 8.4736478,38.0372484 9.20477987,38.0372484 C9.93575472,38.0372484 10.5283648,38.6300157 10.5283648,39.3609906" id="Fill-93" fill="#229DCA"></path>
                <path d="M44.0579403,9.33017296 C44.0579403,10.150456 43.3930031,10.8152358 42.5728774,10.8152358 C41.7527516,10.8152358 41.0878145,10.150456 41.0878145,9.33017296 C41.0878145,8.51004717 41.7527516,7.8452673 42.5728774,7.8452673 C43.3930031,7.8452673 44.0579403,8.51004717 44.0579403,9.33017296" id="Fill-95" fill="#E7F6F8"></path>
                <mask id="mask-2" fill="white">
                    <use xlink:href="#path-1"></use>
                </mask>
                <g id="Clip-98"></g>
                <polygon id="Fill-97" fill="#173D7A" mask="url(#mask-2)" points="90.3168239 16.5459119 91.5451258 16.5459119 91.5451258 11.3790881 90.3168239 11.3790881"></polygon>
                <polygon id="Fill-99" fill="#173D7A" mask="url(#mask-2)" points="88.3476415 14.5767296 93.5144654 14.5767296 93.5144654 13.3484277 88.3476415 13.3484277"></polygon>
                <polygon id="Fill-100" fill="#173D7A" mask="url(#mask-2)" points="17.9492138 19.7435535 18.709434 19.7435535 18.709434 16.5459119 17.9492138 16.5459119"></polygon>
                <polygon id="Fill-101" fill="#173D7A" mask="url(#mask-2)" points="16.7305031 18.5248428 19.9281447 18.5248428 19.9281447 17.7646226 16.7305031 17.7646226"></polygon>
            </g>
        </g>
    </g>
</svg>