<?xml version="1.0" encoding="UTF-8"?>
<svg width="152px" height="138px" viewBox="0 0 152 138" version="1.1" xmlns="http://www.w3.org/2000/svg" xmlns:xlink="http://www.w3.org/1999/xlink">
    <!-- Generator: sketchtool 41.2 (35397) - http://www.bohemiancoding.com/sketch -->
    <title>762037A6-FEBC-48EA-BA79-86EFC97420E1</title>
    <desc>Created with sketchtool.</desc>
    <defs></defs>
    <g id="Page-1" stroke="none" stroke-width="1" fill="none" fill-rule="evenodd">
        <g id="NEXT-ORBIT-LANDING-PAGE-V002-Second-Slider" transform="translate(-886.000000, -884.000000)">
            <g id="Group-11" transform="translate(886.000000, 884.000000)">
                <path d="M53.7417299,89.3396266 C65.3732099,82.8660726 84.2348689,82.8660726 95.8678323,89.3381969 C107.502279,95.8117509 107.500796,106.306972 95.8678323,112.779096 C84.2333855,119.25265 65.3732099,119.25265 53.7402465,112.779096 C42.1072831,106.306972 42.1072831,95.8117509 53.7417299,89.3396266 Z M28.9790344,126.556843 C54.2876277,140.639111 95.3189677,140.639111 120.627561,126.556843 C145.936154,112.474576 145.936154,89.642717 120.629044,75.5604496 C95.3219345,61.4796119 54.2891112,61.4796119 28.9805179,75.5618793 C3.67340796,89.6441467 3.67340796,112.476006 28.9790344,126.556843 L28.9790344,126.556843 Z" id="Fill-27" fill="#2E4582"></path>
                <path d="M129.855646,66.5572569 L106.738061,66.9060968 C105.02768,64.7601594 102.599325,62.7486112 99.438161,60.9901148 C86.7252693,53.9160987 66.7362127,53.3699641 52.8870229,59.3402736 L39.1505729,46.8892617 L18,47.2066488 C19.0458096,46.5475701 20.1168374,45.8970695 21.2501687,45.2665842 C50.644095,28.9111386 98.3003794,28.9111386 127.694306,45.2665842 C133.099881,48.2746137 137.502665,51.6271941 140.92046,55.1970846 L129.855646,66.5572569" id="Fill-28" fill="#53B2C0"></path>
                <polyline id="Fill-29" fill="#348692" points="18 14.0180409 18 47.6708604 40 47.3407267 40 13.6879071 18 14.0180409"></polyline>
                <polyline id="Fill-30" fill="#53B2C0" points="53.73645 27.4510119 53.73645 59.8044851 40 47.3534732 40 15 53.73645 27.4510119"></polyline>
                <path d="M106.851038,33.6578766 L106.851038,66.0113498 L76.4424536,42.1272525 L53,58.4455266 L53,26.0920534 L74.5852143,16 C74.5852143,16 104.299559,24.7667476 105.843797,25.1384623 C107.388035,25.5101769 106.851038,33.6578766 106.851038,33.6578766" id="Fill-31" fill="#53B3C1"></path>
                <polygon id="Fill-32" fill="#53B2C0" points="141.117585 55.3520436 118 55.7008835 118 23.3474103 141.117585 23"></polygon>
                <polyline id="Fill-32" fill="#358692" points="130.117585 33 130.117585 65.3520436 107 65.7008835 107 33.3474103 130.117585 33"></polyline>
                <path d="M106.738061,33.9060968 C105.02768,31.7601594 102.599325,29.7486112 99.438161,27.9886852 C86.7252693,20.9160987 66.7362127,20.3699641 52.8870229,26.3402736 L39.1505729,13.8892617 L18,14.2066488 C19.0458096,13.5475701 20.1168374,12.8970695 21.2501687,12.2665842 C50.644095,-4.0888614 98.3003794,-4.0888614 127.694306,12.2665842 C133.099881,15.2746137 137.502665,18.6286238 140.92046,22.1970846 L129.855646,33.5586866 L106.738061,33.9060968 Z" id="Fill-34" fill="#60E4F7"></path>
                <path d="M47.0113079,31 L47.0113079,60.7414628 L27,56.1207635 C27,56.1207635 28.174867,38.7173685 28.6006079,38.2527251 C29.0278323,37.7880818 47.0113079,31 47.0113079,31" id="Fill-35" fill="#3B6397"></path>
                <path d="M61.2701279,61 L61.2701279,93.3520436 L59.1073045,95.5723239 L45,87.734863 C45,87.734863 47.1880414,63.0358527 47.4446727,62.5411862 C47.7027875,62.0450901 61.2701279,61 61.2701279,61" id="Fill-36" fill="#253764"></path>
                <path d="M34.6087746,52 L46.7075312,62.9641532 C36.6291898,70.6486392 37.8218578,81.4812625 50.2885021,88.4180302 C53.7033302,90.3194937 57.6447717,91.7477359 61.8502615,92.7041863 L49.3450483,105.544069 L60.4246969,115.584654 C46.3559612,114.020593 32.9369626,110.209088 22.030874,104.140131 C-3.23766705,90.0807385 -6.76078464,68.5169985 11.4155353,52.3474103 L34.6087746,52" id="Fill-37" fill="#3A6297"></path>
                <polyline id="Fill-38" fill="#3A6297" points="60.425546 83.5456036 60.425546 115.899077 32.9941816 105.69122 0 75.3535841 0.123123688 41 35.029431 67.6648091 60.425546 83.5456036"></polyline>
                <path d="M34.6087746,19 L46.7075312,29.9641532 C36.6291898,37.6486392 37.8218578,48.4812625 50.2885021,55.4194599 C53.7033302,57.3194937 57.6447717,58.7463062 61.8502615,59.705616 L49.3450483,72.5440689 L60.4246969,82.5846541 C46.3559612,81.0205931 32.9369626,77.209088 22.030874,71.1415609 C-3.23766705,57.0821682 -6.76078464,35.5169985 11.4155353,19.3488399 L34.6087746,19" id="Fill-39" fill="#D4EAF3"></path>
                <g id="Group-7" transform="translate(61.000000, 29.000000)">
                    <path d="M0.225540557,77.2851682 L11.2473358,65.9693158 C21.4784692,66.5683482 32.0893577,64.6897595 39.9307049,60.3249714 C48.0301668,55.8186459 51.3648903,49.6681977 49.9497096,43.8036839 L76.1928562,43.4090945 L86.2860318,33.0482628 C95.1123685,47.6480714 89.0911751,64.4166922 68.1868496,76.0485021 C52.826057,84.5950802 32.48098,88.6667855 12.3584158,88.2807741 L0.225540557,77.2851682" id="Fill-40" fill="#3A6297"></path>
                    <polyline id="Fill-41" fill="#3A6297" points="12.092884 54.6291589 12.092884 86.9826321 89.9471073 45.402057 89.9471073 13.0328574 78.5811591 17.4619807 12.092884 54.6291589"></polyline>
                    <polyline id="Fill-42" fill="#253764" points="0.225540557 44.4856374 0.225540557 76.8391106 12.3584158 87.8347165 12.3584158 55.4812433 0.225540557 44.4856374"></polyline>
                    <path d="M0.225540557,44.4027164 L11.2473358,33.086864 C21.4784692,33.6858964 32.0893577,31.805878 39.9307049,27.4439493 C48.0301668,22.9376237 51.3648903,16.7857459 49.9497096,10.9212321 L76.1928562,10.5280724 L86.2860318,0.165811019 C95.1123685,14.7656196 89.0911751,31.5342404 68.1868496,43.1674799 C52.826057,51.7126284 32.48098,55.7843337 12.3584158,55.3983223 L0.225540557,44.4027164" id="Fill-43" fill="#5589BB"></path>
                </g>
            </g>
        </g>
    </g>
</svg>