<?xml version="1.0" encoding="UTF-8"?>
<svg width="49px" height="61px" viewBox="0 0 49 61" version="1.1" xmlns="http://www.w3.org/2000/svg" xmlns:xlink="http://www.w3.org/1999/xlink">
    <!-- Generator: sketchtool 41.2 (35397) - http://www.bohemiancoding.com/sketch -->
    <title>B9BD5EA1-61F9-424F-9436-278E548F7042</title>
    <desc>Created with sketchtool.</desc>
    <defs></defs>
    <g id="Page-1" stroke="none" stroke-width="1" fill="none" fill-rule="evenodd">
        <g id="NEXT-ORBIT-LANDING-PAGE-V002-Second-Slider" transform="translate(-960.000000, -804.000000)">
            <g id="Group-9" transform="translate(960.000000, 804.000000)">
                <path d="M45.6953822,22.0018711 L6.78236309,0.350921079 C6.01246919,-0.0779804659 5.31674618,-0.0937068559 4.77084838,0.195086851 L4.77381522,0.17078243 L1,2.2724 C1,2.2724 2.67032859,2.85999512 3.65086784,3.2059757 L3.65086784,30.5169964 C3.65086784,32.7387064 5.05269779,35.3192641 6.78236309,36.2828629 L43.9761009,56.9773624 L43.9761009,60.181257 L47.7884849,58.0653427 L47.7677171,58.0581943 C48.4115205,57.6793313 48.8253941,56.848692 48.8253941,55.6520566 L48.8253941,27.7677375 C48.8253941,25.5460275 47.4235641,22.9640402 45.6953822,22.0018711" id="Fill-47" fill="#5589BB"></path>
                <path d="M42.043031,59.9462922 L3.13001183,38.2939125 C1.40182994,37.3317434 0,34.7511857 0,32.5294757 L0,4.64372693 C0,2.42201693 1.40182994,1.39980158 3.13001183,2.36197071 L42.043031,24.0143504 C43.7726963,24.9765195 45.1745262,27.5585068 45.1745262,29.7787872 L45.1745262,57.664536 C45.1745262,59.886246 43.7726963,60.9084613 42.043031,59.9462922" id="Fill-48" fill="#5576B7"></path>
                <path d="M17.2512995,27.7287748 C17.2512995,29.3428742 16.0749491,29.9962343 14.6241663,29.1898994 C13.174867,28.3821348 12,26.420625 12,24.8065256 C12,23.1924261 13.174867,22.5390661 14.6241663,23.345401 C16.0749491,24.1531655 17.2512995,26.1146753 17.2512995,27.7287748" id="Fill-49" fill="#FFFFFF"></path>
                <path d="M24.2512995,32.7280075 C24.2512995,34.342107 23.0749491,34.995467 21.6271332,34.1891321 C20.1763504,33.3827972 19,31.4198578 19,29.8057583 C19,28.1930885 20.1763504,27.5382988 21.6271332,28.3460634 C23.0749491,29.1523983 24.2512995,31.113908 24.2512995,32.7280075" id="Fill-50" fill="#FFFFFF"></path>
                <path d="M32.2498161,36.7280075 C32.2498161,38.3406773 31.0749491,38.995467 29.6256497,38.1891321 C28.174867,37.3813675 27,35.4198578 27,33.8057583 C27,32.1930885 28.174867,31.5382988 29.6256497,32.3460634 C31.0749491,33.1523983 32.2498161,35.113908 32.2498161,36.7280075" id="Fill-51" fill="#FFFFFF"></path>
            </g>
        </g>
    </g>
</svg>