<?xml version="1.0" encoding="UTF-8"?>
<svg width="88px" height="81px" viewBox="0 0 88 81" version="1.1" xmlns="http://www.w3.org/2000/svg" xmlns:xlink="http://www.w3.org/1999/xlink">
    <!-- Generator: sketchtool 54 (76480) - https://sketchapp.com -->
    <title>6670B0F9-E432-4921-8588-C9EBC95830B2</title>
    <desc>Created with sketchtool.</desc>
    <defs>
        <polygon id="path-1" points="0 99.9981132 99.9981132 99.9981132 99.9981132 0 0 0"></polygon>
    </defs>
    <g id="Page-1" stroke="none" stroke-width="1" fill="none" fill-rule="evenodd">
        <g id="NEXT-ORBIT-LANDING-PAGE-New-TItle-Section--V03" transform="translate(-1008.000000, -2024.000000)">
            <g id="Group-9" transform="translate(1000.000000, 2019.000000)">
                <g id="Page-1-Copy">
                    <path d="M23.3746698,25.2522799 C22.7286006,25.2522799 22.2028145,25.7779088 22.2028145,26.423978 C22.2028145,27.0703616 22.7286006,27.5959906 23.3746698,27.5959906 C24.0208962,27.5959906 24.5466824,27.0703616 24.5466824,26.423978 C24.5466824,25.7779088 24.0208962,25.2522799 23.3746698,25.2522799 Z M23.3746698,28.0703616 C22.4671226,28.0703616 21.7286006,27.3318396 21.7286006,26.423978 C21.7286006,25.5164308 22.4671226,24.7779088 23.3746698,24.7779088 C24.2823742,24.7779088 25.0208962,25.5164308 25.0208962,26.423978 C25.0208962,27.3318396 24.2823742,28.0703616 23.3746698,28.0703616 Z" id="Fill-1" fill="#229DCA"></path>
                    <path d="M23.3747484,9.48003145 C23.3747484,10.7698113 22.3291509,11.815566 21.0392138,11.815566 C19.7492767,11.815566 18.7036792,10.7698113 18.7036792,9.48003145 C18.7036792,8.19009434 19.7492767,7.14449686 21.0392138,7.14449686 C22.3291509,7.14449686 23.3747484,8.19009434 23.3747484,9.48003145" id="Fill-7" fill="#C3E5EA"></path>
                    <mask id="mask-2" fill="white">
                        <use xlink:href="#path-1"></use>
                    </mask>
                    <g id="Clip-10"></g>
                    <polygon id="Fill-9" fill="#173D7A" mask="url(#mask-2)" points="10.0586478 45.4212264 11.2869497 45.4212264 11.2869497 40.2544025 10.0586478 40.2544025"></polygon>
                    <polygon id="Fill-11" fill="#173D7A" mask="url(#mask-2)" points="8.08930818 43.4518868 13.2561321 43.4518868 13.2561321 42.2235849 8.08930818 42.2235849"></polygon>
                    <path d="M92.7944497,37.0637736 C92.7944497,37.7947484 93.3870597,38.3873585 94.1180346,38.3873585 C94.8491667,38.3873585 95.4416195,37.7947484 95.4416195,37.0637736 C95.4416195,36.3327987 94.8491667,35.7401887 94.1180346,35.7401887 C93.3870597,35.7401887 92.7944497,36.3327987 92.7944497,37.0637736" id="Fill-12" fill="#229DCA" mask="url(#mask-2)"></path>
                    <path d="M59.2648742,7.03309748 C59.2648742,7.85322327 59.9298113,8.51800314 60.7499371,8.51800314 C61.5700629,8.51800314 62.235,7.85322327 62.235,7.03309748 C62.235,6.21281447 61.5700629,5.54803459 60.7499371,5.54803459 C59.9298113,5.54803459 59.2648742,6.21281447 59.2648742,7.03309748" id="Fill-13" fill="#E7F5F7" mask="url(#mask-2)"></path>
                    <polygon id="Fill-14" fill="#173D7A" mask="url(#mask-2)" points="84.6133648 17.4463836 85.3735849 17.4463836 85.3735849 14.2487421 84.6133648 14.2487421"></polygon>
                    <polygon id="Fill-15" fill="#173D7A" mask="url(#mask-2)" points="83.3946541 16.227673 86.5922956 16.227673 86.5922956 15.4674528 83.3946541 15.4674528"></polygon>
                </g>
                <g id="002-pay-copy" transform="translate(19.000000, 22.000000)">
                    <g id="Group">
                        <g transform="translate(1.157025, 1.160998)" fill="#BDDBFF" id="Shape">
                            <polygon points="46.2809917 3.51473923 61.322314 3.51473923 61.322314 6.99773243 46.2809917 6.99773243"></polygon>
                            <polygon points="46.2809917 24.4126984 61.322314 24.4126984 61.322314 27.8956916 46.2809917 27.8956916"></polygon>
                            <polygon points="15.0413223 13.9637188 30.0826446 13.9637188 30.0826446 17.446712 15.0413223 17.446712"></polygon>
                            <polygon points="48.5950413 13.9637188 63.6363636 13.9637188 63.6363636 17.446712 48.5950413 17.446712"></polygon>
                            <polygon points="12.7272727 3.51473923 27.768595 3.51473923 27.768595 6.99773243 12.7272727 6.99773243"></polygon>
                            <polygon points="12.7272727 24.4126984 27.768595 24.4126984 27.768595 27.8956916 12.7272727 27.8956916"></polygon>
                            <polygon points="11.5702479 38.3446712 0 38.3446712 0 61.5646259 11.5702479 61.5646259"></polygon>
                            <polygon points="46.2809917 20.9297052 46.2809917 24.4126984 61.322314 24.4126984 61.322314 20.9297052"></polygon>
                            <polygon points="46.2809917 27.8956916 61.322314 27.8956916 61.322314 31.3786848 46.2809917 31.3786848"></polygon>
                            <polygon points="27.768595 20.9297052 12.7272727 20.9297052 12.7272727 24.4126984 27.768595 24.4126984"></polygon>
                            <polygon points="12.7272727 27.8956916 27.768595 27.8956916 27.768595 31.3786848 12.7272727 31.3786848"></polygon>
                            <polygon points="48.5950413 10.4807256 48.5950413 13.9637188 63.6363636 13.9637188 63.6363636 10.4807256"></polygon>
                            <polygon points="48.5950413 20.9297052 63.6363636 20.9297052 63.6363636 17.446712 48.5950413 17.446712"></polygon>
                            <polygon points="30.0826446 10.4807256 15.0413223 10.4807256 15.0413223 13.9637188 30.0826446 13.9637188"></polygon>
                            <polygon points="30.0826446 20.9297052 30.0826446 17.446712 15.0413223 17.446712 15.0413223 20.9297052"></polygon>
                            <polygon points="46.2809917 0.0317460317 61.322314 0.0317460317 61.322314 3.51473923 46.2809917 3.51473923"></polygon>
                            <polygon points="46.2809917 10.4807256 61.322314 10.4807256 61.322314 6.99773243 46.2809917 6.99773243"></polygon>
                            <polygon points="12.7272727 0.0317460317 27.768595 0.0317460317 27.768595 3.51473923 12.7272727 3.51473923"></polygon>
                            <polygon points="27.768595 10.4807256 27.768595 6.99773243 12.7272727 6.99773243 12.7272727 10.4807256"></polygon>
                        </g>
                        <path d="M69.3830708,42.7658731 C68.7367639,41.3707482 67.5633555,40.2908163 66.1221591,39.7647392 C64.6809626,39.2386621 63.0906185,39.3100907 61.7019628,39.9620181 L46.7103564,46.9665533 C47.7046746,45.1689343 47.676427,42.9773243 46.6374774,41.2052155 C45.597963,39.4331066 43.701979,38.3452381 41.6528926,38.3446712 L24.2975207,38.3446712 C21.1693731,38.3424036 18.3208774,40.1513606 16.9841975,42.9886621 L13.8842975,42.9886621 L13.8842975,39.5056689 C13.8842975,38.8645124 13.3662352,38.3446712 12.7272727,38.3446712 L1.15702479,38.3446712 C0.518062335,38.3446712 0,38.8645124 0,39.5056689 L0,62.7256236 C0,63.3673469 0.518062335,63.8866213 1.15702479,63.8866213 L12.7272727,63.8866213 C13.3662352,63.8866213 13.8842975,63.3673469 13.8842975,62.7256236 L13.8842975,60.4036281 L44.0985763,60.4036281 C44.9431818,60.4024944 45.7764883,60.2171202 46.5425652,59.8605441 L66.5916355,50.4829932 C69.4751582,49.1156463 70.7214456,45.6712018 69.3830708,42.7658731 L69.3830708,42.7658731 Z M11.5702479,61.5646259 L2.31404959,61.5646259 L2.31404959,40.6666667 L11.5702479,40.6666667 L11.5702479,61.5646259 Z M65.612571,48.3803855 L45.5635007,57.7556689 C45.1047586,57.9699547 44.6047746,58.0810658 44.0985763,58.0816327 L13.8842975,58.0816327 L13.8842975,45.3106576 L17.7604435,45.3106576 C18.2525181,45.3106576 18.690922,44.9982993 18.8524986,44.531746 C19.663772,42.2131519 21.8484471,40.6626984 24.2975207,40.6666667 L41.6528926,40.6666667 C43.5697798,40.6666667 45.1239669,42.2261905 45.1239669,44.1496599 C45.1239669,46.0736961 43.5697798,47.6326531 41.6528926,47.6326531 L31.2396694,47.6326531 L31.2396694,49.9546485 L44.5166419,49.9546485 C45.3595525,49.9535148 46.191729,49.7687075 46.9566761,49.4126984 L62.6815923,42.0657596 C64.4114799,41.2522675 66.4713003,42 67.2808788,43.7363946 C67.4938662,44.2012472 67.6045971,44.7063493 67.605162,45.2182539 C67.6040322,46.5697279 66.828916,47.8004535 65.612571,48.3803855 Z" id="Shape" fill="#3D9AE2"></path>
                        <path d="M13.8842975,33.7006803 L62.4793388,33.7006803 C63.1183013,33.7006803 63.6363636,33.1814059 63.6363636,32.5396825 L63.6363636,23.2517007 L64.7933884,23.2517007 C65.4323509,23.2517007 65.9504132,22.7324263 65.9504132,22.0907029 L65.9504132,11.6417234 C65.9504132,11.0005669 65.4323509,10.4807256 64.7933884,10.4807256 L63.6363636,10.4807256 L63.6363636,1.19274376 C63.6363636,0.551587265 63.1183013,0.0317460317 62.4793388,0.0317460317 L13.8842975,0.0317460317 C13.2453351,0.0317460317 12.7272727,0.551587265 12.7272727,1.19274376 L12.7272727,11.6417234 C12.7272727,12.2834467 13.2453351,12.8027211 13.8842975,12.8027211 L15.0413223,12.8027211 L15.0413223,20.9297052 L13.8842975,20.9297052 C13.2453351,20.9297052 12.7272727,21.4495464 12.7272727,22.0907029 L12.7272727,32.5396825 C12.7272727,33.1814059 13.2453351,33.7006803 13.8842975,33.7006803 Z M17.3553719,16.2857143 L30.0826446,16.2857143 L30.0826446,17.446712 L17.3553719,17.446712 L17.3553719,16.2857143 Z M15.0413223,10.4807256 L15.0413223,9.31972789 L27.768595,9.31972789 L27.768595,10.4807256 L15.0413223,10.4807256 Z M27.768595,6.99773243 L15.0413223,6.99773243 L15.0413223,5.83673469 L27.768595,5.83673469 L27.768595,6.99773243 Z M27.768595,27.8956916 L15.0413223,27.8956916 L15.0413223,26.7346939 L27.768595,26.7346939 L27.768595,27.8956916 Z M15.0413223,30.2176871 L27.768595,30.2176871 L27.768595,31.3786848 L15.0413223,31.3786848 L15.0413223,30.2176871 Z M61.322314,6.99773243 L48.5950413,6.99773243 L48.5950413,5.83673469 L61.322314,5.83673469 L61.322314,6.99773243 Z M62.4793388,12.8027211 L63.6363636,12.8027211 L63.6363636,13.9637188 L50.9090909,13.9637188 L50.9090909,12.8027211 L62.4793388,12.8027211 Z M50.9090909,16.2857143 L63.6363636,16.2857143 L63.6363636,17.446712 L50.9090909,17.446712 L50.9090909,16.2857143 Z M48.5950413,26.7346939 L61.322314,26.7346939 L61.322314,27.8956916 L48.5950413,27.8956916 L48.5950413,26.7346939 Z M61.322314,31.3786848 L48.5950413,31.3786848 L48.5950413,30.2176871 L61.322314,30.2176871 L61.322314,31.3786848 Z M61.322314,24.4126984 L48.5950413,24.4126984 L48.5950413,23.2517007 L61.322314,23.2517007 L61.322314,24.4126984 Z M63.6363636,20.9297052 L50.9090909,20.9297052 L50.9090909,19.7687075 L63.6363636,19.7687075 L63.6363636,20.9297052 Z M48.5950413,10.4807256 L48.5950413,9.31972789 L61.322314,9.31972789 L61.322314,10.4807256 L48.5950413,10.4807256 Z M61.322314,3.51473923 L48.5950413,3.51473923 L48.5950413,2.3537415 L61.322314,2.3537415 L61.322314,3.51473923 Z M46.2809917,10.4807256 L45.1239669,10.4807256 L45.1239669,12.8027211 L48.5950413,12.8027211 L48.5950413,20.9297052 L45.1239669,20.9297052 L45.1239669,23.2517007 L46.2809917,23.2517007 L46.2809917,31.3786848 L30.0826446,31.3786848 L30.0826446,23.2517007 L33.553719,23.2517007 L33.553719,20.9297052 L32.3966942,20.9297052 L32.3966942,12.8027211 L33.553719,12.8027211 L33.553719,10.4807256 L30.0826446,10.4807256 L30.0826446,2.3537415 L46.2809917,2.3537415 L46.2809917,10.4807256 Z M15.0413223,2.3537415 L27.768595,2.3537415 L27.768595,3.51473923 L15.0413223,3.51473923 L15.0413223,2.3537415 Z M28.9256198,12.8027211 L30.0826446,12.8027211 L30.0826446,13.9637188 L17.3553719,13.9637188 L17.3553719,12.8027211 L28.9256198,12.8027211 Z M17.3553719,19.7687075 L30.0826446,19.7687075 L30.0826446,20.9297052 L17.3553719,20.9297052 L17.3553719,19.7687075 Z M15.0413223,23.2517007 L27.768595,23.2517007 L27.768595,24.4126984 L15.0413223,24.4126984 L15.0413223,23.2517007 Z" id="Shape" fill="#3D9AE2"></path>
                        <path d="M38.1818182,23.2517007 L38.1818182,24.4126984 L40.4958678,24.4126984 L40.4958678,23.2517007 C41.7737927,23.2517007 42.8099174,22.2125851 42.8099174,20.9297052 L42.8099174,18.6077098 C42.8099174,17.3253968 41.7737927,16.2857143 40.4958678,16.2857143 L38.1818182,16.2857143 L38.1818182,13.9637188 L40.4958678,13.9637188 L40.4958678,15.1247166 L42.8099174,15.1247166 L42.8099174,13.9637188 C42.8099174,12.6814058 41.7737927,11.6417234 40.4958678,11.6417234 L40.4958678,10.4807256 L38.1818182,10.4807256 L38.1818182,11.6417234 C36.9038933,11.6417234 35.8677686,12.6814058 35.8677686,13.9637188 L35.8677686,16.2857143 C35.8677686,17.5685941 36.9038933,18.6077098 38.1818182,18.6077098 L40.4958678,18.6077098 L40.4958678,20.9297052 L38.1818182,20.9297052 L38.1818182,19.7687075 L35.8677686,19.7687075 L35.8677686,20.9297052 C35.8677686,22.2125851 36.9038933,23.2517007 38.1818182,23.2517007 Z" id="Shape" fill="#3D9AE2"></path>
                    </g>
                </g>
            </g>
        </g>
    </g>
</svg>