<?xml version="1.0" encoding="UTF-8"?>
<svg width="88px" height="69px" viewBox="0 0 88 69" version="1.1" xmlns="http://www.w3.org/2000/svg" xmlns:xlink="http://www.w3.org/1999/xlink">
    <!-- Generator: sketchtool 54 (76480) - https://sketchapp.com -->
    <title>B34AAC57-C9DE-4340-B653-83C5817DD7B7</title>
    <desc>Created with sketchtool.</desc>
    <defs>
        <polygon id="path-1" points="0 99.9981132 99.9981132 99.9981132 99.9981132 0 0 0"></polygon>
    </defs>
    <g id="Page-1" stroke="none" stroke-width="1" fill="none" fill-rule="evenodd">
        <g id="NEXT-ORBIT-LANDING-PAGE-New-TItle-Section--V03" transform="translate(-454.000000, -2292.000000)">
            <g id="Group-12" transform="translate(450.000000, 2287.000000)">
                <g id="Page-1-Copy" transform="translate(50.000000, 50.000000) scale(-1, 1) translate(-50.000000, -50.000000) ">
                    <path d="M23.3746698,25.2522799 C22.7286006,25.2522799 22.2028145,25.7779088 22.2028145,26.423978 C22.2028145,27.0703616 22.7286006,27.5959906 23.3746698,27.5959906 C24.0208962,27.5959906 24.5466824,27.0703616 24.5466824,26.423978 C24.5466824,25.7779088 24.0208962,25.2522799 23.3746698,25.2522799 Z M23.3746698,28.0703616 C22.4671226,28.0703616 21.7286006,27.3318396 21.7286006,26.423978 C21.7286006,25.5164308 22.4671226,24.7779088 23.3746698,24.7779088 C24.2823742,24.7779088 25.0208962,25.5164308 25.0208962,26.423978 C25.0208962,27.3318396 24.2823742,28.0703616 23.3746698,28.0703616 Z" id="Fill-1" fill="#229DCA"></path>
                    <path d="M23.3747484,9.48003145 C23.3747484,10.7698113 22.3291509,11.815566 21.0392138,11.815566 C19.7492767,11.815566 18.7036792,10.7698113 18.7036792,9.48003145 C18.7036792,8.19009434 19.7492767,7.14449686 21.0392138,7.14449686 C22.3291509,7.14449686 23.3747484,8.19009434 23.3747484,9.48003145" id="Fill-7" fill="#C3E5EA"></path>
                    <mask id="mask-2" fill="white">
                        <use xlink:href="#path-1"></use>
                    </mask>
                    <g id="Clip-10"></g>
                    <polygon id="Fill-9" fill="#173D7A" mask="url(#mask-2)" points="10.0586478 45.4212264 11.2869497 45.4212264 11.2869497 40.2544025 10.0586478 40.2544025"></polygon>
                    <polygon id="Fill-11" fill="#173D7A" mask="url(#mask-2)" points="8.08930818 43.4518868 13.2561321 43.4518868 13.2561321 42.2235849 8.08930818 42.2235849"></polygon>
                    <path d="M92.7944497,37.0637736 C92.7944497,37.7947484 93.3870597,38.3873585 94.1180346,38.3873585 C94.8491667,38.3873585 95.4416195,37.7947484 95.4416195,37.0637736 C95.4416195,36.3327987 94.8491667,35.7401887 94.1180346,35.7401887 C93.3870597,35.7401887 92.7944497,36.3327987 92.7944497,37.0637736" id="Fill-12" fill="#229DCA" mask="url(#mask-2)"></path>
                    <path d="M59.2648742,7.03309748 C59.2648742,7.85322327 59.9298113,8.51800314 60.7499371,8.51800314 C61.5700629,8.51800314 62.235,7.85322327 62.235,7.03309748 C62.235,6.21281447 61.5700629,5.54803459 60.7499371,5.54803459 C59.9298113,5.54803459 59.2648742,6.21281447 59.2648742,7.03309748" id="Fill-13" fill="#E7F5F7" mask="url(#mask-2)"></path>
                    <polygon id="Fill-14" fill="#173D7A" mask="url(#mask-2)" points="84.6133648 17.4463836 85.3735849 17.4463836 85.3735849 14.2487421 84.6133648 14.2487421"></polygon>
                    <polygon id="Fill-15" fill="#173D7A" mask="url(#mask-2)" points="83.3946541 16.227673 86.5922956 16.227673 86.5922956 15.4674528 83.3946541 15.4674528"></polygon>
                </g>
                <g id="005-shopping-cart-copy" transform="translate(26.000000, 18.000000)">
                    <g id="Capa_1">
                        <g id="Group" transform="translate(13.176471, 3.725572)" fill="#78B9EB">
                            <polygon id="Shape" points="9.41223529 7.45114345 6.58870588 7.45114345 0.000470588235 7.45114345 0.000470588235 13.039501 9.41223529 13.039501"></polygon>
                            <polygon id="Shape" points="9.41223529 13.039501 19.7651765 13.039501 19.7651765 3.72557173 19.7651765 0 6.58870588 0 6.58870588 7.45114345 9.41223529 7.45114345 9.41223529 13.039501"></polygon>
                            <polygon id="Shape" points="19.7651765 3.72557173 31.0592941 3.72557173 31.0592941 13.039501 19.7651765 13.039501"></polygon>
                        </g>
                        <g id="Group" fill="#1E81CE">
                            <path d="M49.6522353,16.1550104 C49.4736471,15.9510353 49.2143529,15.8337963 48.9416471,15.8336798 L45.1769412,15.8336798 L45.1769412,7.45114345 C45.1769412,6.9367817 44.7555294,6.51975052 44.2357647,6.51975052 L33.8828235,6.51975052 L33.8828235,3.72557173 C33.8828235,3.21120998 33.4614118,2.79417879 32.9416471,2.79417879 L19.7651765,2.79417879 C19.2454118,2.79417879 18.824,3.21120998 18.824,3.72557173 L18.824,10.2453222 L13.1769412,10.2453222 C12.6571765,10.2453222 12.2357647,10.6623534 12.2357647,11.1767152 L12.2357647,15.8336798 L8.47105882,15.8336798 L8.47105882,0.931392931 C8.47105882,0.417031185 8.04964706,0 7.52988235,0 L0.000470588235,0 L0.000470588235,1.86278586 L6.58870588,1.86278586 L6.58870588,46.6627859 C4.04235294,47.1778462 2.4,49.6381206 2.92047059,52.1580042 C3.44094118,54.6778877 5.92705882,56.303052 8.47341176,55.7879917 C10.3205882,55.4143867 11.764,53.9858628 12.1415294,52.1580042 L31.1532941,52.1580042 C31.6730588,54.6780042 34.1588235,56.3038669 36.7052941,55.7895052 C39.2517647,55.2751435 40.8947059,52.8152183 40.3749412,50.2952183 C39.8551765,47.7752183 37.3694118,46.1493555 34.8229412,46.6637173 C32.9748235,47.0370894 31.5305882,48.4663119 31.1532941,50.2952183 L12.1415294,50.2952183 C11.7608235,48.4675925 10.3177647,47.0395343 8.47094118,46.6627859 L8.47094118,43.7754678 L45.1768235,43.7754678 C45.6450588,43.7755842 46.0421176,43.4350437 46.1085882,42.9763326 L49.8732941,16.8973306 C49.912,16.6299044 49.8312941,16.3589854 49.6522353,16.1550104 L49.6522353,16.1550104 Z M35.7651765,48.4324324 C37.3245882,48.4324324 38.5887059,49.6834096 38.5887059,51.2266112 C38.5887059,52.7698129 37.3245882,54.02079 35.7651765,54.02079 C34.2057647,54.02079 32.9416471,52.7698129 32.9416471,51.2266112 C32.9416471,49.6834096 34.2057647,48.4324324 35.7651765,48.4324324 Z M43.2945882,8.38253638 L43.2945882,15.8336798 L33.8828235,15.8336798 L33.8828235,8.38253638 L43.2945882,8.38253638 Z M20.7063529,4.65696466 L32.0004706,4.65696466 L32.0004706,15.8336798 L23.5298824,15.8336798 L23.5298824,11.1767152 C23.5298824,10.6623534 23.1084706,10.2453222 22.5887059,10.2453222 L20.7063529,10.2453222 L20.7063529,4.65696466 L20.7063529,4.65696466 Z M14.1181176,12.1081081 L21.6475294,12.1081081 L21.6475294,15.8336798 L14.1181176,15.8336798 L14.1181176,12.1081081 Z M10.3534118,51.2266112 C10.3534118,52.7698129 9.08929412,54.02079 7.52988235,54.02079 C5.97047059,54.02079 4.70635294,52.7698129 4.70635294,51.2266112 C4.70635294,49.6834096 5.97047059,48.4324324 7.52988235,48.4324324 C9.08929412,48.4324324 10.3534118,49.6834096 10.3534118,51.2266112 Z M44.3609412,41.9126819 L8.47105882,41.9126819 L8.47105882,17.6964657 L47.8564706,17.6964657 L44.3609412,41.9126819 Z" id="Shape"></path>
                            <polygon id="Shape" points="6.58870588 50.2952183 8.47105882 50.2952183 8.47105882 52.1580042 6.58870588 52.1580042"></polygon>
                            <polygon id="Shape" points="34.824 50.2952183 36.7063529 50.2952183 36.7063529 52.1580042 34.824 52.1580042"></polygon>
                            <polygon id="Shape" points="12.2357647 19.5592516 14.1181176 19.5592516 14.1181176 40.049896 12.2357647 40.049896"></polygon>
                            <polygon id="Shape" points="17.8828235 19.5592516 19.7651765 19.5592516 19.7651765 40.049896 17.8828235 40.049896"></polygon>
                            <polygon id="Shape" points="23.5298824 19.5592516 25.4122353 19.5592516 25.4122353 40.049896 23.5298824 40.049896"></polygon>
                            <polygon id="Shape" points="29.1769412 19.5592516 31.0592941 19.5592516 31.0592941 40.049896 29.1769412 40.049896"></polygon>
                            <polygon id="Shape" points="34.824 19.5592516 36.7063529 19.5592516 36.7063529 40.049896 34.824 40.049896"></polygon>
                            <polygon id="Shape" points="40.4710588 19.5592516 42.3534118 19.5592516 42.3534118 40.049896 40.4710588 40.049896"></polygon>
                        </g>
                    </g>
                </g>
            </g>
        </g>
    </g>
</svg>