<?xml version="1.0" encoding="UTF-8"?>
<svg width="88px" height="76px" viewBox="0 0 88 76" version="1.1" xmlns="http://www.w3.org/2000/svg" xmlns:xlink="http://www.w3.org/1999/xlink">
    <!-- Generator: sketchtool 54 (76480) - https://sketchapp.com -->
    <title>660D9228-666F-488C-A92E-C5743AF0BF3F</title>
    <desc>Created with sketchtool.</desc>
    <defs>
        <polygon id="path-1" points="0 99.9981132 99.9981132 99.9981132 99.9981132 0 0 0"></polygon>
    </defs>
    <g id="Page-1" stroke="none" stroke-width="1" fill="none" fill-rule="evenodd">
        <g id="NEXT-ORBIT-LANDING-PAGE-New-TItle-Section--V03" transform="translate(-739.000000, -2292.000000)">
            <g id="Group-11" transform="translate(731.000000, 2287.000000)">
                <g id="Page-1-Copy">
                    <path d="M23.3746698,25.2522799 C22.7286006,25.2522799 22.2028145,25.7779088 22.2028145,26.423978 C22.2028145,27.0703616 22.7286006,27.5959906 23.3746698,27.5959906 C24.0208962,27.5959906 24.5466824,27.0703616 24.5466824,26.423978 C24.5466824,25.7779088 24.0208962,25.2522799 23.3746698,25.2522799 Z M23.3746698,28.0703616 C22.4671226,28.0703616 21.7286006,27.3318396 21.7286006,26.423978 C21.7286006,25.5164308 22.4671226,24.7779088 23.3746698,24.7779088 C24.2823742,24.7779088 25.0208962,25.5164308 25.0208962,26.423978 C25.0208962,27.3318396 24.2823742,28.0703616 23.3746698,28.0703616 Z" id="Fill-1" fill="#229DCA"></path>
                    <path d="M23.3747484,9.48003145 C23.3747484,10.7698113 22.3291509,11.815566 21.0392138,11.815566 C19.7492767,11.815566 18.7036792,10.7698113 18.7036792,9.48003145 C18.7036792,8.19009434 19.7492767,7.14449686 21.0392138,7.14449686 C22.3291509,7.14449686 23.3747484,8.19009434 23.3747484,9.48003145" id="Fill-7" fill="#C3E5EA"></path>
                    <mask id="mask-2" fill="white">
                        <use xlink:href="#path-1"></use>
                    </mask>
                    <g id="Clip-10"></g>
                    <polygon id="Fill-9" fill="#173D7A" mask="url(#mask-2)" points="10.0586478 45.4212264 11.2869497 45.4212264 11.2869497 40.2544025 10.0586478 40.2544025"></polygon>
                    <polygon id="Fill-11" fill="#173D7A" mask="url(#mask-2)" points="8.08930818 43.4518868 13.2561321 43.4518868 13.2561321 42.2235849 8.08930818 42.2235849"></polygon>
                    <path d="M92.7944497,37.0637736 C92.7944497,37.7947484 93.3870597,38.3873585 94.1180346,38.3873585 C94.8491667,38.3873585 95.4416195,37.7947484 95.4416195,37.0637736 C95.4416195,36.3327987 94.8491667,35.7401887 94.1180346,35.7401887 C93.3870597,35.7401887 92.7944497,36.3327987 92.7944497,37.0637736" id="Fill-12" fill="#229DCA" mask="url(#mask-2)"></path>
                    <path d="M59.2648742,7.03309748 C59.2648742,7.85322327 59.9298113,8.51800314 60.7499371,8.51800314 C61.5700629,8.51800314 62.235,7.85322327 62.235,7.03309748 C62.235,6.21281447 61.5700629,5.54803459 60.7499371,5.54803459 C59.9298113,5.54803459 59.2648742,6.21281447 59.2648742,7.03309748" id="Fill-13" fill="#E7F5F7" mask="url(#mask-2)"></path>
                    <polygon id="Fill-14" fill="#173D7A" mask="url(#mask-2)" points="84.6133648 17.4463836 85.3735849 17.4463836 85.3735849 14.2487421 84.6133648 14.2487421"></polygon>
                    <polygon id="Fill-15" fill="#173D7A" mask="url(#mask-2)" points="83.3946541 16.227673 86.5922956 16.227673 86.5922956 15.4674528 83.3946541 15.4674528"></polygon>
                </g>
                <g id="008-chat-bubble-copy" transform="translate(19.000000, 11.000000)">
                    <g id="Group">
                        <path d="M63.8275862,3.5 L63.8275862,21 C63.8235789,22.2868653 62.7759631,23.3293457 61.4827586,23.3333333 L42.7241379,23.3333333 L36.862069,29.1666667 L36.862069,23.3333333 L33.3448276,23.3333333 C32.0516231,23.3293457 31.0040073,22.2868653 31,21 L31,3.5 C31.0040073,2.21313473 32.0516231,1.17065433 33.3448276,1.16666667 L61.4827586,1.16666667 C62.7759631,1.17065433 63.8235789,2.21313473 63.8275862,3.5 Z M53.2993332,12.2032878 C54.2404701,11.3305663 54.6274582,10.0169271 54.3091662,8.77677412 C53.9908742,7.53662117 53.0182517,6.56819654 51.7719895,6.25146492 C50.5257274,5.934733 49.2050444,6.32039392 48.3280239,7.25691735 L47.4137931,8.16666667 L46.4995623,7.25691735 C45.6225418,6.32039392 44.3018588,5.934733 43.0555968,6.25146492 C41.8093345,6.56819654 40.8367121,7.53662117 40.51842,8.77677412 C40.200128,10.0169271 40.5871161,11.3305663 41.528253,12.2032878 L47.4137931,18.0599772 L53.2993332,12.2032878 Z" id="Shape" fill="#BDDBFF"></path>
                        <path d="M14.609678,13.0902507 C15.9813106,14.4562988 15.9813106,16.6700033 14.609678,18.0366212 L8.72413793,23.8933106 L2.83859783,18.0366212 C1.89746097,17.1638997 1.51047283,15.8502604 1.82876485,14.6101075 C2.14705688,13.3699545 3.11967934,12.4015299 4.36594158,12.0847983 C5.61220366,11.7680663 6.93288662,12.1537273 7.80990709,13.0902507 L8.72413793,14 L9.63836877,13.0902507 C10.2972791,12.4328613 11.1914737,12.0637207 12.1240235,12.0637207 C13.0565733,12.0637207 13.9513403,12.4328613 14.609678,13.0902507 Z" id="Shape" fill="#BDDBFF"></path>
                        <path d="M12.2413793,68.8333333 L6.37931034,68.8333333 L6.37931034,56.6767578 C6.38389009,53.521403 8.50431034,50.7574056 11.5612877,49.9217122 L17.6815396,48.2651368 L22.7931034,52.5 L27.9046673,48.2651368 L34.0249192,49.9217122 C37.0818966,50.7574056 39.2023168,53.521403 39.2068966,56.6767578 L39.2068966,68.8333333 L12.2413793,68.8333333 Z" id="Shape" fill="#BDDBFF"></path>
                        <path d="M31,32.6666667 L31,36.1666667 L29.0536099,36.1666667 C27.4426858,36.1609701 26.0395677,35.0717774 25.642275,33.5183106 L25.137931,31.5 L24.4343683,32.4331055 C22.6620084,34.7823892 19.8826778,36.1649576 16.9310345,36.1666667 L14.5862069,36.1666667 L14.5862069,32.6666667 C14.5862069,28.1560872 18.2603043,24.5 22.7931034,24.5 C27.3259026,24.5 31,28.1560872 31,32.6666667 Z" id="Shape" fill="#BDDBFF"></path>
                        <g fill="#3D9AE2" id="Shape">
                            <path d="M34.3329069,48.7960611 L27.4827586,46.9418132 L27.4827586,45.1918132 C29.6850418,43.6685384 30.9982826,41.1688639 31,38.5 L31,37.3333333 C31.647461,37.3333333 32.1724138,36.8109538 32.1724138,36.1666667 L32.1724138,32.6666667 C32.1724138,27.5118002 27.9733634,23.3333333 22.7931034,23.3333333 C17.6128435,23.3333333 13.4137931,27.5118002 13.4137931,32.6666667 L13.4137931,36.1666667 C13.4137931,36.8109538 13.9387459,37.3333333 14.5862069,37.3333333 L14.5862069,38.5 C14.5879243,41.1688639 15.9017375,43.6679688 18.1034483,45.1918132 L18.1034483,46.9418132 L11.2492929,48.7972005 C7.68797152,49.7781576 5.21777347,52.9990234 5.20689655,56.6767578 L5.20689655,68.8333333 C5.20689655,69.4776205 5.73184937,70 6.37931034,70 L39.2068966,70 C39.8543575,70 40.3793103,69.4776205 40.3793103,68.8333333 L40.3793103,56.6767578 C40.367861,52.997884 37.8965181,49.7764486 34.3329069,48.7960611 Z M15.7586207,32.6666667 C15.7586207,28.8009441 18.9083379,25.6666667 22.7931034,25.6666667 C26.677869,25.6666667 29.8275862,28.8009441 29.8275862,32.6666667 L29.8275862,35 L29.0570448,35 C27.980233,35.001709 27.0402411,34.2725424 26.7791959,33.2323405 L26.2742793,31.2174479 C26.1643655,30.7810872 25.8122979,30.4461264 25.3686355,30.3566894 C25.2930698,30.3407389 25.2157866,30.3333333 25.137931,30.3333333 C24.7686894,30.3333333 24.4212015,30.5065104 24.2002289,30.7998861 L23.4966662,31.7335611 C21.9424164,33.7843424 19.5128638,34.9931641 16.9310345,35 L15.7586207,35 L15.7586207,32.6666667 Z M16.9310345,38.5 L16.9310345,37.3333333 C19.8219962,37.327067 22.5847252,36.1472983 24.58092,34.0668945 C25.1528151,35.8681641 26.7631668,37.1464844 28.6551724,37.3008627 L28.6551724,38.5 C28.6551724,41.7214356 26.0304082,44.3333333 22.7931034,44.3333333 C19.5557987,44.3333333 16.9310345,41.7214356 16.9310345,38.5 Z M22.7931034,46.6666667 C23.5876886,46.664388 24.377694,46.5464681 25.137931,46.3168945 L25.137931,47.8333333 C25.1419383,48.1677246 25.2907799,48.4838868 25.5472455,48.700358 L22.7931034,50.9835611 L20.0389614,48.7014974 C20.295427,48.485026 20.444841,48.1682943 20.4482759,47.8333333 L20.4482759,46.3168945 C21.2085129,46.5464681 21.9985183,46.664388 22.7931034,46.6666667 Z M38.0344828,67.6666667 L34.5172414,67.6666667 L34.5172414,57.1666667 L32.1724138,57.1666667 L32.1724138,67.6666667 L13.4137931,67.6666667 L13.4137931,57.1666667 L11.0689655,57.1666667 L11.0689655,67.6666667 L7.55172414,67.6666667 L7.55172414,56.6767578 C7.56031119,54.0494792 9.32522891,51.7486165 11.8698478,51.0473632 L17.3998855,49.5508627 L22.0425983,53.4006347 C22.4776737,53.7612305 23.1085332,53.7612305 23.5436086,53.4006347 L28.1863214,49.5508627 L33.7129243,51.046224 C36.258688,51.7469076 38.0247508,54.0483399 38.0344828,56.6767578 L38.0344828,67.6666667 Z"></path>
                            <path d="M61.4827586,0 L33.3448276,0 C31.4024448,0 29.8275862,1.56713871 29.8275862,3.5 L29.8275862,21 C29.8275862,22.9328613 31.4024448,24.5 33.3448276,24.5 L35.6896552,24.5 L35.6896552,29.1666667 C35.6896552,29.6383464 35.9753166,30.0638835 36.4132543,30.2444661 C36.851192,30.4250488 37.3555362,30.3247884 37.6910022,29.9915365 L43.2095905,24.5 L61.4827586,24.5 C63.4251414,24.5 65,22.9328613 65,21 L65,3.5 C65,1.56713871 63.4251414,0 61.4827586,0 Z M62.6551724,21 C62.6551724,21.6442871 62.1302196,22.1666667 61.4827586,22.1666667 L42.7241379,22.1666667 C42.4132879,22.1666667 42.1150323,22.2897135 41.8952047,22.5084635 L38.0344828,26.3502604 L38.0344828,23.3333333 C38.0344828,22.6890462 37.5095299,22.1666667 36.862069,22.1666667 L33.3448276,22.1666667 C32.6973666,22.1666667 32.1724138,21.6442871 32.1724138,21 L32.1724138,3.5 C32.1724138,2.85571285 32.6973666,2.33333333 33.3448276,2.33333333 L61.4827586,2.33333333 C62.1302196,2.33333333 62.6551724,2.85571285 62.6551724,3.5 L62.6551724,21 Z"></path>
                            <path d="M50.8136786,5.06315104 C49.5697064,5.0608724 48.3761112,5.55362952 47.4996633,6.43204756 L47.4137931,6.51692708 L47.3279229,6.43090817 C46.4509026,5.5530599 45.2578798,5.0608724 44.0139076,5.06315104 C42.7710802,5.06770833 41.579775,5.55932621 40.6993198,6.43204756 C38.8702856,8.25382483 38.8702856,11.2063802 40.6993198,13.0281576 L46.5848599,18.884847 C47.0428341,19.3400066 47.7847522,19.3400066 48.2427263,18.884847 L54.1282664,13.0281576 C55.9573006,11.2063802 55.9573006,8.25382483 54.1282664,6.43204756 C53.2478112,5.55932621 52.056506,5.06770833 50.8136786,5.06315104 Z M52.4692552,11.3772786 L47.4137931,16.4102377 L42.3571862,11.3772786 C41.4441002,10.4663899 41.4441002,8.99210608 42.3571862,8.08121737 C42.7974138,7.6454264 43.3927802,7.39933265 44.0139076,7.39648437 C44.6356075,7.39534512 45.2321188,7.6420085 45.6706291,8.08121737 L46.5848599,8.99153646 C47.0428341,9.446696 47.7847522,9.446696 48.2427263,8.99153646 L49.1569571,8.08121737 C50.0854998,7.2045085 51.5412849,7.2045085 52.4692552,8.08121737 C53.382341,8.99210608 53.382341,10.4663899 52.4692552,11.3772786 L52.4692552,11.3772786 Z"></path>
                            <path d="M7.89520474,24.7181804 C8.35317888,25.1733399 9.09509698,25.1733399 9.55307112,24.7181804 L15.4386112,18.861491 C17.2676455,17.0397135 17.2676455,14.0871582 15.4386112,12.2653809 C14.558156,11.3926595 13.3668508,10.9010417 12.1240235,10.8964844 C10.8800513,10.8942057 9.68645605,11.3869629 8.81000816,12.2653809 L8.72413793,12.3502604 L8.63826771,12.2642415 C7.76124738,11.3863932 6.5682246,10.8942057 5.32425239,10.8964844 C4.08142503,10.9010417 2.89011984,11.3926595 2.00966464,12.2653809 C0.180630388,14.0871582 0.180630388,17.0397135 2.00966464,18.861491 L7.89520474,24.7181804 Z M3.66753102,13.9145507 C4.10775862,13.4787597 4.703125,13.232666 5.32425239,13.2298177 C5.94595235,13.2286785 6.54246359,13.4753418 6.98097391,13.9145507 L7.89520474,14.8248698 C8.35317888,15.2800293 9.09509698,15.2800293 9.55307112,14.8248698 L10.467302,13.9145507 C11.3958446,13.0378418 12.8516298,13.0378418 13.7796,13.9145507 C14.6926858,14.8254394 14.6926858,16.2997233 13.7796,17.210612 L8.72413793,22.243571 L3.66753102,17.210612 C2.75444504,16.2997233 2.75444504,14.8254394 3.66753102,13.9145507 Z"></path>
                            <path d="M49.7586207,40.8333333 C49.7586207,38.900472 48.1837621,37.3333333 46.2413793,37.3333333 C44.2989965,37.3333333 42.7241379,38.900472 42.7241379,40.8333333 C42.7241379,42.7661946 44.2989965,44.3333333 46.2413793,44.3333333 C48.1837621,44.3333333 49.7586207,42.7661946 49.7586207,40.8333333 Z M45.0689655,40.8333333 C45.0689655,40.1890462 45.5939183,39.6666667 46.2413793,39.6666667 C46.8888403,39.6666667 47.4137931,40.1890462 47.4137931,40.8333333 C47.4137931,41.4776205 46.8888403,42 46.2413793,42 C45.5939183,42 45.0689655,41.4776205 45.0689655,40.8333333 Z"></path>
                        </g>
                    </g>
                </g>
            </g>
        </g>
    </g>
</svg>