<?xml version="1.0" encoding="UTF-8"?>
<svg width="88px" height="73px" viewBox="0 0 88 73" version="1.1" xmlns="http://www.w3.org/2000/svg" xmlns:xlink="http://www.w3.org/1999/xlink">
    <!-- Generator: sketchtool 54 (76480) - https://sketchapp.com -->
    <title>36AA452F-FD37-46B0-8DAA-1DBAEB4D54BA</title>
    <desc>Created with sketchtool.</desc>
    <defs>
        <polygon id="path-1" points="0 99.9981132 99.9981132 99.9981132 99.9981132 0 0 0"></polygon>
    </defs>
    <g id="Page-1" stroke="none" stroke-width="1" fill="none" fill-rule="evenodd">
        <g id="NEXT-ORBIT-LANDING-PAGE-New-TItle-Section--V03" transform="translate(-183.000000, -2032.000000)">
            <g id="Group-6" transform="translate(179.000000, 2027.000000)">
                <g id="Page-1" transform="translate(50.000000, 50.000000) scale(-1, 1) translate(-50.000000, -50.000000) ">
                    <path d="M23.3746698,25.2522799 C22.7286006,25.2522799 22.2028145,25.7779088 22.2028145,26.423978 C22.2028145,27.0703616 22.7286006,27.5959906 23.3746698,27.5959906 C24.0208962,27.5959906 24.5466824,27.0703616 24.5466824,26.423978 C24.5466824,25.7779088 24.0208962,25.2522799 23.3746698,25.2522799 Z M23.3746698,28.0703616 C22.4671226,28.0703616 21.7286006,27.3318396 21.7286006,26.423978 C21.7286006,25.5164308 22.4671226,24.7779088 23.3746698,24.7779088 C24.2823742,24.7779088 25.0208962,25.5164308 25.0208962,26.423978 C25.0208962,27.3318396 24.2823742,28.0703616 23.3746698,28.0703616 Z" id="Fill-1" fill="#229DCA"></path>
                    <path d="M23.3747484,9.48003145 C23.3747484,10.7698113 22.3291509,11.815566 21.0392138,11.815566 C19.7492767,11.815566 18.7036792,10.7698113 18.7036792,9.48003145 C18.7036792,8.19009434 19.7492767,7.14449686 21.0392138,7.14449686 C22.3291509,7.14449686 23.3747484,8.19009434 23.3747484,9.48003145" id="Fill-7" fill="#C3E5EA"></path>
                    <mask id="mask-2" fill="white">
                        <use xlink:href="#path-1"></use>
                    </mask>
                    <g id="Clip-10"></g>
                    <polygon id="Fill-9" fill="#173D7A" mask="url(#mask-2)" points="10.0586478 45.4212264 11.2869497 45.4212264 11.2869497 40.2544025 10.0586478 40.2544025"></polygon>
                    <polygon id="Fill-11" fill="#173D7A" mask="url(#mask-2)" points="8.08930818 43.4518868 13.2561321 43.4518868 13.2561321 42.2235849 8.08930818 42.2235849"></polygon>
                    <path d="M92.7944497,37.0637736 C92.7944497,37.7947484 93.3870597,38.3873585 94.1180346,38.3873585 C94.8491667,38.3873585 95.4416195,37.7947484 95.4416195,37.0637736 C95.4416195,36.3327987 94.8491667,35.7401887 94.1180346,35.7401887 C93.3870597,35.7401887 92.7944497,36.3327987 92.7944497,37.0637736" id="Fill-12" fill="#229DCA" mask="url(#mask-2)"></path>
                    <path d="M59.2648742,7.03309748 C59.2648742,7.85322327 59.9298113,8.51800314 60.7499371,8.51800314 C61.5700629,8.51800314 62.235,7.85322327 62.235,7.03309748 C62.235,6.21281447 61.5700629,5.54803459 60.7499371,5.54803459 C59.9298113,5.54803459 59.2648742,6.21281447 59.2648742,7.03309748" id="Fill-13" fill="#E7F5F7" mask="url(#mask-2)"></path>
                    <polygon id="Fill-14" fill="#173D7A" mask="url(#mask-2)" points="84.6133648 17.4463836 85.3735849 17.4463836 85.3735849 14.2487421 84.6133648 14.2487421"></polygon>
                    <polygon id="Fill-15" fill="#173D7A" mask="url(#mask-2)" points="83.3946541 16.227673 86.5922956 16.227673 86.5922956 15.4674528 83.3946541 15.4674528"></polygon>
                </g>
                <g id="006-delivery-truck-copy" transform="translate(12.000000, 28.000000)">
                    <g id="Capa_1">
                        <path d="M22.1666667,33.7209302 L22.1666667,15.1162791 L5.83333333,15.1162791 L4.66666667,19.7674419 L17.5,19.7674419 L17.5,31.3953488 L1.75,31.3953488 L1.16666667,33.7209302 L1.16666667,43.0232558 L7.15166667,43.0232558 C7.80339583,40.537936 10.3531458,39.0498547 12.84675,39.6994186 C14.4796458,40.1248547 15.7549583,41.3957849 16.1816667,43.0232558 L53.8183333,43.0232558 C54.4700625,40.537936 57.0198125,39.0498547 59.5134167,39.6994186 C61.1463125,40.1248547 62.421625,41.3957849 62.8483333,43.0232558 L68.8333333,43.0232558 L68.8333333,33.7209302 L22.1666667,33.7209302 Z" id="Shape" fill="#78B9EB"></path>
                        <g id="Group" fill="#1E81CE">
                            <path d="M68.8333333,0 L22.1666667,0 C21.522375,0 21,0.520639535 21,1.1627907 L21,13.9534884 L5.83333333,13.9534884 C5.29827083,13.9534884 4.83175,14.3164244 4.70166667,14.8337209 L0.035,33.4383721 C0.0118125,33.530814 0,33.6257267 0,33.7209302 L0,43.0232558 C0,43.665407 0.522375,44.1860465 1.16666667,44.1860465 L5.83333333,44.1860465 C5.83333333,47.3969477 8.4450625,50 11.6666667,50 C14.8882708,50 17.5,47.3969477 17.5,44.1860465 L52.5,44.1860465 C52.5,47.3969477 55.1117292,50 58.3333333,50 C61.5549375,50 64.1666667,47.3969477 64.1666667,44.1860465 L68.8333333,44.1860465 C69.477625,44.1860465 70,43.665407 70,43.0232558 L70,1.1627907 C70,0.520639535 69.477625,0 68.8333333,0 Z M23.3333333,2.3255814 L67.6666667,2.3255814 L67.6666667,32.5581395 L23.3333333,32.5581395 L23.3333333,2.3255814 Z M5.57783333,20.9302326 L16.3333333,20.9302326 L16.3333333,30.2325581 L3.2445,30.2325581 L5.57783333,20.9302326 Z M11.6666667,47.6744186 C9.73364583,47.6744186 8.16666667,46.1126453 8.16666667,44.1860465 C8.16389583,43.8901163 8.20327083,43.5953488 8.28333333,43.3104651 C8.67839583,41.7704942 10.0718333,40.6944767 11.6666667,40.6976744 C13.2722917,40.6947674 14.6724375,41.7848837 15.0581667,43.3383721 C15.1338542,43.6145349 15.1704583,43.8998547 15.1666667,44.1860465 C15.1666667,46.1126453 13.5996875,47.6744186 11.6666667,47.6744186 Z M58.3333333,47.6744186 C56.4003125,47.6744186 54.8333333,46.1126453 54.8333333,44.1860465 C54.8305625,43.8901163 54.8699375,43.5953488 54.95,43.3104651 C55.3450625,41.7704942 56.7385,40.6944767 58.3333333,40.6976744 C59.9389583,40.6947674 61.3391042,41.7848837 61.7248333,43.3383721 C61.8005208,43.6145349 61.837125,43.8998547 61.8333333,44.1860465 C61.8333333,46.1126453 60.2663542,47.6744186 58.3333333,47.6744186 Z M67.6666667,41.8604651 L63.6801667,41.8604651 L63.6661667,41.8337209 C63.637,41.7686047 63.5973333,41.7093023 63.5658333,41.644186 C63.4671042,41.4353198 63.3556875,41.2325581 63.2321667,41.0372093 C63.1726667,40.944186 63.1038333,40.8604651 63.0396667,40.772093 C62.923,40.6186047 62.8063333,40.4662791 62.6896667,40.3244186 C62.6091667,40.2348837 62.524,40.1534884 62.4388333,40.0686047 C62.3116667,39.9430233 62.181,39.8209302 62.0421667,39.7069767 C61.9476667,39.6290698 61.8496667,39.555814 61.7505,39.4837209 C61.6058333,39.3802326 61.4576667,39.2837209 61.3036667,39.1930233 C61.1986667,39.1313953 61.0936667,39.0697674 60.984,39.0151163 C60.8206667,38.9313953 60.6515,38.8604651 60.48,38.7930233 C60.3703333,38.75 60.2641667,38.7034884 60.1521667,38.6674419 C59.9577708,38.6068314 59.7603125,38.5563953 59.5606667,38.5162791 C59.4615,38.4953488 59.3658333,38.4662791 59.2655,38.45 C58.6508125,38.3460756 58.0228542,38.3460756 57.4081667,38.45 C57.3066667,38.4662791 57.2098333,38.4953488 57.1095,38.5162791 C56.912625,38.55625 56.7179375,38.60625 56.5261667,38.6662791 C56.4095,38.7034884 56.2928333,38.7523256 56.1843333,38.7965116 C56.0198333,38.8627907 55.8576667,38.9302326 55.7013333,39.0093023 C55.5846667,39.0686047 55.468,39.1348837 55.3513333,39.2034884 C55.2113333,39.2860465 55.076,39.3732558 54.9441667,39.4674419 C54.8123333,39.5616279 54.7178333,39.6337209 54.6093333,39.7232558 C54.5008333,39.8127907 54.376,39.9232558 54.2733333,40.0290698 C54.1706667,40.1348837 54.061,40.2348837 53.963,40.3453488 C53.865,40.455814 53.7798333,40.5709302 53.6923333,40.6872093 C53.6048333,40.8034884 53.5045,40.9267442 53.4228333,41.0569767 C53.3411667,41.1872093 53.2723333,41.3244186 53.2,41.4593023 C53.1276667,41.594186 53.0565,41.7093023 52.9981667,41.8430233 L52.9865,41.8604651 L17.0135,41.8604651 L16.9995,41.8337209 C16.9703333,41.7686047 16.9306667,41.7093023 16.8991667,41.644186 C16.8004375,41.4353198 16.6890208,41.2325581 16.5655,41.0372093 C16.506,40.944186 16.4371667,40.8604651 16.373,40.772093 C16.2563333,40.6186047 16.1455,40.4662791 16.023,40.3244186 C15.9425,40.2348837 15.8573333,40.1534884 15.7721667,40.0686047 C15.645,39.9430233 15.5143333,39.8209302 15.3755,39.7069767 C15.281,39.6290698 15.183,39.555814 15.0838333,39.4837209 C14.9391667,39.3802326 14.791,39.2837209 14.637,39.1930233 C14.532,39.1313953 14.427,39.0697674 14.3173333,39.0151163 C14.154,38.9313953 13.9848333,38.8604651 13.8133333,38.7930233 C13.7036667,38.75 13.5975,38.7034884 13.4855,38.6674419 C13.2911042,38.6068314 13.0936458,38.5563953 12.894,38.5162791 C12.7948333,38.4953488 12.6991667,38.4662791 12.5988333,38.45 C11.9841458,38.3460756 11.3561875,38.3460756 10.7415,38.45 C10.64,38.4662791 10.5431667,38.4953488 10.4428333,38.5162791 C10.2459583,38.55625 10.0512708,38.60625 9.8595,38.6662791 C9.74283333,38.7034884 9.62616667,38.7523256 9.51766667,38.7965116 C9.35316667,38.8627907 9.191,38.9302326 9.03466667,39.0093023 C8.918,39.0686047 8.80133333,39.1348837 8.68466667,39.2034884 C8.54466667,39.2860465 8.40933333,39.3732558 8.2775,39.4674419 C8.14566667,39.5616279 8.05116667,39.6337209 7.94266667,39.7232558 C7.83416667,39.8127907 7.71516667,39.9232558 7.60666667,40.0290698 C7.49816667,40.1348837 7.39433333,40.2348837 7.29633333,40.3453488 C7.19833333,40.455814 7.11316667,40.5709302 7.02566667,40.6872093 C6.93816667,40.8034884 6.83783333,40.9267442 6.75616667,41.0569767 C6.6745,41.1872093 6.60566667,41.3244186 6.53333333,41.4593023 C6.461,41.594186 6.38983333,41.7093023 6.3315,41.8430233 L6.31983333,41.8604651 L2.33333333,41.8604651 L2.33333333,37.2093023 L5.83333333,37.2093023 L5.83333333,34.8837209 L2.33333333,34.8837209 L2.33333333,33.8639535 L2.66116667,32.5581395 L17.5,32.5581395 C18.1442917,32.5581395 18.6666667,32.0375 18.6666667,31.3953488 L18.6666667,19.7674419 C18.6666667,19.1252907 18.1442917,18.6046512 17.5,18.6046512 L6.16116667,18.6046512 L6.7445,16.2790698 L21,16.2790698 L21,33.7209302 C21,34.3630814 21.522375,34.8837209 22.1666667,34.8837209 L67.6666667,34.8837209 L67.6666667,41.8604651 Z" id="Shape"></path>
                            <polygon id="Shape" points="10.5 43.0232558 12.8333333 43.0232558 12.8333333 45.3488372 10.5 45.3488372"></polygon>
                            <polygon id="Shape" points="57.1666667 43.0232558 59.5 43.0232558 59.5 45.3488372 57.1666667 45.3488372"></polygon>
                            <polygon id="Shape" points="26.8333333 4.65116279 29.1666667 4.65116279 29.1666667 30.2325581 26.8333333 30.2325581"></polygon>
                            <polygon id="Shape" points="33.8333333 4.65116279 36.1666667 4.65116279 36.1666667 30.2325581 33.8333333 30.2325581"></polygon>
                            <polygon id="Shape" points="40.8333333 4.65116279 43.1666667 4.65116279 43.1666667 30.2325581 40.8333333 30.2325581"></polygon>
                            <polygon id="Shape" points="47.8333333 4.65116279 50.1666667 4.65116279 50.1666667 30.2325581 47.8333333 30.2325581"></polygon>
                            <polygon id="Shape" points="54.8333333 4.65116279 57.1666667 4.65116279 57.1666667 30.2325581 54.8333333 30.2325581"></polygon>
                            <polygon id="Shape" points="61.8333333 4.65116279 64.1666667 4.65116279 64.1666667 30.2325581 61.8333333 30.2325581"></polygon>
                        </g>
                    </g>
                </g>
            </g>
        </g>
    </g>
</svg>