<?xml version="1.0" encoding="UTF-8"?>
<svg width="88px" height="62px" viewBox="0 0 88 62" version="1.1" xmlns="http://www.w3.org/2000/svg" xmlns:xlink="http://www.w3.org/1999/xlink">
    <!-- Generator: sketchtool 54 (76480) - https://sketchapp.com -->
    <title>40F3D1B0-2A1A-400A-A713-AA7A5F040579</title>
    <desc>Created with sketchtool.</desc>
    <defs>
        <polygon id="path-1" points="0 99.9981132 99.9981132 99.9981132 99.9981132 0 0 0"></polygon>
    </defs>
    <g id="Page-1" stroke="none" stroke-width="1" fill="none" fill-rule="evenodd">
        <g id="NEXT-ORBIT-LANDING-PAGE-New-TItle-Section--V03" transform="translate(-178.000000, -2297.000000)">
            <g id="Group-13" transform="translate(170.000000, 2292.000000)">
                <g id="Page-1-Copy">
                    <path d="M23.3746698,25.2522799 C22.7286006,25.2522799 22.2028145,25.7779088 22.2028145,26.423978 C22.2028145,27.0703616 22.7286006,27.5959906 23.3746698,27.5959906 C24.0208962,27.5959906 24.5466824,27.0703616 24.5466824,26.423978 C24.5466824,25.7779088 24.0208962,25.2522799 23.3746698,25.2522799 Z M23.3746698,28.0703616 C22.4671226,28.0703616 21.7286006,27.3318396 21.7286006,26.423978 C21.7286006,25.5164308 22.4671226,24.7779088 23.3746698,24.7779088 C24.2823742,24.7779088 25.0208962,25.5164308 25.0208962,26.423978 C25.0208962,27.3318396 24.2823742,28.0703616 23.3746698,28.0703616 Z" id="Fill-1" fill="#229DCA"></path>
                    <path d="M23.3747484,9.48003145 C23.3747484,10.7698113 22.3291509,11.815566 21.0392138,11.815566 C19.7492767,11.815566 18.7036792,10.7698113 18.7036792,9.48003145 C18.7036792,8.19009434 19.7492767,7.14449686 21.0392138,7.14449686 C22.3291509,7.14449686 23.3747484,8.19009434 23.3747484,9.48003145" id="Fill-7" fill="#C3E5EA"></path>
                    <mask id="mask-2" fill="white">
                        <use xlink:href="#path-1"></use>
                    </mask>
                    <g id="Clip-10"></g>
                    <polygon id="Fill-9" fill="#173D7A" mask="url(#mask-2)" points="10.0586478 45.4212264 11.2869497 45.4212264 11.2869497 40.2544025 10.0586478 40.2544025"></polygon>
                    <polygon id="Fill-11" fill="#173D7A" mask="url(#mask-2)" points="8.08930818 43.4518868 13.2561321 43.4518868 13.2561321 42.2235849 8.08930818 42.2235849"></polygon>
                    <path d="M92.7944497,37.0637736 C92.7944497,37.7947484 93.3870597,38.3873585 94.1180346,38.3873585 C94.8491667,38.3873585 95.4416195,37.7947484 95.4416195,37.0637736 C95.4416195,36.3327987 94.8491667,35.7401887 94.1180346,35.7401887 C93.3870597,35.7401887 92.7944497,36.3327987 92.7944497,37.0637736" id="Fill-12" fill="#229DCA" mask="url(#mask-2)"></path>
                    <path d="M59.2648742,7.03309748 C59.2648742,7.85322327 59.9298113,8.51800314 60.7499371,8.51800314 C61.5700629,8.51800314 62.235,7.85322327 62.235,7.03309748 C62.235,6.21281447 61.5700629,5.54803459 60.7499371,5.54803459 C59.9298113,5.54803459 59.2648742,6.21281447 59.2648742,7.03309748" id="Fill-13" fill="#E7F5F7" mask="url(#mask-2)"></path>
                    <polygon id="Fill-14" fill="#173D7A" mask="url(#mask-2)" points="84.6133648 17.4463836 85.3735849 17.4463836 85.3735849 14.2487421 84.6133648 14.2487421"></polygon>
                    <polygon id="Fill-15" fill="#173D7A" mask="url(#mask-2)" points="83.3946541 16.227673 86.5922956 16.227673 86.5922956 15.4674528 83.3946541 15.4674528"></polygon>
                </g>
                <g id="007-trolley-copy" transform="translate(24.000000, 17.000000)">
                    <g id="Capa_1">
                        <g id="Group" transform="translate(2.606557, 6.511057)" fill="#78B9EB">
                            <polygon id="Shape" points="30.4926253 0.122358722 23.8728384 0.122358722 23.8728384 4.05356265 18.5769344 4.05356265 18.5769344 0.122358722 11.9571475 0.122358722 11.9571475 13.2264128 30.4926253 13.2264128"></polygon>
                            <polygon id="Shape" points="11.9570234 21.0886978 6.66124356 21.0886978 6.66124356 17.1574939 0.0413325527 17.1574939 0.0413325527 30.2615479 18.5768103 30.2615479 18.5768103 17.1574939 11.9570234 17.1574939"></polygon>
                            <polygon id="Shape" points="41.0843091 17.1574939 34.4645222 17.1574939 34.4645222 21.0886978 29.1686183 21.0886978 29.1686183 17.1574939 22.5488314 17.1574939 22.5488314 30.2615479 41.0843091 30.2615479"></polygon>
                        </g>
                        <g id="Group" fill="#1E81CE">
                            <path d="M38.6386136,44.6350123 L10.3481569,44.6350123 C9.6169555,42.5880835 7.347637,41.5153563 5.27939578,42.2390663 C3.21115457,42.9627764 2.12744731,45.2088452 2.85864871,47.255774 C3.58985012,49.3027027 5.85916862,50.37543 7.92740984,49.6517199 C9.05853162,49.2558968 9.94823653,48.3753071 10.3481569,47.255774 L38.6386136,47.255774 C39.369815,49.3027027 41.6391335,50.37543 43.7073747,49.6517199 C45.7754918,48.9280098 46.8593232,46.681941 46.1281218,44.6348894 C45.3969204,42.5879607 43.1276019,41.5152334 41.0593607,42.2389435 C39.9282389,42.6348894 39.038534,43.5154791 38.6386136,44.6350123 Z M6.61978689,47.255774 C5.88858548,47.255774 5.29577986,46.6690418 5.29577986,45.9453317 C5.29577986,45.2216216 5.88858548,44.6348894 6.61978689,44.6348894 C7.35098829,44.6348894 7.94379391,45.2217445 7.94379391,45.9454545 C7.94379391,46.6691646 7.35098829,47.255774 6.61978689,47.255774 Z M42.3668595,44.6350123 C43.0980609,44.6350123 43.6908665,45.2217445 43.6908665,45.9454545 C43.6908665,46.6691646 43.0980609,47.2558968 42.3668595,47.2558968 C41.6356581,47.2558968 41.0428525,46.6691646 41.0428525,45.9454545 C41.0429766,45.2217445 41.6356581,44.6350123 42.3668595,44.6350123 Z" id="Shape"></path>
                            <path d="M47.6627635,0.0813267813 C46.9315621,0.0813267813 46.3387564,0.668058968 46.3387564,1.39176904 L46.3387564,39.3933661 L0,39.3933661 L0,42.0141278 L47.6627635,42.0141278 C48.3939649,42.0141278 48.9867705,41.4273956 48.9867705,40.7036855 L48.9867705,2.7022113 L52.9586674,2.7022113 L52.9586674,0.0813267813 L47.6627635,0.0813267813 Z" id="Shape"></path>
                            <path d="M14.5635808,21.0477887 L33.0990585,21.0477887 C33.83026,21.0477887 34.4230656,20.4610565 34.4230656,19.7373464 L34.4230656,6.63341523 C34.4230656,5.90970516 33.83026,5.32297297 33.0990585,5.32297297 L14.5635808,5.32297297 C13.8323794,5.32297297 13.2395738,5.90970516 13.2395738,6.63341523 L13.2395738,19.7374693 C13.2396979,20.4610565 13.8323794,21.0477887 14.5635808,21.0477887 Z M25.1553888,7.94373464 L25.1553888,9.2541769 L22.5074988,9.2541769 L22.5074988,7.94373464 L25.1553888,7.94373464 Z M15.8875878,7.94373464 L19.8594848,7.94373464 L19.8594848,10.5644963 C19.8594848,11.2882064 20.4522904,11.8749386 21.1834918,11.8749386 L26.4793958,11.8749386 C27.2105972,11.8749386 27.8034028,11.2882064 27.8034028,10.5644963 L27.8034028,7.94373464 L31.7752998,7.94373464 L31.7752998,18.4269042 L15.8875878,18.4269042 L15.8875878,7.94373464 Z" id="Shape"></path>
                            <path d="M2.64788993,38.0830467 L21.1833677,38.0830467 C21.9145691,38.0830467 22.5073747,37.4963145 22.5073747,36.7726044 L22.5073747,23.6685504 C22.5073747,22.9448403 21.9145691,22.3581081 21.1833677,22.3581081 L2.64788993,22.3581081 C1.91668852,22.3581081 1.3238829,22.9448403 1.3238829,23.6685504 L1.3238829,36.7726044 C1.32400703,37.4963145 1.91668852,38.0830467 2.64788993,38.0830467 Z M13.2396979,24.9789926 L13.2396979,26.2894349 L10.5916838,26.2894349 L10.5916838,24.9789926 L13.2396979,24.9789926 Z M3.97189696,24.9789926 L7.94379391,24.9789926 L7.94379391,27.5997543 C7.94379391,28.3234644 8.53659953,28.9101966 9.26780094,28.9101966 L14.5637049,28.9101966 C15.2949063,28.9101966 15.8877119,28.3234644 15.8877119,27.5997543 L15.8877119,24.9789926 L19.8596089,24.9789926 L19.8596089,35.4621622 L3.97189696,35.4621622 L3.97189696,24.9789926 Z" id="Shape"></path>
                            <path d="M25.1553888,22.358231 C24.4241874,22.358231 23.8313817,22.9449631 23.8313817,23.6686732 L23.8313817,36.7727273 C23.8313817,37.4964373 24.4241874,38.0831695 25.1553888,38.0831695 L43.6908665,38.0831695 C44.4220679,38.0831695 45.0148735,37.4964373 45.0148735,36.7727273 L45.0148735,23.6685504 C45.0148735,22.9448403 44.4220679,22.3581081 43.6908665,22.3581081 L25.1553888,22.3581081 L25.1553888,22.358231 Z M42.3668595,35.4621622 L26.4792717,35.4621622 L26.4792717,24.9789926 L30.4511686,24.9789926 L30.4511686,27.5997543 C30.4511686,28.3234644 31.0439742,28.9101966 31.7751756,28.9101966 L37.0710796,28.9101966 C37.802281,28.9101966 38.3950867,28.3234644 38.3950867,27.5997543 L38.3950867,24.9789926 L42.3669836,24.9789926 L42.3669836,35.4621622 L42.3668595,35.4621622 Z M35.7470726,24.9789926 L35.7470726,26.2894349 L33.0991827,26.2894349 L33.0991827,24.9789926 L35.7470726,24.9789926 Z" id="Shape"></path>
                        </g>
                    </g>
                </g>
            </g>
        </g>
    </g>
</svg>