<?xml version="1.0" encoding="UTF-8"?>
<svg width="88px" height="73px" viewBox="0 0 88 73" version="1.1" xmlns="http://www.w3.org/2000/svg" xmlns:xlink="http://www.w3.org/1999/xlink">
    <!-- Generator: sketchtool 54 (76480) - https://sketchapp.com -->
    <title>0C37EB7F-0CFD-4CEB-8B31-BC59C4E19838</title>
    <desc>Created with sketchtool.</desc>
    <defs>
        <polygon id="path-1" points="0 99.9981132 99.9981132 99.9981132 99.9981132 0 0 0"></polygon>
    </defs>
    <g id="Page-1" stroke="none" stroke-width="1" fill="none" fill-rule="evenodd">
        <g id="NEXT-ORBIT-LANDING-PAGE-New-TItle-Section--V03" transform="translate(-460.000000, -2032.000000)">
            <g id="Group-7" transform="translate(452.000000, 2027.000000)">
                <g id="Page-1-Copy">
                    <path d="M23.3746698,25.2522799 C22.7286006,25.2522799 22.2028145,25.7779088 22.2028145,26.423978 C22.2028145,27.0703616 22.7286006,27.5959906 23.3746698,27.5959906 C24.0208962,27.5959906 24.5466824,27.0703616 24.5466824,26.423978 C24.5466824,25.7779088 24.0208962,25.2522799 23.3746698,25.2522799 Z M23.3746698,28.0703616 C22.4671226,28.0703616 21.7286006,27.3318396 21.7286006,26.423978 C21.7286006,25.5164308 22.4671226,24.7779088 23.3746698,24.7779088 C24.2823742,24.7779088 25.0208962,25.5164308 25.0208962,26.423978 C25.0208962,27.3318396 24.2823742,28.0703616 23.3746698,28.0703616 Z" id="Fill-1" fill="#229DCA"></path>
                    <path d="M23.3747484,9.48003145 C23.3747484,10.7698113 22.3291509,11.815566 21.0392138,11.815566 C19.7492767,11.815566 18.7036792,10.7698113 18.7036792,9.48003145 C18.7036792,8.19009434 19.7492767,7.14449686 21.0392138,7.14449686 C22.3291509,7.14449686 23.3747484,8.19009434 23.3747484,9.48003145" id="Fill-7" fill="#C3E5EA"></path>
                    <mask id="mask-2" fill="white">
                        <use xlink:href="#path-1"></use>
                    </mask>
                    <g id="Clip-10"></g>
                    <polygon id="Fill-9" fill="#173D7A" mask="url(#mask-2)" points="10.0586478 45.4212264 11.2869497 45.4212264 11.2869497 40.2544025 10.0586478 40.2544025"></polygon>
                    <polygon id="Fill-11" fill="#173D7A" mask="url(#mask-2)" points="8.08930818 43.4518868 13.2561321 43.4518868 13.2561321 42.2235849 8.08930818 42.2235849"></polygon>
                    <path d="M92.7944497,37.0637736 C92.7944497,37.7947484 93.3870597,38.3873585 94.1180346,38.3873585 C94.8491667,38.3873585 95.4416195,37.7947484 95.4416195,37.0637736 C95.4416195,36.3327987 94.8491667,35.7401887 94.1180346,35.7401887 C93.3870597,35.7401887 92.7944497,36.3327987 92.7944497,37.0637736" id="Fill-12" fill="#229DCA" mask="url(#mask-2)"></path>
                    <path d="M59.2648742,7.03309748 C59.2648742,7.85322327 59.9298113,8.51800314 60.7499371,8.51800314 C61.5700629,8.51800314 62.235,7.85322327 62.235,7.03309748 C62.235,6.21281447 61.5700629,5.54803459 60.7499371,5.54803459 C59.9298113,5.54803459 59.2648742,6.21281447 59.2648742,7.03309748" id="Fill-13" fill="#E7F5F7" mask="url(#mask-2)"></path>
                    <polygon id="Fill-14" fill="#173D7A" mask="url(#mask-2)" points="84.6133648 17.4463836 85.3735849 17.4463836 85.3735849 14.2487421 84.6133648 14.2487421"></polygon>
                    <polygon id="Fill-15" fill="#173D7A" mask="url(#mask-2)" points="83.3946541 16.227673 86.5922956 16.227673 86.5922956 15.4674528 83.3946541 15.4674528"></polygon>
                </g>
                <g id="002-success" transform="translate(15.000000, 8.000000)">
                    <g id="Group">
                        <path d="M50.1666667,61.8333333 C49.7604981,61.8367514 49.358317,61.9119465 48.9777832,62.0549316 C48.9777832,61.9803059 49,61.9090983 49,61.8333333 C49.0039877,60.1152344 47.7569986,58.6494955 46.0605469,58.3783366 C44.3635254,58.1071778 42.7223307,59.1109212 42.190267,60.7447102 C41.9356283,60.69458 41.6764323,60.6683757 41.4166667,60.6666667 C39.8438314,60.6695149 38.4134115,61.578125 37.7417806,63 L32.2582194,63 C31.5865885,61.578125 30.1561686,60.6695149 28.5833333,60.6666667 C28.3235677,60.6683757 28.0643717,60.69458 27.809733,60.7447102 C27.2776693,59.1109212 25.6364746,58.1071778 23.9394531,58.3783366 C22.2430014,58.6494955 20.9960123,60.1152344 21,61.8333333 C21,61.9090983 21.0176595,61.9803059 21.0222168,62.0549316 C20.641683,61.9119465 20.2395019,61.8367514 19.8333333,61.8333333 C17.900472,61.8333333 16.3333333,63.400472 16.3333333,65.3333333 C16.3333333,67.2661946 17.900472,68.8333333 19.8333333,68.8333333 L50.1666667,68.8333333 C52.099528,68.8333333 53.6666667,67.2661946 53.6666667,65.3333333 C53.6666667,63.400472 52.099528,61.8333333 50.1666667,61.8333333 Z" id="Shape" fill="#BDDBFF"></path>
                        <polygon id="Shape" fill="#BDDBFF" points="43.1666667 36.1666667 45.5 45.5 40.8333333 45.5 40.8333333 36.1666667"></polygon>
                        <path d="M35,45.5 L29.1666667,45.5 L29.1666667,25.6900228 L35,19.8333333 L40.8333333,25.7948405 L40.8333333,45.5 L35,45.5 Z M37.3333333,28 C37.3333333,26.7114257 36.2885743,25.6666667 35,25.6666667 C33.7114257,25.6666667 32.6666667,26.7114257 32.6666667,28 C32.6666667,29.2885743 33.7114257,30.3333333 35,30.3333333 C36.2868653,30.3293457 37.3293457,29.2868653 37.3333333,28 Z" id="Shape" fill="#BDDBFF"></path>
                        <polygon id="Shape" fill="#BDDBFF" points="39.6666667 45.5 38.5 49 31.5 49 30.3333333 45.5"></polygon>
                        <path d="M35,53.6666667 C36.9328613,53.6666667 38.5,55.2338054 38.5,57.1666667 C38.5,59.1035156 35,63 35,63 C35,63 31.5,59.1035156 31.5,57.1666667 C31.5,55.2338054 33.0671387,53.6666667 35,53.6666667 Z" id="Shape" fill="#BDDBFF"></path>
                        <polygon id="Shape" fill="#BDDBFF" points="29.1666667 36.1666667 29.1666667 45.5 24.5 45.5 26.8333333 36.1666667"></polygon>
                        <g fill="#3D9AE2" id="Shape">
                            <path d="M23.5805663,46.2177734 C23.8015951,46.5008951 24.1405436,46.6666667 24.5,46.6666667 L29.4930826,46.6666667 L30.3937174,49.368571 C30.552653,49.844808 30.9981283,50.166097 31.5,50.1666667 L38.5,50.1666667 C39.0018717,50.166097 39.447347,49.844808 39.6062826,49.368571 L40.5069174,46.6666667 L45.5,46.6666667 C45.8588868,46.6666667 46.1984049,46.5008951 46.4194337,46.2183431 C46.6404622,45.9352214 46.7185059,45.5660807 46.6319174,45.2174479 L44.298584,35.8841146 C44.1687012,35.3645833 43.7021484,35 43.1666667,35 L42,35 L42,25.7914226 C42,25.486084 41.8809408,25.193278 41.6673177,24.9750976 L35.8339844,19.0164389 C35.615804,18.7942708 35.3178712,18.6678059 35.0056965,18.6666667 C34.6918132,18.6535644 34.3876139,18.7788899 34.173991,19.0096028 L28.3406576,24.8628743 C28.1219076,25.0810547 27.9994304,25.3772786 28,25.6866049 L28,35 L26.8333333,35 C26.2978516,35 25.8312988,35.3645833 25.701416,35.8841146 L23.3680826,45.2174479 C23.2814941,45.5660807 23.3601075,45.9346517 23.5805663,46.2177734 L23.5805663,46.2177734 Z M42.255778,37.3333333 L44.005778,44.3333333 L42,44.3333333 L42,37.3333333 L42.255778,37.3333333 Z M37.6586101,47.8333333 L32.3413899,47.8333333 L31.9528809,46.6666667 L38.0471191,46.6666667 L37.6586101,47.8333333 Z M30.3333333,26.1685384 L34.9920247,21.4933267 L39.6666667,26.2687988 L39.6666667,44.3333333 L36.1666667,44.3333333 L36.1666667,35 L33.8333333,35 L33.8333333,44.3333333 L30.3333333,44.3333333 L30.3333333,26.1685384 Z M27.744222,37.3333333 L28,37.3333333 L28,44.3333333 L25.994222,44.3333333 L27.744222,37.3333333 Z"></path>
                            <path d="M35,31.5 C36.9328613,31.5 38.5,29.9328613 38.5,28 C38.5,26.0671387 36.9328613,24.5 35,24.5 C33.0671387,24.5 31.5,26.0671387 31.5,28 C31.5,29.9328613 33.0671387,31.5 35,31.5 Z M35,26.8333333 C35.6442871,26.8333333 36.1666667,27.3557129 36.1666667,28 C36.1666667,28.6442871 35.6442871,29.1666667 35,29.1666667 C34.3557129,29.1666667 33.8333333,28.6442871 33.8333333,28 C33.8333333,27.3557129 34.3557129,26.8333333 35,26.8333333 Z"></path>
                            <path d="M35,52.5 C32.4228516,52.5 30.3333333,54.5895182 30.3333333,57.1666667 C30.3333333,59.431071 33.497233,63.072347 34.1318359,63.7792969 C34.3534342,64.0259602 34.6690267,64.1666667 35,64.1666667 C35.3309733,64.1666667 35.6465658,64.0259602 35.8681641,63.7792969 C36.502767,63.072347 39.6666667,59.431071 39.6666667,57.1666667 C39.6666667,54.5895182 37.5771484,52.5 35,52.5 Z M35,61.1930339 C33.759847,59.6389974 32.6666667,57.8889974 32.6666667,57.1666667 C32.6666667,55.8780924 33.7114257,54.8333333 35,54.8333333 C36.2885743,54.8333333 37.3333333,55.8780924 37.3333333,57.1666667 C37.3333333,57.9112142 36.2378743,59.6469726 35,61.1930339 Z"></path>
                            <polygon points="49 40.8333333 51.3333333 40.8333333 51.3333333 45.5 49 45.5"></polygon>
                            <polygon points="49 47.8333333 51.3333333 47.8333333 51.3333333 50.1666667 49 50.1666667"></polygon>
                            <polygon points="53.6666667 44.3333333 56 44.3333333 56 51.3333333 53.6666667 51.3333333"></polygon>
                            <polygon points="53.6666667 53.6666667 56 53.6666667 56 56 53.6666667 56"></polygon>
                            <polygon points="18.6666667 40.8333333 21 40.8333333 21 45.5 18.6666667 45.5"></polygon>
                            <polygon points="18.6666667 47.8333333 21 47.8333333 21 50.1666667 18.6666667 50.1666667"></polygon>
                            <polygon points="14 44.3333333 16.3333333 44.3333333 16.3333333 51.3333333 14 51.3333333"></polygon>
                            <polygon points="14 53.6666667 16.3333333 53.6666667 16.3333333 56 14 56"></polygon>
                            <path d="M54.1844889,67.6666667 C54.6043295,66.9602865 54.828776,66.1547851 54.8333333,65.3333333 C54.8225097,64.0732422 54.3069661,62.8706868 53.4023438,61.9934082 C52.4977214,61.1161295 51.2792155,60.6387533 50.0196941,60.6666667 C49.434082,58.3891601 47.2448731,56.9029134 44.9121094,57.1991373 C42.578776,57.4953613 40.8310547,59.4817708 40.8333333,61.8333333 L43.1666667,61.8333333 C43.1723632,60.544759 44.2216797,59.5045573 45.5102538,59.5102538 C46.7993978,59.5165201 47.8390299,60.5658366 47.8333333,61.8544108 C47.7655436,62.2674153 47.9244792,62.6855469 48.2497559,62.9493002 C48.5750326,63.2130535 49.0165201,63.2825521 49.407308,63.1304524 C49.6499837,63.040446 49.9074707,62.9960123 50.1666667,63 C51.455241,63 52.5,64.044759 52.5,65.3333333 C52.5,66.6219076 51.455241,67.6666667 50.1666667,67.6666667 L19.8333333,67.6666667 C18.544759,67.6666667 17.5,66.6219076 17.5,65.3333333 C17.5,64.044759 18.544759,63 19.8333333,63 C20.0913899,62.996582 20.3477377,63.0410156 20.5892741,63.1304524 C20.9823405,63.2785644 21.4249674,63.2050781 21.7491049,62.9379069 C22.0743816,62.670166 22.2338868,62.2497559 22.1666667,61.8333333 C22.1666667,60.544759 23.2114257,59.5 24.5,59.5 C25.7885743,59.5 26.8333333,60.544759 26.8333333,61.8333333 L29.1666667,61.8333333 C29.1689453,59.4817708 27.421224,57.4953613 25.0878906,57.1991373 C22.7551269,56.9029134 20.565918,58.3891601 19.9803059,60.6666667 C18.7190755,60.632487 17.4971517,61.1081543 16.5908203,61.9865722 C15.6850587,62.8649903 15.1717936,64.0715332 15.1666667,65.3333333 C15.171224,66.1547851 15.3956705,66.9602865 15.8155111,67.6666667 L0,67.6666667 L0,70 L70,70 L70,67.6666667 L54.1844889,67.6666667 Z"></path>
                            <path d="M56,23.3333333 C62.4434408,23.3333333 67.6666667,18.1101075 67.6666667,11.6666667 C67.6666667,5.22322588 62.4434408,0 56,0 C49.5565592,0 44.3333333,5.22322588 44.3333333,11.6666667 C44.3401693,18.107259 49.5594076,23.3264974 56,23.3333333 Z M56,2.33333333 C61.1548665,2.33333333 65.3333333,6.51180017 65.3333333,11.6666667 C65.3333333,16.8215332 61.1548665,21 56,21 C50.8451335,21 46.6666667,16.8215332 46.6666667,11.6666667 C46.6723632,6.51464844 50.8479818,2.33902988 56,2.33333333 Z"></path>
                            <path d="M56,15.1666667 C55.3557129,15.1666667 54.8333333,14.6442871 54.8333333,14 L52.5,14 C52.5062663,15.4777017 53.4399413,16.7924805 54.8333333,17.2852377 L54.8333333,18.6666667 L57.1666667,18.6666667 L57.1666667,17.2852377 C58.7725424,16.7195639 59.7364095,15.0783691 59.4481608,13.4001465 C59.1593424,11.7219238 57.7027181,10.496582 56,10.5 C55.3557129,10.5 54.8333333,9.97762048 54.8333333,9.33333333 C54.8333333,8.68904619 55.3557129,8.16666667 56,8.16666667 C56.6442871,8.16666667 57.1666667,8.68904619 57.1666667,9.33333333 L59.5,9.33333333 C59.4937337,7.85563158 58.5600587,6.54085279 57.1666667,6.04809567 L57.1666667,4.66666667 L54.8333333,4.66666667 L54.8333333,6.04809567 C53.2274576,6.61376946 52.2635905,8.25496423 52.5518392,9.93318681 C52.8406576,11.6114095 54.2972819,12.8367514 56,12.8333333 C56.6442871,12.8333333 57.1666667,13.3557129 57.1666667,14 C57.1666667,14.6442871 56.6442871,15.1666667 56,15.1666667 Z"></path>
                            <path d="M12.8333333,31.5 C19.2767741,31.5 24.5,26.2767741 24.5,19.8333333 C24.5,13.3898925 19.2767741,8.16666667 12.8333333,8.16666667 C6.38989254,8.16666667 1.16666667,13.3898925 1.16666667,19.8333333 C1.1735026,26.2739257 6.39274096,31.4931641 12.8333333,31.5 Z M12.8333333,10.5 C17.9881998,10.5 22.1666667,14.6784668 22.1666667,19.8333333 C22.1666667,24.9881998 17.9881998,29.1666667 12.8333333,29.1666667 C7.67846683,29.1666667 3.5,24.9881998 3.5,19.8333333 C3.50569654,14.6813151 7.6813151,10.5056965 12.8333333,10.5 Z"></path>
                            <path d="M12.8333333,23.3333333 C12.1890462,23.3333333 11.6666667,22.8109538 11.6666667,22.1666667 L9.33333333,22.1666667 C9.33959965,23.6443684 10.2732747,24.9591472 11.6666667,25.4519043 L11.6666667,26.8333333 L14,26.8333333 L14,25.4519043 C15.6058757,24.8862305 16.5697429,23.2450358 16.2814941,21.5668132 C15.9926757,19.8885905 14.5360514,18.6632486 12.8333333,18.6666667 C12.1890462,18.6666667 11.6666667,18.1442871 11.6666667,17.5 C11.6666667,16.8557129 12.1890462,16.3333333 12.8333333,16.3333333 C13.4776205,16.3333333 14,16.8557129 14,17.5 L16.3333333,17.5 C16.327067,16.0222983 15.393392,14.7075195 14,14.2147623 L14,12.8333333 L11.6666667,12.8333333 L11.6666667,14.2147623 C10.060791,14.7804361 9.09692379,16.4216309 9.38517256,18.0998535 C9.67399096,19.7780762 11.1306153,21.003418 12.8333333,21 C13.4776205,21 14,21.5223795 14,22.1666667 C14,22.8109538 13.4776205,23.3333333 12.8333333,23.3333333 Z"></path>
                        </g>
                    </g>
                </g>
            </g>
        </g>
    </g>
</svg>