<?xml version="1.0" encoding="UTF-8"?>
<svg width="88px" height="79px" viewBox="0 0 88 79" version="1.1" xmlns="http://www.w3.org/2000/svg" xmlns:xlink="http://www.w3.org/1999/xlink">
    <!-- Generator: sketchtool 54 (76480) - https://sketchapp.com -->
    <title>78DCDE48-1BAE-41C1-90AB-21E87BBC58A6</title>
    <desc>Created with sketchtool.</desc>
    <defs>
        <polygon id="path-1" points="0 99.9981132 99.9981132 99.9981132 99.9981132 0 0 0"></polygon>
    </defs>
    <g id="Page-1" stroke="none" stroke-width="1" fill="none" fill-rule="evenodd">
        <g id="NEXT-ORBIT-LANDING-PAGE-New-TItle-Section--V03" transform="translate(-1007.000000, -2287.000000)">
            <g id="Group-10" transform="translate(1003.000000, 2282.000000)">
                <g id="Page-1-Copy" transform="translate(50.000000, 50.000000) scale(-1, 1) translate(-50.000000, -50.000000) ">
                    <path d="M23.3746698,25.2522799 C22.7286006,25.2522799 22.2028145,25.7779088 22.2028145,26.423978 C22.2028145,27.0703616 22.7286006,27.5959906 23.3746698,27.5959906 C24.0208962,27.5959906 24.5466824,27.0703616 24.5466824,26.423978 C24.5466824,25.7779088 24.0208962,25.2522799 23.3746698,25.2522799 Z M23.3746698,28.0703616 C22.4671226,28.0703616 21.7286006,27.3318396 21.7286006,26.423978 C21.7286006,25.5164308 22.4671226,24.7779088 23.3746698,24.7779088 C24.2823742,24.7779088 25.0208962,25.5164308 25.0208962,26.423978 C25.0208962,27.3318396 24.2823742,28.0703616 23.3746698,28.0703616 Z" id="Fill-1" fill="#229DCA"></path>
                    <path d="M23.3747484,9.48003145 C23.3747484,10.7698113 22.3291509,11.815566 21.0392138,11.815566 C19.7492767,11.815566 18.7036792,10.7698113 18.7036792,9.48003145 C18.7036792,8.19009434 19.7492767,7.14449686 21.0392138,7.14449686 C22.3291509,7.14449686 23.3747484,8.19009434 23.3747484,9.48003145" id="Fill-7" fill="#C3E5EA"></path>
                    <mask id="mask-2" fill="white">
                        <use xlink:href="#path-1"></use>
                    </mask>
                    <g id="Clip-10"></g>
                    <polygon id="Fill-9" fill="#173D7A" mask="url(#mask-2)" points="10.0586478 45.4212264 11.2869497 45.4212264 11.2869497 40.2544025 10.0586478 40.2544025"></polygon>
                    <polygon id="Fill-11" fill="#173D7A" mask="url(#mask-2)" points="8.08930818 43.4518868 13.2561321 43.4518868 13.2561321 42.2235849 8.08930818 42.2235849"></polygon>
                    <path d="M92.7944497,37.0637736 C92.7944497,37.7947484 93.3870597,38.3873585 94.1180346,38.3873585 C94.8491667,38.3873585 95.4416195,37.7947484 95.4416195,37.0637736 C95.4416195,36.3327987 94.8491667,35.7401887 94.1180346,35.7401887 C93.3870597,35.7401887 92.7944497,36.3327987 92.7944497,37.0637736" id="Fill-12" fill="#229DCA" mask="url(#mask-2)"></path>
                    <path d="M59.2648742,7.03309748 C59.2648742,7.85322327 59.9298113,8.51800314 60.7499371,8.51800314 C61.5700629,8.51800314 62.235,7.85322327 62.235,7.03309748 C62.235,6.21281447 61.5700629,5.54803459 60.7499371,5.54803459 C59.9298113,5.54803459 59.2648742,6.21281447 59.2648742,7.03309748" id="Fill-13" fill="#E7F5F7" mask="url(#mask-2)"></path>
                    <polygon id="Fill-14" fill="#173D7A" mask="url(#mask-2)" points="84.6133648 17.4463836 85.3735849 17.4463836 85.3735849 14.2487421 84.6133648 14.2487421"></polygon>
                    <polygon id="Fill-15" fill="#173D7A" mask="url(#mask-2)" points="83.3946541 16.227673 86.5922956 16.227673 86.5922956 15.4674528 83.3946541 15.4674528"></polygon>
                </g>
                <g id="003-correct" transform="translate(16.000000, 18.000000)">
                    <g id="Group">
                        <g transform="translate(1.166667, 17.500000)" fill="#BDDBFF" id="Shape">
                            <path d="M0,21 L0,25.6666667 C0,28.2438151 2.08951823,30.3333333 4.66666667,30.3333333 L63,30.3333333 C65.5771484,30.3333333 67.6666667,28.2438151 67.6666667,25.6666667 L67.6666667,21 L0,21 Z"></path>
                            <polygon points="23.3333333 42 44.3333333 42 42 30.3333333 25.6666667 30.3333333"></polygon>
                            <path d="M18.6666667,42 C17.3780924,42 16.3333333,43.044759 16.3333333,44.3333333 C16.3333333,45.6219076 17.3780924,46.6666667 18.6666667,46.6666667 L49,46.6666667 C50.2885743,46.6666667 51.3333333,45.6219076 51.3333333,44.3333333 C51.3333333,43.044759 50.2885743,42 49,42 L18.6666667,42 Z"></path>
                            <polygon points="23.3333333 9.33333333 28 9.33333333 28 16.3333333 23.3333333 16.3333333"></polygon>
                            <polygon points="32.6666667 4.66666667 37.3333333 4.66666667 37.3333333 16.3333333 32.6666667 16.3333333"></polygon>
                            <polygon points="42 0 46.6666667 0 46.6666667 16.3333333 42 16.3333333"></polygon>
                        </g>
                        <path d="M64.1666667,0 L5.83333333,0 C2.61303715,0.0039876375 0.0039876375,2.61303715 0,5.83333333 L0,43.1666667 C0.0039876375,46.3869629 2.61303715,48.9960123 5.83333333,49 L25.4097493,49 L23.5435384,58.3333333 L19.8333333,58.3333333 C17.900472,58.3333333 16.3333333,59.900472 16.3333333,61.8333333 C16.3333333,63.7661946 17.900472,65.3333333 19.8333333,65.3333333 L50.1666667,65.3333333 C52.099528,65.3333333 53.6666667,63.7661946 53.6666667,61.8333333 C53.6666667,59.900472 52.099528,58.3333333 50.1666667,58.3333333 L46.4564616,58.3333333 L44.5902507,49 L64.1666667,49 C67.3869629,48.9960123 69.9960123,46.3869629 70,43.1666667 L70,5.83333333 C69.9960123,2.61303715 67.3869629,0.0039876375 64.1666667,0 Z M5.83333333,2.33333333 L64.1666667,2.33333333 C66.099528,2.33333333 67.6666667,3.90047204 67.6666667,5.83333333 L67.6666667,37.3333333 L2.33333333,37.3333333 L2.33333333,5.83333333 C2.33333333,3.90047204 3.90047204,2.33333333 5.83333333,2.33333333 Z M51.3333333,61.8333333 C51.3333333,62.4776205 50.8109538,63 50.1666667,63 L19.8333333,63 C19.1890462,63 18.6666667,62.4776205 18.6666667,61.8333333 C18.6666667,61.1890462 19.1890462,60.6666667 19.8333333,60.6666667 L50.1666667,60.6666667 C50.8109538,60.6666667 51.3333333,61.1890462 51.3333333,61.8333333 Z M44.076416,58.3333333 L25.923584,58.3333333 L27.789795,49 L42.210205,49 L44.076416,58.3333333 Z M64.1666667,46.6666667 L5.83333333,46.6666667 C3.90047204,46.6666667 2.33333333,45.099528 2.33333333,43.1666667 L2.33333333,39.6666667 L67.6666667,39.6666667 L67.6666667,43.1666667 C67.6666667,45.099528 66.099528,46.6666667 64.1666667,46.6666667 Z" id="Shape" fill="#3D9AE2"></path>
                        <path d="M35.4431965,42.0934245 C35.1617839,41.9646809 34.8382161,41.9646809 34.5568035,42.0934245 C34.4155274,42.1526693 34.2850748,42.2352701 34.1717122,42.3383788 C33.7205403,42.7986653 33.7205403,43.534668 34.1717122,43.9949545 C34.2850748,44.0980632 34.4155274,44.1806641 34.5568035,44.2399089 C34.8393555,44.3640951 35.1606445,44.3640951 35.4431965,44.2399089 C35.5844726,44.1806641 35.7149252,44.0980632 35.8282878,43.9949545 L35.9684245,43.8200684 C36.0122884,43.7551269 36.0476075,43.6844889 36.0732422,43.6098632 C36.1068523,43.5437826 36.130778,43.4731445 36.1433106,43.4002278 C36.1569825,43.3227538 36.1649576,43.2447102 36.1666667,43.1666667 C36.1621094,42.8579101 36.0413411,42.5622559 35.8282878,42.3383788 C35.7149252,42.2352701 35.5844726,42.1526693 35.4431965,42.0934245 L35.4431965,42.0934245 Z" id="Shape" fill="#3D9AE2"></path>
                        <path d="M19.8333333,35 L54.8333333,35 L54.8333333,32.6666667 L49,32.6666667 L49,17.5 C49,16.8557129 48.4776205,16.3333333 47.8333333,16.3333333 L43.1666667,16.3333333 C42.5223795,16.3333333 42,16.8557129 42,17.5 L42,32.6666667 L39.6666667,32.6666667 L39.6666667,22.1666667 C39.6666667,21.5223795 39.1442871,21 38.5,21 L33.8333333,21 C33.1890462,21 32.6666667,21.5223795 32.6666667,22.1666667 L32.6666667,32.6666667 L30.3333333,32.6666667 L30.3333333,26.8333333 C30.3333333,26.1890462 29.8109538,25.6666667 29.1666667,25.6666667 L24.5,25.6666667 C23.8557129,25.6666667 23.3333333,26.1890462 23.3333333,26.8333333 L23.3333333,32.6666667 L21,32.6666667 L21,4.66666667 L18.6666667,4.66666667 L18.6666667,33.8333333 C18.6666667,34.4776205 19.1890462,35 19.8333333,35 Z M44.3333333,18.6666667 L46.6666667,18.6666667 L46.6666667,32.6666667 L44.3333333,32.6666667 L44.3333333,18.6666667 Z M35,23.3333333 L37.3333333,23.3333333 L37.3333333,32.6666667 L35,32.6666667 L35,23.3333333 Z M25.6666667,28 L28,28 L28,32.6666667 L25.6666667,32.6666667 L25.6666667,28 Z" id="Shape" fill="#3D9AE2"></path>
                        <path d="M30.9166667,19.8333333 L36.1666667,19.8333333 C36.5340983,19.8333333 36.8798828,19.6601562 37.0997722,19.3667806 L40.25,15.1666667 L45.5,15.1666667 C45.8093262,15.1666667 46.1061198,15.0436198 46.3248698,14.8248698 L50.1666667,10.9830729 L50.1666667,12.8333333 L52.5,12.8333333 L52.5,8.16666667 C52.5,7.52237952 51.9776205,7 51.3333333,7 L46.6666667,7 L46.6666667,9.33333333 L48.5169271,9.33333333 L45.0169271,12.8333333 L39.6666667,12.8333333 C39.2992351,12.8333333 38.9534505,13.0065104 38.7335611,13.2998861 L35.5833333,17.5 L30.3333333,17.5 C29.9659017,17.5 29.6201172,17.6731771 29.4002278,17.9665528 L25.9002278,22.6332194 L27.7664389,24.0334472 L30.9166667,19.8333333 Z" id="Shape" fill="#3D9AE2"></path>
                    </g>
                </g>
            </g>
        </g>
    </g>
</svg>