<?xml version="1.0" encoding="UTF-8"?>
<svg width="88px" height="73px" viewBox="0 0 88 73" version="1.1" xmlns="http://www.w3.org/2000/svg" xmlns:xlink="http://www.w3.org/1999/xlink">
    <!-- Generator: sketchtool 54 (76480) - https://sketchapp.com -->
    <title>EBE4830A-906F-4A04-B87D-937F0B6A7A5F</title>
    <desc>Created with sketchtool.</desc>
    <defs>
        <polygon id="path-1" points="0 99.9981132 99.9981132 99.9981132 99.9981132 0 0 0"></polygon>
    </defs>
    <g id="Page-1" stroke="none" stroke-width="1" fill="none" fill-rule="evenodd">
        <g id="NEXT-ORBIT-LANDING-PAGE-New-TItle-Section--V03" transform="translate(-735.000000, -2032.000000)">
            <g id="Group-8" transform="translate(731.000000, 2027.000000)">
                <g id="Page-1-Copy" transform="translate(50.000000, 50.000000) scale(-1, 1) translate(-50.000000, -50.000000) ">
                    <path d="M23.3746698,25.2522799 C22.7286006,25.2522799 22.2028145,25.7779088 22.2028145,26.423978 C22.2028145,27.0703616 22.7286006,27.5959906 23.3746698,27.5959906 C24.0208962,27.5959906 24.5466824,27.0703616 24.5466824,26.423978 C24.5466824,25.7779088 24.0208962,25.2522799 23.3746698,25.2522799 Z M23.3746698,28.0703616 C22.4671226,28.0703616 21.7286006,27.3318396 21.7286006,26.423978 C21.7286006,25.5164308 22.4671226,24.7779088 23.3746698,24.7779088 C24.2823742,24.7779088 25.0208962,25.5164308 25.0208962,26.423978 C25.0208962,27.3318396 24.2823742,28.0703616 23.3746698,28.0703616 Z" id="Fill-1" fill="#229DCA"></path>
                    <path d="M23.3747484,9.48003145 C23.3747484,10.7698113 22.3291509,11.815566 21.0392138,11.815566 C19.7492767,11.815566 18.7036792,10.7698113 18.7036792,9.48003145 C18.7036792,8.19009434 19.7492767,7.14449686 21.0392138,7.14449686 C22.3291509,7.14449686 23.3747484,8.19009434 23.3747484,9.48003145" id="Fill-7" fill="#C3E5EA"></path>
                    <mask id="mask-2" fill="white">
                        <use xlink:href="#path-1"></use>
                    </mask>
                    <g id="Clip-10"></g>
                    <polygon id="Fill-9" fill="#173D7A" mask="url(#mask-2)" points="10.0586478 45.4212264 11.2869497 45.4212264 11.2869497 40.2544025 10.0586478 40.2544025"></polygon>
                    <polygon id="Fill-11" fill="#173D7A" mask="url(#mask-2)" points="8.08930818 43.4518868 13.2561321 43.4518868 13.2561321 42.2235849 8.08930818 42.2235849"></polygon>
                    <path d="M92.7944497,37.0637736 C92.7944497,37.7947484 93.3870597,38.3873585 94.1180346,38.3873585 C94.8491667,38.3873585 95.4416195,37.7947484 95.4416195,37.0637736 C95.4416195,36.3327987 94.8491667,35.7401887 94.1180346,35.7401887 C93.3870597,35.7401887 92.7944497,36.3327987 92.7944497,37.0637736" id="Fill-12" fill="#229DCA" mask="url(#mask-2)"></path>
                    <path d="M59.2648742,7.03309748 C59.2648742,7.85322327 59.9298113,8.51800314 60.7499371,8.51800314 C61.5700629,8.51800314 62.235,7.85322327 62.235,7.03309748 C62.235,6.21281447 61.5700629,5.54803459 60.7499371,5.54803459 C59.9298113,5.54803459 59.2648742,6.21281447 59.2648742,7.03309748" id="Fill-13" fill="#E7F5F7" mask="url(#mask-2)"></path>
                    <polygon id="Fill-14" fill="#173D7A" mask="url(#mask-2)" points="84.6133648 17.4463836 85.3735849 17.4463836 85.3735849 14.2487421 84.6133648 14.2487421"></polygon>
                    <polygon id="Fill-15" fill="#173D7A" mask="url(#mask-2)" points="83.3946541 16.227673 86.5922956 16.227673 86.5922956 15.4674528 83.3946541 15.4674528"></polygon>
                </g>
                <g id="003-exchange" transform="translate(24.000000, 12.000000)">
                    <g id="Group">
                        <path d="M33.5219131,25.9457888 L33.7152725,25.4416921 L36.5271056,17.929497 C35.1856422,17.929497 34.6490568,16.8563262 33.3075934,16.8563262 C31.96613,16.8563262 31.4295446,19.0026677 30.0880812,19.0026677 C28.7466178,19.0026677 28.2100324,16.8563262 26.868569,16.8563262 C25.5271056,16.8563262 24.9905202,17.929497 23.6490568,17.929497 L26.4608898,25.4416921 L26.6537252,25.9457888 C21.6782583,27.4565072 18.278487,32.0468273 18.2832032,37.2465701 L18.2832032,42.6124238 C18.2832032,46.1683498 21.1657774,49.0514482 24.7222275,49.0514482 L35.4539349,49.0514482 C39.0098609,49.0514482 41.8929593,46.1683498 41.8929593,42.6124238 L41.8929593,37.2465701 C41.8976753,32.0468273 38.497904,27.4565072 33.5219131,25.9457888 L33.5219131,25.9457888 Z" id="Shape" fill="#BDDBFF"></path>
                        <g fill="#3D9AE2" id="Shape">
                            <path d="M23.6490568,16.8563262 C23.2969227,16.8563262 22.967321,17.0287252 22.7666254,17.3179782 C22.5659299,17.6072313 22.5198171,17.9766577 22.6434832,18.3062596 L24.916635,24.3685213 L23.6490568,24.3685213 L23.6490568,26.1113758 C19.6697313,28.4086319 17.2163205,32.6520579 17.2100324,37.2465701 L17.2100324,42.6124238 C17.2147485,46.7594321 20.5752191,50.1199029 24.7222275,50.1246189 L35.4539349,50.1246189 C39.6009432,50.1199029 42.9614138,46.7594321 42.96613,42.6124238 L42.96613,37.2465701 C42.9598419,32.6520579 40.505907,28.4086319 36.5271056,26.1113758 L36.5271056,24.3685213 L35.2595274,24.3685213 L37.532679,18.3062596 C37.6563453,17.9766577 37.6102325,17.6072313 37.409537,17.3179782 C37.2088415,17.0287252 36.8792397,16.8563262 36.5271056,16.8563262 C36.1393388,16.8285538 35.7672923,16.6912633 35.4539349,16.4612234 C34.8162156,16.038348 34.0726468,15.8035919 33.3075934,15.7831555 C32.3261242,15.8753811 31.4384527,16.4041063 30.8908632,17.2231326 C30.6246666,17.5207698 30.2714843,17.929497 30.0880812,17.929497 C29.9046779,17.929497 29.5514958,17.5207698 29.2852992,17.2231326 C28.7371856,16.4041063 27.8495141,15.8753811 26.868569,15.7831555 C26.1035157,15.8035919 25.3599466,16.038348 24.7222275,16.4612234 C24.40887,16.6912633 24.0368236,16.8285538 23.6490568,16.8563262 L23.6490568,16.8563262 Z M40.8197885,37.2465701 L40.8197885,42.6124238 C40.8161204,45.5746475 38.4156346,47.9746093 35.4539349,47.9782774 L24.7222275,47.9782774 C21.7600039,47.9746093 19.3600419,45.5746475 19.3563739,42.6124238 L19.3563739,37.2465701 C19.362138,32.8936261 21.9937119,28.9740377 26.0207221,27.3207888 C25.8750477,27.7525723 25.7990662,28.2053162 25.7953983,28.6612043 L25.7953983,29.734375 L27.9417397,29.734375 L27.9417397,28.6612043 C27.9417397,27.4758955 28.9027725,26.5148628 30.0880812,26.5148628 C31.2733898,26.5148628 32.2344227,27.4758955 32.2344227,28.6612043 L32.2344227,29.734375 L34.3807641,29.734375 L34.3807641,28.6612043 C34.377096,28.2053162 34.3011147,27.7525723 34.1554401,27.3207888 C38.1824504,28.9740377 40.8140244,32.8936261 40.8197885,37.2465701 Z M25.7953983,18.3245998 C26.1087557,18.0945599 26.4808022,17.9572694 26.868569,17.929497 C27.0519721,17.929497 27.4051544,18.3382241 27.671351,18.6358613 C28.2189405,19.4548876 29.106612,19.9836128 30.0880812,20.0758384 C31.0690263,19.9836128 31.9566978,19.4548876 32.5048114,18.6358613 C32.771008,18.3382241 33.1241901,17.929497 33.3075934,17.929497 C33.6953602,17.9572694 34.0674066,18.0945599 34.3807641,18.3245998 C34.6102801,18.4608423 34.8471322,18.5845083 35.0902725,18.6945503 L32.9675114,24.3685213 L27.2086509,24.3685213 L25.0816978,18.6945503 C25.3264101,18.5845083 25.5643101,18.4608423 25.7953983,18.3245998 Z"></path>
                            <path d="M30.0880812,35.1002287 C30.6807356,35.1002287 31.1612519,35.580745 31.1612519,36.1733994 L33.3075934,36.1733994 C33.3018293,34.8141197 32.4429782,33.6047065 31.1612519,33.1514386 L31.1612519,31.8807165 L29.0149105,31.8807165 L29.0149105,33.1514386 C27.5377287,33.6717797 26.6511052,35.1814501 26.9162539,36.725181 C27.1819264,38.268912 28.5218179,39.3960557 30.0880812,39.3929116 C30.6807356,39.3929116 31.1612519,39.8734279 31.1612519,40.4660823 C31.1612519,41.0587367 30.6807356,41.539253 30.0880812,41.539253 C29.4954268,41.539253 29.0149105,41.0587367 29.0149105,40.4660823 L26.868569,40.4660823 C26.8743331,41.825362 27.733184,43.0347752 29.0149105,43.4880431 L29.0149105,44.7587652 L31.1612519,44.7587652 L31.1612519,43.4880431 C32.6384338,42.967702 33.5250571,41.4580316 33.2593846,39.9143007 C32.9942359,38.3705697 31.6543445,37.243426 30.0880812,37.2465701 C29.4954268,37.2465701 29.0149105,36.7660538 29.0149105,36.1733994 C29.0149105,35.580745 29.4954268,35.1002287 30.0880812,35.1002287 Z"></path>
                            <polygon points="34.3807641 37.2465701 36.5271056 37.2465701 36.5271056 39.3929116 34.3807641 39.3929116"></polygon>
                            <polygon points="23.6490568 37.2465701 25.7953983 37.2465701 25.7953983 39.3929116 23.6490568 39.3929116"></polygon>
                            <path d="M32.5682165,3.01252855 L34.0705507,1.51019429 L32.5488282,0 L29.329316,3.2195122 C28.9101086,3.63871951 28.9101086,4.31783537 29.329316,4.73704268 L32.5488282,7.95655488 L34.0663586,6.43902439 L32.8139767,5.18664246 C46.6462461,6.53911017 57.3742855,17.8655679 57.9747999,31.7507622 C58.5753144,45.6359565 48.8654249,57.8464177 35.2018864,60.3883861 L35.5922733,62.4990949 C50.3887195,59.7428068 60.8636624,46.464939 60.099133,31.4332126 C59.3351276,16.4014863 47.5679782,4.25390632 32.5682165,3.01252855 L32.5682165,3.01252855 Z"></path>
                            <path d="M27.6273343,57.9512195 L26.1098038,59.46875 L27.3621856,60.7211319 C13.3402248,59.3497999 2.54039634,47.7414253 2.18407012,33.6571075 C1.8277439,19.5733136 12.02601,7.43306971 25.9604612,5.35380141 L25.6460557,3.22684839 C10.5514482,5.47537154 -0.460604073,18.6819741 0.0408727805,33.9353563 C0.5423495,49.1882145 12.3980564,61.6428639 27.607946,62.8952458 L26.1056117,64.3975801 L27.6231422,65.9151106 L30.8426544,62.6955984 C31.2613376,62.2763911 31.2613376,61.5972752 30.8426544,61.1780679 L27.6273343,57.9512195 Z"></path>
                            <polygon points="45.1124715 31.8807165 51.5514958 31.8807165 51.5514958 34.0270579 45.1124715 34.0270579"></polygon>
                            <polygon points="44.3526581 25.7566215 49.7185118 20.3907679 51.2365662 21.9088223 45.8707126 27.274152"></polygon>
                            <polygon points="44.3526581 40.1516768 45.8701886 38.6336224 51.2360423 43.999476 49.7185118 45.5175305"></polygon>
                            <polygon points="8.62466657 31.8807165 15.063691 31.8807165 15.063691 34.0270579 8.62466657 34.0270579"></polygon>
                            <polygon points="8.93854795 21.9072504 10.4566025 20.3897199 15.8224562 25.7555736 14.3044016 27.2731041"></polygon>
                            <polygon points="8.93854795 44 14.3044016 38.6341463 15.8219321 40.1516768 10.4560784 45.5175305"></polygon>
                        </g>
                    </g>
                </g>
            </g>
        </g>
    </g>
</svg>