<?xml version="1.0" encoding="utf-8"?>
<!-- Generator: Adobe Illustrator 22.0.0, SVG Export Plug-In . SVG Version: 6.00 Build 0)  -->
<svg version="1.1" id="Layer_1" xmlns="http://www.w3.org/2000/svg" xmlns:xlink="http://www.w3.org/1999/xlink" x="0px" y="0px"
	 viewBox="0 0 90 90" style="enable-background:new 0 0 90 90;" xml:space="preserve">
<style type="text/css">
	.st0{fill:#229DCA;}
	.st1{fill:#C3E5EA;}
	.st2{filter:url(#Adobe_OpacityMaskFilter);}
	.st3{fill:#FFFFFF;}
	.st4{mask:url(#mask-2_1_);fill:#173D7A;}
	.st5{filter:url(#Adobe_OpacityMaskFilter_1_);}
	.st6{mask:url(#mask-2_2_);fill:#173D7A;}
	.st7{filter:url(#Adobe_OpacityMaskFilter_2_);}
	.st8{mask:url(#mask-2_3_);fill:#229DCA;}
	.st9{filter:url(#Adobe_OpacityMaskFilter_3_);}
	.st10{mask:url(#mask-2_4_);fill:#E7F5F7;}
	.st11{filter:url(#Adobe_OpacityMaskFilter_4_);}
	.st12{mask:url(#mask-2_5_);fill:#173D7A;}
	.st13{filter:url(#Adobe_OpacityMaskFilter_5_);}
	.st14{mask:url(#mask-2_6_);fill:#173D7A;}
	.st15{fill:#78B9EB;}
	.st16{fill:#1E81CE;}
</style>
<title>BC0B0794-072F-4D9F-9C67-FE371920EE8A</title>
<desc>Created with sketchtool.</desc>
<g id="Page-1">
	<g id="NEXT-ORBIT-LANDING-PAGE-New-TItle-Section--V03-Features-Price" transform="translate(-454.000000, -2292.000000)">
		<g id="Group-12" transform="translate(450.000000, 2287.000000)">
			<g id="Page-1-Copy" transform="translate(50.000000, 50.000000) scale(-1, 1) translate(-50.000000, -50.000000) ">
				<path id="Fill-1" class="st0" d="M23.4,34c-0.6,0-1.1,0.5-1.1,1.1c0,0.6,0.5,1.1,1.1,1.1c0.6,0,1.1-0.5,1.1-1.1
					C24.5,34.5,24,34,23.4,34z M23.4,36.7c-0.9,0-1.6-0.7-1.6-1.6c0-0.9,0.7-1.6,1.6-1.6c0.9,0,1.6,0.7,1.6,1.6
					C25,36,24.3,36.7,23.4,36.7z"/>
				<path id="Fill-7" class="st1" d="M23.4,18.6c0,1.3-1,2.3-2.3,2.3c-1.3,0-2.3-1-2.3-2.3c0-1.3,1-2.3,2.3-2.3
					C22.4,16.3,23.4,17.4,23.4,18.6"/>
				<g id="Clip-10">
				</g>
				<defs>
					<filter id="Adobe_OpacityMaskFilter" filterUnits="userSpaceOnUse">
						<feColorMatrix  type="matrix" values="1 0 0 0 0  0 1 0 0 0  0 0 1 0 0  0 0 0 1 0"/>
					</filter>
				</defs>
				<mask maskUnits="userSpaceOnUse" id="mask-2_1_">
					<g class="st2">
						<polygon id="path-1_1_" class="st3" points="0.6,106.7 97.9,106.7 97.9,9.4 0.6,9.4 						"/>
					</g>
				</mask>
				<polygon id="Fill-9" class="st4" points="10.4,53.6 11.6,53.6 11.6,48.6 10.4,48.6 				"/>
				<defs>
					<filter id="Adobe_OpacityMaskFilter_1_" filterUnits="userSpaceOnUse">
						<feColorMatrix  type="matrix" values="1 0 0 0 0  0 1 0 0 0  0 0 1 0 0  0 0 0 1 0"/>
					</filter>
				</defs>
				<mask maskUnits="userSpaceOnUse" id="mask-2_2_">
					<g class="st5">
						<polygon id="path-1_2_" class="st3" points="0.6,106.7 97.9,106.7 97.9,9.4 0.6,9.4 						"/>
					</g>
				</mask>
				<polygon id="Fill-11" class="st6" points="8.5,51.7 13.5,51.7 13.5,50.5 8.5,50.5 				"/>
				<defs>
					<filter id="Adobe_OpacityMaskFilter_2_" filterUnits="userSpaceOnUse">
						<feColorMatrix  type="matrix" values="1 0 0 0 0  0 1 0 0 0  0 0 1 0 0  0 0 0 1 0"/>
					</filter>
				</defs>
				<mask maskUnits="userSpaceOnUse" id="mask-2_3_">
					<g class="st7">
						<polygon id="path-1_3_" class="st3" points="0.6,106.7 97.9,106.7 97.9,9.4 0.6,9.4 						"/>
					</g>
				</mask>
				<path id="Fill-12" class="st8" d="M90.9,45.5c0,0.7,0.6,1.3,1.3,1.3c0.7,0,1.3-0.6,1.3-1.3c0-0.7-0.6-1.3-1.3-1.3
					C91.5,44.2,90.9,44.8,90.9,45.5"/>
				<defs>
					<filter id="Adobe_OpacityMaskFilter_3_" filterUnits="userSpaceOnUse">
						<feColorMatrix  type="matrix" values="1 0 0 0 0  0 1 0 0 0  0 0 1 0 0  0 0 0 1 0"/>
					</filter>
				</defs>
				<mask maskUnits="userSpaceOnUse" id="mask-2_4_">
					<g class="st9">
						<polygon id="path-1_4_" class="st3" points="0.6,106.7 97.9,106.7 97.9,9.4 0.6,9.4 						"/>
					</g>
				</mask>
				<path id="Fill-13" class="st10" d="M58.3,16.2c0,0.8,0.6,1.4,1.4,1.4s1.4-0.6,1.4-1.4c0-0.8-0.6-1.4-1.4-1.4
					S58.3,15.4,58.3,16.2"/>
				<defs>
					<filter id="Adobe_OpacityMaskFilter_4_" filterUnits="userSpaceOnUse">
						<feColorMatrix  type="matrix" values="1 0 0 0 0  0 1 0 0 0  0 0 1 0 0  0 0 0 1 0"/>
					</filter>
				</defs>
				<mask maskUnits="userSpaceOnUse" id="mask-2_5_">
					<g class="st11">
						<polygon id="path-1_5_" class="st3" points="0.6,106.7 97.9,106.7 97.9,9.4 0.6,9.4 						"/>
					</g>
				</mask>
				<polygon id="Fill-14" class="st12" points="83,26.4 83.7,26.4 83.7,23.3 83,23.3 				"/>
				<defs>
					<filter id="Adobe_OpacityMaskFilter_5_" filterUnits="userSpaceOnUse">
						<feColorMatrix  type="matrix" values="1 0 0 0 0  0 1 0 0 0  0 0 1 0 0  0 0 0 1 0"/>
					</filter>
				</defs>
				<mask maskUnits="userSpaceOnUse" id="mask-2_6_">
					<g class="st13">
						<polygon id="path-1_6_" class="st3" points="0.6,106.7 97.9,106.7 97.9,9.4 0.6,9.4 						"/>
					</g>
				</mask>
				<polygon id="Fill-15" class="st14" points="81.8,25.2 84.9,25.2 84.9,24.4 81.8,24.4 				"/>
			</g>
			<g id="_x30_05-shopping-cart-copy" transform="translate(26.000000, 18.000000)">
				<g id="Capa_1">
					<g id="Group" transform="translate(13.176471, 3.725572)">
						<polygon id="Shape" class="st15" points="10.2,16.1 7.4,16.1 1,16.1 1,21.5 10.2,21.5 						"/>
						<polygon id="Shape_1_" class="st15" points="10.2,21.5 20.2,21.5 20.2,12.4 20.2,8.8 7.4,8.8 7.4,16.1 10.2,16.1 						"/>
						<polygon id="Shape_2_" class="st15" points="20.2,12.4 31.2,12.4 31.2,21.5 20.2,21.5 						"/>
					</g>
					<g id="Group_1_">
						<path id="Shape_3_" class="st16" d="M49.7,24.6c-0.2-0.2-0.4-0.3-0.7-0.3h-3.7v-8.2c0-0.5-0.4-0.9-0.9-0.9H34.3v-2.7
							c0-0.5-0.4-0.9-0.9-0.9H20.6c-0.5,0-0.9,0.4-0.9,0.9v6.3h-5.5c-0.5,0-0.9,0.4-0.9,0.9v4.5H9.6V9.8c0-0.5-0.4-0.9-0.9-0.9H1.4
							v1.8h6.4v43.6c-2.5,0.5-4.1,2.9-3.6,5.3c0.5,2.5,2.9,4,5.4,3.5c1.8-0.4,3.2-1.8,3.6-3.5h18.5c0.5,2.5,2.9,4,5.4,3.5
							c2.5-0.5,4.1-2.9,3.6-5.3c-0.5-2.5-2.9-4-5.4-3.5c-1.8,0.4-3.2,1.8-3.6,3.5H13.2c-0.4-1.8-1.8-3.2-3.6-3.5v-2.8h35.7
							c0.5,0,0.8-0.3,0.9-0.8l3.7-25.4C49.9,25.1,49.9,24.8,49.7,24.6L49.7,24.6z M36.2,56c1.5,0,2.7,1.2,2.7,2.7s-1.2,2.7-2.7,2.7
							c-1.5,0-2.7-1.2-2.7-2.7S34.6,56,36.2,56z M43.5,17.1v7.3h-9.2v-7.3H43.5z M21.5,13.4h11v10.9h-8.2v-4.5
							c0-0.5-0.4-0.9-0.9-0.9h-1.8V13.4L21.5,13.4z M15.1,20.7h7.3v3.6h-7.3V20.7z M11.4,58.8c0,1.5-1.2,2.7-2.7,2.7
							s-2.7-1.2-2.7-2.7S7.2,56,8.7,56S11.4,57.3,11.4,58.8z M44.5,49.7H9.6V26.1h38.3L44.5,49.7z"/>
						<polygon id="Shape_4_" class="st16" points="7.8,57.9 9.6,57.9 9.6,59.7 7.8,59.7 						"/>
						<polygon id="Shape_5_" class="st16" points="35.3,57.9 37.1,57.9 37.1,59.7 35.3,59.7 						"/>
						<polygon id="Shape_6_" class="st16" points="13.3,27.9 15.1,27.9 15.1,47.9 13.3,47.9 						"/>
						<polygon id="Shape_7_" class="st16" points="18.8,27.9 20.6,27.9 20.6,47.9 18.8,47.9 						"/>
						<polygon id="Shape_8_" class="st16" points="24.3,27.9 26.1,27.9 26.1,47.9 24.3,47.9 						"/>
						<polygon id="Shape_9_" class="st16" points="29.8,27.9 31.6,27.9 31.6,47.9 29.8,47.9 						"/>
						<polygon id="Shape_10_" class="st16" points="35.3,27.9 37.1,27.9 37.1,47.9 35.3,47.9 						"/>
						<polygon id="Shape_11_" class="st16" points="40.7,27.9 42.6,27.9 42.6,47.9 40.7,47.9 						"/>
					</g>
				</g>
			</g>
		</g>
	</g>
</g>
</svg>
