<?xml version="1.0" encoding="UTF-8"?>
<svg width="18px" height="35px" viewBox="0 0 18 35" version="1.1" xmlns="http://www.w3.org/2000/svg" xmlns:xlink="http://www.w3.org/1999/xlink">
    <!-- Generator: sketchtool 54 (76480) - https://sketchapp.com -->
    <title>DB99D66D-5DB8-4ECA-BD1E-A92084D0B94A</title>
    <desc>Created with sketchtool.</desc>
    <g id="Page-1" stroke="none" stroke-width="1" fill="none" fill-rule="evenodd">
        <g id="NEXT-ORBIT-LANDING-PAGE-New-TItle-Section--V03" transform="translate(-115.000000, -1667.000000)" fill="#3D9AE2">
            <path d="M121,1699.08333 L121,1702 L127,1702 L127,1699.08333 C130.313477,1699.08333 133,1696.47286 133,1693.25 L133,1687.41667 C133,1684.19523 130.313477,1681.58333 127,1681.58333 L121,1681.58333 L121,1675.75 L127,1675.75 L127,1678.66667 L133,1678.66667 L133,1675.75 C133,1672.52856 130.313477,1669.91667 127,1669.91667 L127,1667 L121,1667 L121,1669.91667 C117.686523,1669.91667 115,1672.52856 115,1675.75 L115,1681.58333 C115,1684.80619 117.686523,1687.41667 121,1687.41667 L127,1687.41667 L127,1693.25 L121,1693.25 L121,1690.33333 L115,1690.33333 L115,1693.25 C115,1696.47286 117.686523,1699.08333 121,1699.08333 Z" id="Shape"></path>
        </g>
    </g>
</svg>