<?xml version="1.0" encoding="utf-8"?>
<!-- Generator: Adobe Illustrator 22.0.0, SVG Export Plug-In . SVG Version: 6.00 Build 0)  -->
<svg version="1.1" id="Layer_1" xmlns="http://www.w3.org/2000/svg" xmlns:xlink="http://www.w3.org/1999/xlink" x="0px" y="0px"
	 viewBox="0 0 90 90" style="enable-background:new 0 0 90 90;" xml:space="preserve">
<style type="text/css">
	.st0{fill:#3D9AE2;}
</style>
<title>DB99D66D-5DB8-4ECA-BD1E-A92084D0B94A</title>
<desc>Created with sketchtool.</desc>
<g id="Page-1">
	<g id="NEXT-ORBIT-LANDING-PAGE-New-TItle-Section--V03" transform="translate(-115.000000, -1667.000000)">
		<path id="Shape" class="st0" d="M154.3,1739.5v5.5h11.3v-5.5c6.2,0,11.3-4.9,11.3-11v-11c0-6.1-5.1-11-11.3-11h-11.3v-11h11.3v5.5
			H177v-5.5c0-6.1-5.1-11-11.3-11v-5.5h-11.3v5.5c-6.2,0-11.3,4.9-11.3,11v11c0,6.1,5.1,11,11.3,11h11.3v11h-11.3v-5.5H143v5.5
			C143,1734.6,148.1,1739.5,154.3,1739.5z"/>
	</g>
</g>
</svg>
